<mxfile modified="2021-01-19T11:53:51.599Z" host="app.diagrams.net" agent="5.0 (Windows NT 10.0; Win64; x64) AppleWebKit/537.36 (KHTML, like Gecko) Chrome/87.0.4280.141 Safari/537.36 Edg/87.0.664.75" etag="PSphaLX2pkZD8-mtP30u" version="14.2.4" type="github">
  <diagram id="WI9T0HZ2pTsCkuznbFz-" name="Page-1">
    <mxGraphModel dx="1360" dy="1629" grid="1" gridSize="10" guides="1" tooltips="1" connect="1" arrows="1" fold="1" page="1" pageScale="1" pageWidth="1169" pageHeight="827" math="0" shadow="0">
      <root>
        <mxCell id="0" />
        <mxCell id="1" parent="0" />
        <mxCell id="Y6577xWDLrJWWgxM1nmn-37" value="" style="rounded=0;whiteSpace=wrap;html=1;dashed=1;strokeColor=#666666;fontColor=#333333;fillColor=#D4E1F5;" vertex="1" parent="1">
          <mxGeometry x="20" y="-10" width="150" height="260" as="geometry" />
        </mxCell>
        <mxCell id="Y6577xWDLrJWWgxM1nmn-34" value="" style="rounded=0;whiteSpace=wrap;html=1;fillColor=#f5f5f5;fontColor=#333333;dashed=1;strokeColor=#A1A1A1;" vertex="1" parent="1">
          <mxGeometry x="240" y="80" width="850" height="490" as="geometry" />
        </mxCell>
        <mxCell id="Y6577xWDLrJWWgxM1nmn-2" value="App Service&#xa;" style="shape=image;verticalLabelPosition=bottom;labelBackgroundColor=none;verticalAlign=top;aspect=fixed;imageAspect=0;image=data:image/svg+xml,PHN2ZyB4bWxuczpkYz0iaHR0cDovL3B1cmwub3JnL2RjL2VsZW1lbnRzLzEuMS8iIHhtbG5zOmNjPSJodHRwOi8vY3JlYXRpdmVjb21tb25zLm9yZy9ucyMiIHhtbG5zOnJkZj0iaHR0cDovL3d3dy53My5vcmcvMTk5OS8wMi8yMi1yZGYtc3ludGF4LW5zIyIgeG1sbnM6c3ZnPSJodHRwOi8vd3d3LnczLm9yZy8yMDAwL3N2ZyIgeG1sbnM9Imh0dHA6Ly93d3cudzMub3JnLzIwMDAvc3ZnIiB4bWxuczpzb2RpcG9kaT0iaHR0cDovL3NvZGlwb2RpLnNvdXJjZWZvcmdlLm5ldC9EVEQvc29kaXBvZGktMC5kdGQiIHhtbG5zOmlua3NjYXBlPSJodHRwOi8vd3d3Lmlua3NjYXBlLm9yZy9uYW1lc3BhY2VzL2lua3NjYXBlIiB2ZXJzaW9uPSIxLjEiIGlkPSJzdmc2MTMyMyIgaW5rc2NhcGU6dmVyc2lvbj0iMC45Mi4zICgyNDA1NTQ2LCAyMDE4LTAzLTExKSIgc29kaXBvZGk6ZG9jbmFtZT0iYXp1cmVfcG9ydGFsX3dlYl9hcHBzLnN2ZyIgeD0iMHB4IiB5PSIwcHgiIHZpZXdCb3g9IjAgMCA1MS4wMjkzMTcgNTEuMDIiIHhtbDpzcGFjZT0icHJlc2VydmUiIHdpZHRoPSI1MS4wMjkzMTYiIGhlaWdodD0iNTEuMDIiPjxtZXRhZGF0YSBpZD0ibWV0YWRhdGExMTY1NSI+PHJkZjpSREY+PGNjOldvcmsgcmRmOmFib3V0PSIiPjxkYzpmb3JtYXQ+aW1hZ2Uvc3ZnK3htbDwvZGM6Zm9ybWF0PjxkYzp0eXBlIHJkZjpyZXNvdXJjZT0iaHR0cDovL3B1cmwub3JnL2RjL2RjbWl0eXBlL1N0aWxsSW1hZ2UiLz48ZGM6dGl0bGUvPjwvY2M6V29yaz48L3JkZjpSREY+PC9tZXRhZGF0YT48ZGVmcyBpZD0iZGVmczExNjUzIi8+JiN4YTs8ZmlsdGVyIGlkPSJmaWx0ZXJfMiI+JiN4YTsJPGZlR2F1c3NpYW5CbHVyIGlkPSJmZUdhdXNzaWFuQmx1cjYxMjk2IiBzdGREZXZpYXRpb249IjIiLz4mI3hhOzwvZmlsdGVyPiYjeGE7PHNvZGlwb2RpOm5hbWVkdmlldyBib3JkZXJjb2xvcj0iIzY2NjY2NiIgYm9yZGVyb3BhY2l0eT0iMSIgZml0LW1hcmdpbi1ib3R0b209IjAiIGZpdC1tYXJnaW4tbGVmdD0iMCIgZml0LW1hcmdpbi1yaWdodD0iMCIgZml0LW1hcmdpbi10b3A9IjAiIGdyaWR0b2xlcmFuY2U9IjEwIiBndWlkZXRvbGVyYW5jZT0iMTAiIGlkPSJuYW1lZHZpZXc2MTMyNSIgaW5rc2NhcGU6Y3VycmVudC1sYXllcj0ic3ZnNjEzMjMiIGlua3NjYXBlOmN4PSItNDUuMDA0ODE4IiBpbmtzY2FwZTpjeT0iMzkuNDkwNjM4IiBpbmtzY2FwZTpwYWdlb3BhY2l0eT0iMCIgaW5rc2NhcGU6cGFnZXNoYWRvdz0iMiIgaW5rc2NhcGU6d2luZG93LWhlaWdodD0iMTAxNyIgaW5rc2NhcGU6d2luZG93LW1heGltaXplZD0iMSIgaW5rc2NhcGU6d2luZG93LXdpZHRoPSIxOTIwIiBpbmtzY2FwZTp3aW5kb3cteD0iLTgiIGlua3NjYXBlOndpbmRvdy15PSItOCIgaW5rc2NhcGU6em9vbT0iNC4zMDY1ODM0IiBvYmplY3R0b2xlcmFuY2U9IjEwIiBwYWdlY29sb3I9IiNmZmZmZmYiIHNob3dncmlkPSJmYWxzZSI+JiN4YTsJPC9zb2RpcG9kaTpuYW1lZHZpZXc+JiN4YTsmI3hhOzxwYXRoIGlkPSJwYXRoNjEzMDkiIGlua3NjYXBlOmNvbm5lY3Rvci1jdXJ2YXR1cmU9IjAiIHN0eWxlPSJmaWxsOiM1OWI0ZDkiIGQ9Im0gNDEuMDE0NTI2LDQ1Ljc2IGMgLTQuNjIsMy41MyAtMTAuMDcsNS4yNiAtMTUuNDcsNS4yNiAtNy42OCwwIC0xNS4yNywtMy40NSAtMjAuMjc5OTk5OSwtMTAuMDEgLTguNTcsLTExLjE5IC02LjQ2LC0yNy4xOCA0Ljc0OTk5OTksLTM1Ljc2IDQuNjIsLTMuNTUgMTAuMDgsLTUuMjUgMTUuNDgsLTUuMjUgNy42NywwIDE1LjI2LDMuNDUgMjAuMjgsMTAuMDEgOC41NywxMS4xOCA2LjQzLDI3LjE5IC00Ljc2LDM1Ljc1IHoiLz4mI3hhOyYjeGE7PHBhdGggaWQ9InBhdGg2MTMxNyIgaW5rc2NhcGU6Y29ubmVjdG9yLWN1cnZhdHVyZT0iMCIgc3R5bGU9ImZpbGw6I2ZmZmZmZiIgZD0ibSAzNi4zMzQ1MjYsMjkuOTggYyAxLjg1LDIuNDEgNS4yOSwyLjg1IDcuNywxLjAyIDAuMTIsLTAuMDkgMC4yMiwtMC4yMSAwLjMzLC0wLjMxIDIuNDYsMS43MyA0LjE3LDIuODcgNS4xMywzLjUzIDAuMjgsLTAuNzQgMC40OCwtMS40NSAwLjY4LC0yLjE5IC0xLjAxLC0wLjc2IC0yLjM5LC0xLjgxIC00LjM3LC0zLjQyIDAuNjUsLTEuNzIgMC40NCwtMy43MiAtMC43NSwtNS4yOCAtMS43LC0yLjIxIC00LjcyLC0yLjc3IC03LjA4LC0xLjQxIC0yLjYsLTIuMzMgLTUuNDUsLTUgLTguNDYsLTcuOTkgOS4zNSwtNS4wMyAxNiwtNC4yOSAxNiwtNC4yOSAtMS4xMSwtMS40MiAtMi4zNiwtMi42NiAtMy42OCwtMy43OCAtMy45NSwtMC42MSAtMTAuMDcsLTAuNTQgLTE3LjA3LDMuMTkgbCAtMC4wMSwtMC4wMSB2IDAgYyAtMi4zMywtMi40NCAtNC43MSwtNS4wNiAtNy4xMiwtNy44NyAtMS4xNiwwLjM3IC0yLjI5LDAuODMgLTMuMzgsMS4zOCAxLjc4LDIuOTIgNC4xOCw1Ljg3IDYuODksOC43NCAwLDAuMDEgMC4wMSwwLjAxIDAuMDIsMC4wMiAtMi4yNiwxLjU3IC00Ljc3LDMuNjggLTcuMDksNi4xMyAtMC4zLDAuMzIgLTAuNTgsMC42NCAtMC44NiwwLjk1IC0xLjM4LC0wLjI5IC0yLjg0LC0wLjIgLTQuMTk5OTk5OSwwLjI5IC0yLjMxLC00Ljk4IC0yLjEzLC04Ljk5IC0xLjc2LC0xMS4wNSAtMSwxLjA1IC0xLjk0LDIuMTUgLTIuNzUsMy4zMyAtMC42LDIuNDcgLTAuNzcsNi4wMiAxLjAxLDEwLjMgLTIuMDYsMi43IC0yLjE2LDYuNTIgLTAuMDEsOS4zNSAwLjE4LDAuMjMgMC4zNywwLjQ1IDAuNTcsMC42NSAtMC45NCwzLjIgLTEuMzYsNi4yOSAtMS40OSw4Ljk0IDAuMjQsMC4zMyAwLjI0LDAuNiAwLjQ4LDAuOTIgMS4yMywxLjU3IDIuNzYsMi44OSA0LjI1LDQuMDkgLTAuMTgsLTIuODEgMC4wMSwtNi45NSAxLjc0OTk5OTksLTExLjYxIDEuMiwwLjA5IDIuNDEsLTAuMDkgMy41NSwtMC41NyAwLjY2LDAuNTcgMS4zNCwxLjE1IDIuMDcsMS43NCAyLjUsMS45OCA1LDMuNTMgNy40Myw0Ljc0IC0wLjEyLDEuMjQgMC4xOSwyLjUyIDAuOTksMy41OSAxLjcyLDIuMjIgNC45MSwyLjY0IDcuMTMsMC45NCAwLjQ2LC0wLjM2IDAuODMsLTAuNzggMS4xMywtMS4yNCAzLjk3LDAuODggNy40NCwxLjA0IDEwLjAxLDEuMDQgMC4zOSwwIDIuMjIsLTIuNDkgMy4yNiwtNC4wMyAtMS41NiwwLjMzIC02LjIsMC45NyAtMTIuNTUsLTAuODYgLTAuMTUsLTAuNzEgLTAuNDQsLTEuNCAtMC45MSwtMi4wMiAtMS42MiwtMi4xMSAtNC41NiwtMi41NyAtNi43NiwtMS4xNSAtMi4yLC0xLjIgLTQuNTEsLTIuNyAtNi44OSwtNC41OSAtMC40OCwtMC4zOCAtMC45NSwtMC43NiAtMS4zOSwtMS4xNCAxLjQ1LC0yLjI5IDEuNjEsLTUuMjMgMC4zMiwtNy43IDAuMywtMC4yOSAwLjU4LC0wLjU5IDAuODksLTAuODggMi4zNiwtMi4yIDQuNTgsLTMuOTYgNi42NiwtNS4zOCAtMC4wOSwtMC4wOCAtMC4xNiwtMC4xNiAtMC4yNSwtMC4yNCAwLjA5LDAuMDggMC4xNiwwLjE2IDAuMjUsMC4yNCB2IDAgYyAzLjE4LDIuOTQgNi41Niw1LjczIDkuNzYsOC4yMyAtMC44NSwxLjc5IC0wLjcyLDMuOTggMC41Nyw1LjY2IHoiLz4mI3hhOzwvc3ZnPg==;" vertex="1" parent="1">
          <mxGeometry x="700.0000000000001" y="304" width="51" height="51" as="geometry" />
        </mxCell>
        <mxCell id="Y6577xWDLrJWWgxM1nmn-17" style="edgeStyle=orthogonalEdgeStyle;rounded=0;orthogonalLoop=1;jettySize=auto;html=1;exitX=0.5;exitY=0;exitDx=0;exitDy=0;" edge="1" parent="1" source="Y6577xWDLrJWWgxM1nmn-5" target="Y6577xWDLrJWWgxM1nmn-8">
          <mxGeometry relative="1" as="geometry" />
        </mxCell>
        <mxCell id="Y6577xWDLrJWWgxM1nmn-5" value="Azure Functions" style="shape=image;verticalLabelPosition=bottom;labelBackgroundColor=none;verticalAlign=top;aspect=fixed;imageAspect=0;image=data:image/svg+xml,PHN2ZyB4bWxuczpjYz0iaHR0cDovL2NyZWF0aXZlY29tbW9ucy5vcmcvbnMjIiB4bWxuczpkYz0iaHR0cDovL3B1cmwub3JnL2RjL2VsZW1lbnRzLzEuMS8iIHhtbG5zOmlua3NjYXBlPSJodHRwOi8vd3d3Lmlua3NjYXBlLm9yZy9uYW1lc3BhY2VzL2lua3NjYXBlIiB4bWxuczpyZGY9Imh0dHA6Ly93d3cudzMub3JnLzE5OTkvMDIvMjItcmRmLXN5bnRheC1ucyMiIHhtbG5zOnNvZGlwb2RpPSJodHRwOi8vc29kaXBvZGkuc291cmNlZm9yZ2UubmV0L0RURC9zb2RpcG9kaS0wLmR0ZCIgeG1sbnM6c3ZnPSJodHRwOi8vd3d3LnczLm9yZy8yMDAwL3N2ZyIgeG1sbnM9Imh0dHA6Ly93d3cudzMub3JnLzIwMDAvc3ZnIiB4bWxuczp4bGluaz0iaHR0cDovL3d3dy53My5vcmcvMTk5OS94bGluayIgdmVyc2lvbj0iMS4xIiBpZD0ic3ZnNTg1MzciIGlua3NjYXBlOnZlcnNpb249IjAuOTIuMyAoMjQwNTU0NiwgMjAxOC0wMy0xMSkiIHNvZGlwb2RpOmRvY25hbWU9ImF6dXJlX2Z1bmN0aW9ucy5zdmciIHg9IjBweCIgeT0iMHB4IiB2aWV3Qm94PSIwIDAgNTcuMzEgNTIuODEiIHN0eWxlPSJlbmFibGUtYmFja2dyb3VuZDpuZXcgMCAwIDU3LjMxIDUyLjgxOyIgeG1sOnNwYWNlPSJwcmVzZXJ2ZSI+JiN4YTs8c29kaXBvZGk6bmFtZWR2aWV3IGJvcmRlcmNvbG9yPSIjNjY2NjY2IiBib3JkZXJvcGFjaXR5PSIxIiBmaXQtbWFyZ2luLWJvdHRvbT0iMCIgZml0LW1hcmdpbi1sZWZ0PSIwIiBmaXQtbWFyZ2luLXJpZ2h0PSIwIiBmaXQtbWFyZ2luLXRvcD0iMCIgZ3JpZHRvbGVyYW5jZT0iMTAiIGd1aWRldG9sZXJhbmNlPSIxMCIgaWQ9Im5hbWVkdmlldzU4NTM5IiBpbmtzY2FwZTpjdXJyZW50LWxheWVyPSJzdmc1ODUzNyIgaW5rc2NhcGU6Y3g9IjM5LjQ3MTQ0MiIgaW5rc2NhcGU6Y3k9IjI2LjM0NTIxNyIgaW5rc2NhcGU6cGFnZW9wYWNpdHk9IjAiIGlua3NjYXBlOnBhZ2VzaGFkb3c9IjIiIGlua3NjYXBlOndpbmRvdy1oZWlnaHQ9IjEwMTciIGlua3NjYXBlOndpbmRvdy1tYXhpbWl6ZWQ9IjEiIGlua3NjYXBlOndpbmRvdy13aWR0aD0iMTkyMCIgaW5rc2NhcGU6d2luZG93LXg9Ii04IiBpbmtzY2FwZTp3aW5kb3cteT0iLTgiIGlua3NjYXBlOnpvb209IjYuMzkxNjgyOCIgb2JqZWN0dG9sZXJhbmNlPSIxMCIgcGFnZWNvbG9yPSIjZmZmZmZmIiBzaG93Z3JpZD0iZmFsc2UiPiYjeGE7CTwvc29kaXBvZGk6bmFtZWR2aWV3PiYjeGE7PGcgaWQ9Imc1ODUzNSIgdHJhbnNmb3JtPSJ0cmFuc2xhdGUoLTkuNTYzNDE2MSwtOS41Njc2MDUyKSI+JiN4YTsJPHRpdGxlIGlkPSJ0aXRsZTU4NTEwIj5QYWdlLTE8L3RpdGxlPiYjeGE7CTxnIGlkPSJncm91cDQ0MzYtMSIgdHJhbnNmb3JtPSJ0cmFuc2xhdGUoOS4zOTU0MywtOS41NjI1KSI+JiN4YTsJCTx0aXRsZSBpZD0idGl0bGU1ODUxMiI+QXp1cmUgRnVuY3Rpb25zLjQzNzwvdGl0bGU+JiN4YTsJCTxnIGlkPSJzaGFwZTQ0MzctMiIgdHJhbnNmb3JtPSJ0cmFuc2xhdGUoMzkuMjA1OSwtMTAuMjkzOCkiPiYjeGE7CQkJPHRpdGxlIGlkPSJ0aXRsZTU4NTE0Ij5TaGVldC40NDM3PC90aXRsZT4mI3hhOwkJCTxwYXRoIGlkPSJwYXRoNTg1MTYiIGlua3NjYXBlOmNvbm5lY3Rvci1jdXJ2YXR1cmU9IjAiIHN0eWxlPSJmaWxsOiMzOTk5QzY7IiBkPSJNMTcuOSw1Ni4xOGMwLjU0LTAuNTMsMC40NS0xLjUyLDAtMi4wNiAgICAgbC0yLjc3LTIuNzdsLTEyLjM2LTEyYy0wLjUzLTAuNTMtMS4zNC0wLjUzLTEuOTYsMGMtMC41NCwwLjU0LTAuNzIsMS41MywwLDIuMDZsMTIuOTcsMTIuNzFjMC41NCwwLjU0LDAuNTQsMS41MywwLDIuMDYgICAgIEwwLjU0LDY5LjM0QzAsNjkuODgsMCw3MC44NiwwLjU0LDcxLjRjMC41MywwLjU0LDEuNTIsMC40NSwxLjk3LDBsMTIuMjYtMTIuMTdjMCwwLDAsMCwwLjA5LTAuMDlMMTcuOSw1Ni4xOHoiLz4mI3hhOwkJPC9nPiYjeGE7CQk8ZyBpZD0ic2hhcGU0NDM4LTQiIHRyYW5zZm9ybT0idHJhbnNsYXRlKDAsLTEwLjI5MzgpIj4mI3hhOwkJCTx0aXRsZSBpZD0idGl0bGU1ODUxOSI+U2hlZXQuNDQzODwvdGl0bGU+JiN4YTsJCQk8cGF0aCBpZD0icGF0aDU4NTIxIiBpbmtzY2FwZTpjb25uZWN0b3ItY3VydmF0dXJlPSIwIiBzdHlsZT0iZmlsbDojMzk5OUM2OyIgZD0iTTAuNTQsNTYuMThjLTAuNTQtMC41My0wLjQ1LTEuNTIsMC0yLjA2ICAgICBsMi43Ny0yLjc3bDEyLjM1LTEyYzAuNTQtMC41MywxLjM1LTAuNTMsMS45NywwYzAuNTQsMC41NCwwLjcyLDEuNTMsMCwyLjA2TDQuOTIsNTQuMTJjLTAuNTMsMC41NC0wLjUzLDEuNTMsMCwyLjA2TDE3LjksNjkuMzQgICAgIGMwLjU0LDAuNTQsMC41NCwxLjUyLDAsMi4wNmMtMC41MywwLjU0LTEuNTIsMC40NS0xLjk3LDBMMy40LDU5LjQxYzAsMCwwLDAtMC4wOS0wLjA5TDAuNTQsNTYuMTh6Ii8+JiN4YTsJCTwvZz4mI3hhOwkJPGcgaWQ9InNoYXBlNDQzOS02IiB0cmFuc2Zvcm09InRyYW5zbGF0ZSgxNS45MzMpIj4mI3hhOwkJCTx0aXRsZSBpZD0idGl0bGU1ODUyNCI+U2hlZXQuNDQzOTwvdGl0bGU+JiN4YTsJCQk8cGF0aCBpZD0icGF0aDU4NTI2IiBpbmtzY2FwZTpjb25uZWN0b3ItY3VydmF0dXJlPSIwIiBzdHlsZT0iZmlsbDojRkNEMTE2OyIgZD0iTTI2Ljg1LDE5LjEzSDkuNEwwLDQ1LjYybDExLjQ2LDAuMDlMMi41MSw3MS45NCAgICAgbDI0LjctMzVIMTUuMjJMMjYuODUsMTkuMTN6Ii8+JiN4YTsJCTwvZz4mI3hhOwkJPGcgaWQ9InNoYXBlNDQ0MC04IiB0cmFuc2Zvcm09InRyYW5zbGF0ZSgxOC40MzkzKSI+JiN4YTsJCQk8dGl0bGUgaWQ9InRpdGxlNTg1MjkiPlNoZWV0LjQ0NDA8L3RpdGxlPiYjeGE7CQkJPHBhdGggaWQ9InBhdGg1ODUzMSIgaW5rc2NhcGU6Y29ubmVjdG9yLWN1cnZhdHVyZT0iMCIgc3R5bGU9ImZpbGw6I0ZGOEMwMDtmaWxsLW9wYWNpdHk6MC4zOyIgZD0iTTEyLjcxLDM2Ljk0bDExLjY0LTE3LjgxICAgICBoLTkuMTNMNS41NSw0MS4xNGwxMS40NiwwLjA5TDAsNzEuOTRsMjQuNzEtMzVMMTIuNzEsMzYuOTR6Ii8+JiN4YTsJCTwvZz4mI3hhOwk8L2c+JiN4YTs8L2c+JiN4YTs8L3N2Zz4=;" vertex="1" parent="1">
          <mxGeometry x="870" y="444" width="57" height="53" as="geometry" />
        </mxCell>
        <mxCell id="Y6577xWDLrJWWgxM1nmn-12" style="edgeStyle=orthogonalEdgeStyle;rounded=0;orthogonalLoop=1;jettySize=auto;html=1;exitX=1;exitY=0.5;exitDx=0;exitDy=0;entryX=0;entryY=0.5;entryDx=0;entryDy=0;" edge="1" parent="1" source="Y6577xWDLrJWWgxM1nmn-6" target="Y6577xWDLrJWWgxM1nmn-2">
          <mxGeometry relative="1" as="geometry">
            <mxPoint x="530" y="330" as="targetPoint" />
          </mxGeometry>
        </mxCell>
        <mxCell id="Y6577xWDLrJWWgxM1nmn-29" style="edgeStyle=orthogonalEdgeStyle;rounded=0;orthogonalLoop=1;jettySize=auto;html=1;exitX=1;exitY=0.5;exitDx=0;exitDy=0;entryX=0;entryY=0.5;entryDx=0;entryDy=0;startArrow=none;startFill=0;endArrow=classic;endFill=1;" edge="1" parent="1" source="Y6577xWDLrJWWgxM1nmn-6" target="Y6577xWDLrJWWgxM1nmn-27">
          <mxGeometry relative="1" as="geometry" />
        </mxCell>
        <mxCell id="Y6577xWDLrJWWgxM1nmn-6" value="Azure &#xa;Application &#xa;Gateway" style="shape=image;verticalLabelPosition=bottom;labelBackgroundColor=none;verticalAlign=top;aspect=fixed;imageAspect=0;image=data:image/svg+xml,PHN2ZyB4bWxuczpjYz0iaHR0cDovL2NyZWF0aXZlY29tbW9ucy5vcmcvbnMjIiB4bWxuczpkYz0iaHR0cDovL3B1cmwub3JnL2RjL2VsZW1lbnRzLzEuMS8iIHhtbG5zOmlua3NjYXBlPSJodHRwOi8vd3d3Lmlua3NjYXBlLm9yZy9uYW1lc3BhY2VzL2lua3NjYXBlIiB4bWxuczpyZGY9Imh0dHA6Ly93d3cudzMub3JnLzE5OTkvMDIvMjItcmRmLXN5bnRheC1ucyMiIHhtbG5zOnNvZGlwb2RpPSJodHRwOi8vc29kaXBvZGkuc291cmNlZm9yZ2UubmV0L0RURC9zb2RpcG9kaS0wLmR0ZCIgeG1sbnM6c3ZnPSJodHRwOi8vd3d3LnczLm9yZy8yMDAwL3N2ZyIgeG1sbnM9Imh0dHA6Ly93d3cudzMub3JnLzIwMDAvc3ZnIiB4bWxuczp4bGluaz0iaHR0cDovL3d3dy53My5vcmcvMTk5OS94bGluayIgdmVyc2lvbj0iMS4xIiBpZD0ic3ZnNTg0NTUiIGlua3NjYXBlOnZlcnNpb249IjAuOTIuMyAoMjQwNTU0NiwgMjAxOC0wMy0xMSkiIHNvZGlwb2RpOmRvY25hbWU9ImF6dXJlX2ZpcmV3YWxsLnN2ZyIgeD0iMHB4IiB5PSIwcHgiIHZpZXdCb3g9IjAgMCAzNy40MiAzNy40MyIgc3R5bGU9ImVuYWJsZS1iYWNrZ3JvdW5kOm5ldyAwIDAgMzcuNDIgMzcuNDM7IiB4bWw6c3BhY2U9InByZXNlcnZlIj4mI3hhOzxzb2RpcG9kaTpuYW1lZHZpZXcgYm9yZGVyY29sb3I9IiM2NjY2NjYiIGJvcmRlcm9wYWNpdHk9IjEiIGZpdC1tYXJnaW4tYm90dG9tPSIwIiBmaXQtbWFyZ2luLWxlZnQ9IjAiIGZpdC1tYXJnaW4tcmlnaHQ9IjAiIGZpdC1tYXJnaW4tdG9wPSIwIiBncmlkdG9sZXJhbmNlPSIxMCIgZ3VpZGV0b2xlcmFuY2U9IjEwIiBpZD0ibmFtZWR2aWV3NTg0NTciIGlua3NjYXBlOmN1cnJlbnQtbGF5ZXI9InN2ZzU4NDU1IiBpbmtzY2FwZTpjeD0iMzQuMTg2MzE2IiBpbmtzY2FwZTpjeT0iMTguNzQ1Mzk3IiBpbmtzY2FwZTpwYWdlb3BhY2l0eT0iMCIgaW5rc2NhcGU6cGFnZXNoYWRvdz0iMiIgaW5rc2NhcGU6d2luZG93LWhlaWdodD0iMTAxNyIgaW5rc2NhcGU6d2luZG93LW1heGltaXplZD0iMSIgaW5rc2NhcGU6d2luZG93LXdpZHRoPSIxOTIwIiBpbmtzY2FwZTp3aW5kb3cteD0iLTgiIGlua3NjYXBlOndpbmRvdy15PSItOCIgaW5rc2NhcGU6em9vbT0iMTEuODEyMzYyIiBvYmplY3R0b2xlcmFuY2U9IjEwIiBwYWdlY29sb3I9IiNmZmZmZmYiIHNob3dncmlkPSJmYWxzZSI+JiN4YTsJPC9zb2RpcG9kaTpuYW1lZHZpZXc+JiN4YTs8ZyBpZD0iZzU4NDUzIiB0cmFuc2Zvcm09InRyYW5zbGF0ZSgtMC43NSwtMC43NTA3KSI+JiN4YTsJPHRpdGxlIGlkPSJ0aXRsZTU4Mjg0Ij5QYWdlLTE8L3RpdGxlPiYjeGE7CTxnIGlkPSJncm91cDU5NTAtMSIgdHJhbnNmb3JtPSJ0cmFuc2xhdGUoMC43NSwtMC43NSkiPiYjeGE7CQk8dGl0bGUgaWQ9InRpdGxlNTgyODYiPkF6dXJlIEZpcmV3YWxsPC90aXRsZT4mI3hhOwkJPGcgaWQ9InNoYXBlNTk1MS0yIiB0cmFuc2Zvcm09InRyYW5zbGF0ZSg3LjU3NSwtMTQuMjQ5MykiPiYjeGE7CQkJPHRpdGxlIGlkPSJ0aXRsZTU4Mjg4Ij5TaGVldC41OTUxPC90aXRsZT4mI3hhOwkJCTxwYXRoIGlkPSJwYXRoNTgyOTAiIGlua3NjYXBlOmNvbm5lY3Rvci1jdXJ2YXR1cmU9IjAiIHN0eWxlPSJmaWxsOiM1OUI0RDk7IiBkPSJNNy4wOSwyMy4yOGMwLjY5LTQuMjcsNC4zNy03LjUzLDguODItNy41MyAgICAgYzQuOTQsMCw4Ljk1LDQuMDIsOC45NSw4Ljk4YzAsMC41OC0wLjA2LDEuMTQtMC4xNywxLjY5YzIuOSwwLjMyLDUuMTYsMi45OCw1LjE2LDYuMjJjMCwzLjQ1LTIuNTksNi4yOS01Ljc2LDYuMjkgICAgIGMtMC43MSwwLTE2LjQ2LDAtMTYuNDYsMEMzLjQzLDM4LjkyLDAsMzUuMzEsMCwzMC45N0MwLDI2LjkxLDMuMTIsMjMuNiw3LjA5LDIzLjI4eiIvPiYjeGE7CQk8L2c+JiN4YTsJCTxnIGlkPSJncm91cDU5NTItNCI+JiN4YTsJCQk8dGl0bGUgaWQ9InRpdGxlNTgyOTMiPlNoZWV0LjU5NTI8L3RpdGxlPiYjeGE7CQkJPGcgaWQ9Imdyb3VwNTk1My01IiB0cmFuc2Zvcm09InRyYW5zbGF0ZSg5Ljc1LC0xNS43NSkiPiYjeGE7CQkJCTx0aXRsZSBpZD0idGl0bGU1ODI5NSI+U2hlZXQuNTk1MzwvdGl0bGU+JiN4YTsJCQkJPGcgaWQ9InNoYXBlNTk1NC02IiB0cmFuc2Zvcm09InRyYW5zbGF0ZSgwLjc1LC0wLjc1KSI+JiN4YTsJCQkJCTx0aXRsZSBpZD0idGl0bGU1ODI5NyI+U2hlZXQuNTk1NDwvdGl0bGU+JiN4YTsJCQkJCTxwYXRoIGlkPSJwYXRoNTgyOTkiIGlua3NjYXBlOmNvbm5lY3Rvci1jdXJ2YXR1cmU9IjAiIHN0eWxlPSJmaWxsOiNERDU5MDA7IiBkPSJNMC43NSwzOC45M0MwLjM0LDM4LjkzLDAsMzguNTksMCwzOC4xOHYtMy43NiAgICAgICBjMC0wLjQxLDAuMzQtMC43NSwwLjc1LTAuNzVIOWMwLjQxLDAsMC43NSwwLjM0LDAuNzUsMC43NXYzLjc2YzAsMC40MS0wLjM0LDAuNzUtMC43NSwwLjc1TDAuNzUsMzguOTN6Ii8+JiN4YTsJCQkJPC9nPiYjeGE7CQkJCTxnIGlkPSJzaGFwZTU5NTUtOCI+JiN4YTsJCQkJCTx0aXRsZSBpZD0idGl0bGU1ODMwMiI+U2hlZXQuNTk1NTwvdGl0bGU+JiN4YTsJCQkJCTxwYXRoIGlkPSJwYXRoNTgzMDQiIGlua3NjYXBlOmNvbm5lY3Rvci1jdXJ2YXR1cmU9IjAiIHN0eWxlPSJmaWxsOiNBMEExQTI7IiBkPSJNOS43NSwzMy42N3YzLjc2SDEuNXYtMy43Nkg5Ljc1eiBNOS43NSwzMi4xNyAgICAgICBIMS41Yy0wLjgzLDAtMS41LDAuNjgtMS41LDEuNXYzLjc2YzAsMC44MiwwLjY3LDEuNSwxLjUsMS41aDguMjVjMC44MywwLDEuNS0wLjY4LDEuNS0xLjV2LTMuNzYgICAgICAgQzExLjI1LDMyLjg1LDEwLjU4LDMyLjE3LDkuNzUsMzIuMTd6Ii8+JiN4YTsJCQkJPC9nPiYjeGE7CQkJPC9nPiYjeGE7CQkJPGcgaWQ9Imdyb3VwNTk1Ni0xMCIgdHJhbnNmb3JtPSJ0cmFuc2xhdGUoMTkuNSwtMTUuNzUpIj4mI3hhOwkJCQk8dGl0bGUgaWQ9InRpdGxlNTgzMDgiPlNoZWV0LjU5NTY8L3RpdGxlPiYjeGE7CQkJCTxnIGlkPSJzaGFwZTU5NTctMTEiIHRyYW5zZm9ybT0idHJhbnNsYXRlKDAuNzUsLTAuNzUpIj4mI3hhOwkJCQkJPHRpdGxlIGlkPSJ0aXRsZTU4MzEwIj5TaGVldC41OTU3PC90aXRsZT4mI3hhOwkJCQkJPHBhdGggaWQ9InBhdGg1ODMxMiIgaW5rc2NhcGU6Y29ubmVjdG9yLWN1cnZhdHVyZT0iMCIgc3R5bGU9ImZpbGw6I0JBMTQxQTsiIGQ9Ik0wLjc1LDM4LjkzQzAuMzQsMzguOTMsMCwzOC41OSwwLDM4LjE4di0zLjc2ICAgICAgIGMwLTAuNDEsMC4zNC0wLjc1LDAuNzUtMC43NUg5YzAuNDEsMCwwLjc1LDAuMzQsMC43NSwwLjc1djMuNzZjMCwwLjQxLTAuMzQsMC43NS0wLjc1LDAuNzVMMC43NSwzOC45M3oiLz4mI3hhOwkJCQk8L2c+JiN4YTsJCQkJPGcgaWQ9InNoYXBlNTk1OC0xMyI+JiN4YTsJCQkJCTx0aXRsZSBpZD0idGl0bGU1ODMxNSI+U2hlZXQuNTk1ODwvdGl0bGU+JiN4YTsJCQkJCTxwYXRoIGlkPSJwYXRoNTgzMTciIGlua3NjYXBlOmNvbm5lY3Rvci1jdXJ2YXR1cmU9IjAiIHN0eWxlPSJmaWxsOiNBMEExQTI7IiBkPSJNOS43NSwzMy42N3YzLjc2SDEuNXYtMy43Nkg5Ljc1eiBNOS43NSwzMi4xNyAgICAgICBIMS41Yy0wLjgzLDAtMS41LDAuNjgtMS41LDEuNXYzLjc2YzAsMC44MiwwLjY3LDEuNSwxLjUsMS41aDguMjVjMC44MywwLDEuNS0wLjY4LDEuNS0xLjV2LTMuNzYgICAgICAgQzExLjI1LDMyLjg1LDEwLjU4LDMyLjE3LDkuNzUsMzIuMTd6Ii8+JiN4YTsJCQkJPC9nPiYjeGE7CQkJPC9nPiYjeGE7CQkJPGcgaWQ9Imdyb3VwNTk1OS0xNSIgdHJhbnNmb3JtPSJ0cmFuc2xhdGUoMCwtMTUuNzUpIj4mI3hhOwkJCQk8dGl0bGUgaWQ9InRpdGxlNTgzMjEiPlNoZWV0LjU5NTk8L3RpdGxlPiYjeGE7CQkJCTxnIGlkPSJzaGFwZTU5NjAtMTYiIHRyYW5zZm9ybT0idHJhbnNsYXRlKDAuNzUsLTAuNzUpIj4mI3hhOwkJCQkJPHRpdGxlIGlkPSJ0aXRsZTU4MzIzIj5TaGVldC41OTYwPC90aXRsZT4mI3hhOwkJCQkJPHBhdGggaWQ9InBhdGg1ODMyNSIgaW5rc2NhcGU6Y29ubmVjdG9yLWN1cnZhdHVyZT0iMCIgc3R5bGU9ImZpbGw6I0JBMTQxQTsiIGQ9Ik0wLjc1LDM4LjkzQzAuMzQsMzguOTMsMCwzOC41OSwwLDM4LjE4di0zLjc2ICAgICAgIGMwLTAuNDEsMC4zNC0wLjc1LDAuNzUtMC43NUg5YzAuNDEsMCwwLjc1LDAuMzQsMC43NSwwLjc1djMuNzZjMCwwLjQxLTAuMzQsMC43NS0wLjc1LDAuNzVMMC43NSwzOC45M3oiLz4mI3hhOwkJCQk8L2c+JiN4YTsJCQkJPGcgaWQ9InNoYXBlNTk2MS0xOCI+JiN4YTsJCQkJCTx0aXRsZSBpZD0idGl0bGU1ODMyOCI+U2hlZXQuNTk2MTwvdGl0bGU+JiN4YTsJCQkJCTxwYXRoIGlkPSJwYXRoNTgzMzAiIGlua3NjYXBlOmNvbm5lY3Rvci1jdXJ2YXR1cmU9IjAiIHN0eWxlPSJmaWxsOiNBMEExQTI7IiBkPSJNOS43NSwzMy42N3YzLjc2SDEuNXYtMy43Nkg5Ljc1eiBNOS43NSwzMi4xNyAgICAgICBIMS41Yy0wLjgzLDAtMS41LDAuNjgtMS41LDEuNXYzLjc2YzAsMC44MiwwLjY3LDEuNSwxLjUsMS41aDguMjVjMC44MywwLDEuNS0wLjY4LDEuNS0xLjV2LTMuNzYgICAgICAgQzExLjI1LDMyLjg1LDEwLjU4LDMyLjE3LDkuNzUsMzIuMTd6Ii8+JiN4YTsJCQkJPC9nPiYjeGE7CQkJPC9nPiYjeGE7CQkJPGcgaWQ9Imdyb3VwNTk2Mi0yMCIgdHJhbnNmb3JtPSJ0cmFuc2xhdGUoOS43NSwtMTAuNSkiPiYjeGE7CQkJCTx0aXRsZSBpZD0idGl0bGU1ODMzNCI+U2hlZXQuNTk2MjwvdGl0bGU+JiN4YTsJCQkJPGcgaWQ9InNoYXBlNTk2My0yMSIgdHJhbnNmb3JtPSJ0cmFuc2xhdGUoMC43NSwtMC43NSkiPiYjeGE7CQkJCQk8dGl0bGUgaWQ9InRpdGxlNTgzMzYiPlNoZWV0LjU5NjM8L3RpdGxlPiYjeGE7CQkJCQk8cGF0aCBpZD0icGF0aDU4MzM4IiBpbmtzY2FwZTpjb25uZWN0b3ItY3VydmF0dXJlPSIwIiBzdHlsZT0iZmlsbDojQkExNDFBOyIgZD0iTTAuNzUsMzguOTNDMC4zNCwzOC45MywwLDM4LjU5LDAsMzguMTh2LTMuNzYgICAgICAgYzAtMC40MSwwLjM0LTAuNzUsMC43NS0wLjc1SDljMC40MSwwLDAuNzUsMC4zNCwwLjc1LDAuNzV2My43NmMwLDAuNDEtMC4zNCwwLjc1LTAuNzUsMC43NUwwLjc1LDM4LjkzeiIvPiYjeGE7CQkJCTwvZz4mI3hhOwkJCQk8ZyBpZD0ic2hhcGU1OTY0LTIzIj4mI3hhOwkJCQkJPHRpdGxlIGlkPSJ0aXRsZTU4MzQxIj5TaGVldC41OTY0PC90aXRsZT4mI3hhOwkJCQkJPHBhdGggaWQ9InBhdGg1ODM0MyIgaW5rc2NhcGU6Y29ubmVjdG9yLWN1cnZhdHVyZT0iMCIgc3R5bGU9ImZpbGw6I0EwQTFBMjsiIGQ9Ik05Ljc1LDMzLjY3djMuNzZIMS41di0zLjc2SDkuNzV6IE05Ljc1LDMyLjE3ICAgICAgIEgxLjVjLTAuODMsMC0xLjUsMC42OC0xLjUsMS41djMuNzZjMCwwLjgyLDAuNjcsMS41LDEuNSwxLjVoOC4yNWMwLjgzLDAsMS41LTAuNjgsMS41LTEuNXYtMy43NiAgICAgICBDMTEuMjUsMzIuODUsMTAuNTgsMzIuMTcsOS43NSwzMi4xN3oiLz4mI3hhOwkJCQk8L2c+JiN4YTsJCQk8L2c+JiN4YTsJCQk8ZyBpZD0iZ3JvdXA1OTY1LTI1IiB0cmFuc2Zvcm09InRyYW5zbGF0ZSgwLC01LjI1KSI+JiN4YTsJCQkJPHRpdGxlIGlkPSJ0aXRsZTU4MzQ3Ij5TaGVldC41OTY1PC90aXRsZT4mI3hhOwkJCQk8ZyBpZD0ic2hhcGU1OTY2LTI2IiB0cmFuc2Zvcm09InRyYW5zbGF0ZSgwLjc1LC0wLjc1KSI+JiN4YTsJCQkJCTx0aXRsZSBpZD0idGl0bGU1ODM0OSI+U2hlZXQuNTk2NjwvdGl0bGU+JiN4YTsJCQkJCTxwYXRoIGlkPSJwYXRoNTgzNTEiIGlua3NjYXBlOmNvbm5lY3Rvci1jdXJ2YXR1cmU9IjAiIHN0eWxlPSJmaWxsOiNERDU5MDA7IiBkPSJNMC43NSwzOC45M0MwLjM0LDM4LjkzLDAsMzguNTksMCwzOC4xOHYtMy43NiAgICAgICBjMC0wLjQxLDAuMzQtMC43NSwwLjc1LTAuNzVIOWMwLjQxLDAsMC43NSwwLjM0LDAuNzUsMC43NXYzLjc2YzAsMC40MS0wLjM0LDAuNzUtMC43NSwwLjc1TDAuNzUsMzguOTN6Ii8+JiN4YTsJCQkJPC9nPiYjeGE7CQkJCTxnIGlkPSJzaGFwZTU5NjctMjgiPiYjeGE7CQkJCQk8dGl0bGUgaWQ9InRpdGxlNTgzNTQiPlNoZWV0LjU5Njc8L3RpdGxlPiYjeGE7CQkJCQk8cGF0aCBpZD0icGF0aDU4MzU2IiBpbmtzY2FwZTpjb25uZWN0b3ItY3VydmF0dXJlPSIwIiBzdHlsZT0iZmlsbDojQTBBMUEyOyIgZD0iTTkuNzUsMzMuNjd2My43NkgxLjV2LTMuNzZIOS43NXogTTkuNzUsMzIuMTcgICAgICAgSDEuNWMtMC44MywwLTEuNSwwLjY4LTEuNSwxLjV2My43NmMwLDAuODIsMC42NywxLjUsMS41LDEuNWg4LjI1YzAuODMsMCwxLjUtMC42OCwxLjUtMS41di0zLjc2ICAgICAgIEMxMS4yNSwzMi44NSwxMC41OCwzMi4xNyw5Ljc1LDMyLjE3eiIvPiYjeGE7CQkJCTwvZz4mI3hhOwkJCTwvZz4mI3hhOwkJCTxnIGlkPSJncm91cDU5NjgtMzAiIHRyYW5zZm9ybT0idHJhbnNsYXRlKDAsLTEwLjUpIj4mI3hhOwkJCQk8dGl0bGUgaWQ9InRpdGxlNTgzNjAiPlNoZWV0LjU5Njg8L3RpdGxlPiYjeGE7CQkJCTxnIGlkPSJzaGFwZTU5NjktMzEiIHRyYW5zZm9ybT0idHJhbnNsYXRlKDAuNzUsLTAuNzUpIj4mI3hhOwkJCQkJPHRpdGxlIGlkPSJ0aXRsZTU4MzYyIj5TaGVldC41OTY5PC90aXRsZT4mI3hhOwkJCQkJPHBhdGggaWQ9InBhdGg1ODM2NCIgaW5rc2NhcGU6Y29ubmVjdG9yLWN1cnZhdHVyZT0iMCIgc3R5bGU9ImZpbGw6I0JBMTQxQTsiIGQ9Ik0wLjc1LDM4LjkzQzAuMzQsMzguOTMsMCwzOC41OSwwLDM4LjE4di0zLjc2ICAgICAgIGMwLTAuNDEsMC4zNC0wLjc1LDAuNzUtMC43NUg5YzAuNDEsMCwwLjc1LDAuMzQsMC43NSwwLjc1djMuNzZjMCwwLjQxLTAuMzQsMC43NS0wLjc1LDAuNzVMMC43NSwzOC45M3oiLz4mI3hhOwkJCQk8L2c+JiN4YTsJCQkJPGcgaWQ9InNoYXBlNTk3MC0zMyI+JiN4YTsJCQkJCTx0aXRsZSBpZD0idGl0bGU1ODM2NyI+U2hlZXQuNTk3MDwvdGl0bGU+JiN4YTsJCQkJCTxwYXRoIGlkPSJwYXRoNTgzNjkiIGlua3NjYXBlOmNvbm5lY3Rvci1jdXJ2YXR1cmU9IjAiIHN0eWxlPSJmaWxsOiNBMEExQTI7IiBkPSJNOS43NSwzMy42N3YzLjc2SDEuNXYtMy43Nkg5Ljc1eiBNOS43NSwzMi4xNyAgICAgICBIMS41Yy0wLjgzLDAtMS41LDAuNjgtMS41LDEuNXYzLjc2YzAsMC44MiwwLjY3LDEuNSwxLjUsMS41aDguMjVjMC44MywwLDEuNS0wLjY4LDEuNS0xLjV2LTMuNzYgICAgICAgQzExLjI1LDMyLjg1LDEwLjU4LDMyLjE3LDkuNzUsMzIuMTd6Ii8+JiN4YTsJCQkJPC9nPiYjeGE7CQkJPC9nPiYjeGE7CQkJPGcgaWQ9Imdyb3VwNTk3MS0zNSIgdHJhbnNmb3JtPSJ0cmFuc2xhdGUoOS43NSkiPiYjeGE7CQkJCTx0aXRsZSBpZD0idGl0bGU1ODM3MyI+U2hlZXQuNTk3MTwvdGl0bGU+JiN4YTsJCQkJPGcgaWQ9InNoYXBlNTk3Mi0zNiIgdHJhbnNmb3JtPSJ0cmFuc2xhdGUoMC43NSwtMC43NSkiPiYjeGE7CQkJCQk8dGl0bGUgaWQ9InRpdGxlNTgzNzUiPlNoZWV0LjU5NzI8L3RpdGxlPiYjeGE7CQkJCQk8cGF0aCBpZD0icGF0aDU4Mzc3IiBpbmtzY2FwZTpjb25uZWN0b3ItY3VydmF0dXJlPSIwIiBzdHlsZT0iZmlsbDojQkExNDFBOyIgZD0iTTAuNzUsMzguOTNDMC4zNCwzOC45MywwLDM4LjU5LDAsMzguMTh2LTMuNzYgICAgICAgYzAtMC40MSwwLjM0LTAuNzUsMC43NS0wLjc1SDljMC40MSwwLDAuNzUsMC4zNCwwLjc1LDAuNzV2My43NmMwLDAuNDEtMC4zNCwwLjc1LTAuNzUsMC43NUwwLjc1LDM4LjkzeiIvPiYjeGE7CQkJCTwvZz4mI3hhOwkJCQk8ZyBpZD0ic2hhcGU1OTczLTM4Ij4mI3hhOwkJCQkJPHRpdGxlIGlkPSJ0aXRsZTU4MzgwIj5TaGVldC41OTczPC90aXRsZT4mI3hhOwkJCQkJPHBhdGggaWQ9InBhdGg1ODM4MiIgaW5rc2NhcGU6Y29ubmVjdG9yLWN1cnZhdHVyZT0iMCIgc3R5bGU9ImZpbGw6I0EwQTFBMjsiIGQ9Ik05Ljc1LDMzLjY3djMuNzZIMS41di0zLjc2SDkuNzV6IE05Ljc1LDMyLjE3ICAgICAgIEgxLjVjLTAuODMsMC0xLjUsMC42OC0xLjUsMS41djMuNzZjMCwwLjgyLDAuNjcsMS41LDEuNSwxLjVoOC4yNWMwLjgzLDAsMS41LTAuNjgsMS41LTEuNXYtMy43NiAgICAgICBDMTEuMjUsMzIuODUsMTAuNTgsMzIuMTcsOS43NSwzMi4xN3oiLz4mI3hhOwkJCQk8L2c+JiN4YTsJCQk8L2c+JiN4YTsJCQk8ZyBpZD0iZ3JvdXA1OTc0LTQwIiB0cmFuc2Zvcm09InRyYW5zbGF0ZSgxOS41LC01LjI1KSI+JiN4YTsJCQkJPHRpdGxlIGlkPSJ0aXRsZTU4Mzg2Ij5TaGVldC41OTc0PC90aXRsZT4mI3hhOwkJCQk8ZyBpZD0ic2hhcGU1OTc1LTQxIiB0cmFuc2Zvcm09InRyYW5zbGF0ZSgwLjc1LC0wLjc1KSI+JiN4YTsJCQkJCTx0aXRsZSBpZD0idGl0bGU1ODM4OCI+U2hlZXQuNTk3NTwvdGl0bGU+JiN4YTsJCQkJCTxwYXRoIGlkPSJwYXRoNTgzOTAiIGlua3NjYXBlOmNvbm5lY3Rvci1jdXJ2YXR1cmU9IjAiIHN0eWxlPSJmaWxsOiNCQTE0MUE7IiBkPSJNMC43NSwzOC45M0MwLjM0LDM4LjkzLDAsMzguNTksMCwzOC4xOHYtMy43NiAgICAgICBjMC0wLjQxLDAuMzQtMC43NSwwLjc1LTAuNzVIOWMwLjQxLDAsMC43NSwwLjM0LDAuNzUsMC43NXYzLjc2YzAsMC40MS0wLjM0LDAuNzUtMC43NSwwLjc1TDAuNzUsMzguOTN6Ii8+JiN4YTsJCQkJPC9nPiYjeGE7CQkJCTxnIGlkPSJzaGFwZTU5NzYtNDMiPiYjeGE7CQkJCQk8dGl0bGUgaWQ9InRpdGxlNTgzOTMiPlNoZWV0LjU5NzY8L3RpdGxlPiYjeGE7CQkJCQk8cGF0aCBpZD0icGF0aDU4Mzk1IiBpbmtzY2FwZTpjb25uZWN0b3ItY3VydmF0dXJlPSIwIiBzdHlsZT0iZmlsbDojQTBBMUEyOyIgZD0iTTkuNzUsMzMuNjd2My43NkgxLjV2LTMuNzZIOS43NXogTTkuNzUsMzIuMTcgICAgICAgSDEuNWMtMC44MywwLTEuNSwwLjY4LTEuNSwxLjV2My43NmMwLDAuODIsMC42NywxLjUsMS41LDEuNWg4LjI1YzAuODMsMCwxLjUtMC42OCwxLjUtMS41di0zLjc2ICAgICAgIEMxMS4yNSwzMi44NSwxMC41OCwzMi4xNyw5Ljc1LDMyLjE3eiIvPiYjeGE7CQkJCTwvZz4mI3hhOwkJCTwvZz4mI3hhOwkJCTxnIGlkPSJncm91cDU5NzctNDUiIHRyYW5zZm9ybT0idHJhbnNsYXRlKDE5LjUsLTEwLjUpIj4mI3hhOwkJCQk8dGl0bGUgaWQ9InRpdGxlNTgzOTkiPlNoZWV0LjU5Nzc8L3RpdGxlPiYjeGE7CQkJCTxnIGlkPSJzaGFwZTU5NzgtNDYiIHRyYW5zZm9ybT0idHJhbnNsYXRlKDAuNzUsLTAuNzUpIj4mI3hhOwkJCQkJPHRpdGxlIGlkPSJ0aXRsZTU4NDAxIj5TaGVldC41OTc4PC90aXRsZT4mI3hhOwkJCQkJPHBhdGggaWQ9InBhdGg1ODQwMyIgaW5rc2NhcGU6Y29ubmVjdG9yLWN1cnZhdHVyZT0iMCIgc3R5bGU9ImZpbGw6I0JBMTQxQTsiIGQ9Ik0wLjc1LDM4LjkzQzAuMzQsMzguOTMsMCwzOC41OSwwLDM4LjE4di0zLjc2ICAgICAgIGMwLTAuNDEsMC4zNC0wLjc1LDAuNzUtMC43NUg5YzAuNDEsMCwwLjc1LDAuMzQsMC43NSwwLjc1djMuNzZjMCwwLjQxLTAuMzQsMC43NS0wLjc1LDAuNzVMMC43NSwzOC45M3oiLz4mI3hhOwkJCQk8L2c+JiN4YTsJCQkJPGcgaWQ9InNoYXBlNTk3OS00OCI+JiN4YTsJCQkJCTx0aXRsZSBpZD0idGl0bGU1ODQwNiI+U2hlZXQuNTk3OTwvdGl0bGU+JiN4YTsJCQkJCTxwYXRoIGlkPSJwYXRoNTg0MDgiIGlua3NjYXBlOmNvbm5lY3Rvci1jdXJ2YXR1cmU9IjAiIHN0eWxlPSJmaWxsOiNBMEExQTI7IiBkPSJNOS43NSwzMy42N3YzLjc2SDEuNXYtMy43Nkg5Ljc1eiBNOS43NSwzMi4xNyAgICAgICBIMS41Yy0wLjgzLDAtMS41LDAuNjgtMS41LDEuNXYzLjc2YzAsMC44MiwwLjY3LDEuNSwxLjUsMS41aDguMjVjMC44MywwLDEuNS0wLjY4LDEuNS0xLjV2LTMuNzYgICAgICAgQzExLjI1LDMyLjg1LDEwLjU4LDMyLjE3LDkuNzUsMzIuMTd6Ii8+JiN4YTsJCQkJPC9nPiYjeGE7CQkJPC9nPiYjeGE7CQkJPGcgaWQ9Imdyb3VwNTk4MC01MCIgdHJhbnNmb3JtPSJ0cmFuc2xhdGUoOS43NSwtNS4yNSkiPiYjeGE7CQkJCTx0aXRsZSBpZD0idGl0bGU1ODQxMiI+U2hlZXQuNTk4MDwvdGl0bGU+JiN4YTsJCQkJPGcgaWQ9InNoYXBlNTk4MS01MSIgdHJhbnNmb3JtPSJ0cmFuc2xhdGUoMC43NSwtMC43NSkiPiYjeGE7CQkJCQk8dGl0bGUgaWQ9InRpdGxlNTg0MTQiPlNoZWV0LjU5ODE8L3RpdGxlPiYjeGE7CQkJCQk8cGF0aCBpZD0icGF0aDU4NDE2IiBpbmtzY2FwZTpjb25uZWN0b3ItY3VydmF0dXJlPSIwIiBzdHlsZT0iZmlsbDojQkExNDFBOyIgZD0iTTAuNzUsMzguOTNDMC4zNCwzOC45MywwLDM4LjU5LDAsMzguMTh2LTMuNzYgICAgICAgYzAtMC40MSwwLjM0LTAuNzUsMC43NS0wLjc1SDljMC40MSwwLDAuNzUsMC4zNCwwLjc1LDAuNzV2My43NmMwLDAuNDEtMC4zNCwwLjc1LTAuNzUsMC43NUwwLjc1LDM4LjkzeiIvPiYjeGE7CQkJCTwvZz4mI3hhOwkJCQk8ZyBpZD0ic2hhcGU1OTgyLTUzIj4mI3hhOwkJCQkJPHRpdGxlIGlkPSJ0aXRsZTU4NDE5Ij5TaGVldC41OTgyPC90aXRsZT4mI3hhOwkJCQkJPHBhdGggaWQ9InBhdGg1ODQyMSIgaW5rc2NhcGU6Y29ubmVjdG9yLWN1cnZhdHVyZT0iMCIgc3R5bGU9ImZpbGw6I0EwQTFBMjsiIGQ9Ik05Ljc1LDMzLjY3djMuNzZIMS41di0zLjc2SDkuNzV6IE05Ljc1LDMyLjE3ICAgICAgIEgxLjVjLTAuODMsMC0xLjUsMC42OC0xLjUsMS41djMuNzZjMCwwLjgyLDAuNjcsMS41LDEuNSwxLjVoOC4yNWMwLjgzLDAsMS41LTAuNjgsMS41LTEuNXYtMy43NiAgICAgICBDMTEuMjUsMzIuODUsMTAuNTgsMzIuMTcsOS43NSwzMi4xN3oiLz4mI3hhOwkJCQk8L2c+JiN4YTsJCQk8L2c+JiN4YTsJCQk8ZyBpZD0iZ3JvdXA1OTgzLTU1IiB0cmFuc2Zvcm09InRyYW5zbGF0ZSgxOS41KSI+JiN4YTsJCQkJPHRpdGxlIGlkPSJ0aXRsZTU4NDI1Ij5TaGVldC41OTgzPC90aXRsZT4mI3hhOwkJCQk8ZyBpZD0ic2hhcGU1OTg0LTU2IiB0cmFuc2Zvcm09InRyYW5zbGF0ZSgwLjc1LC0wLjc1KSI+JiN4YTsJCQkJCTx0aXRsZSBpZD0idGl0bGU1ODQyNyI+U2hlZXQuNTk4NDwvdGl0bGU+JiN4YTsJCQkJCTxwYXRoIGlkPSJwYXRoNTg0MjkiIGlua3NjYXBlOmNvbm5lY3Rvci1jdXJ2YXR1cmU9IjAiIHN0eWxlPSJmaWxsOiNERDU5MDA7IiBkPSJNMC43NSwzOC45M0MwLjM0LDM4LjkzLDAsMzguNTksMCwzOC4xOHYtMy43NiAgICAgICBjMC0wLjQxLDAuMzQtMC43NSwwLjc1LTAuNzVIOWMwLjQxLDAsMC43NSwwLjM0LDAuNzUsMC43NXYzLjc2YzAsMC40MS0wLjM0LDAuNzUtMC43NSwwLjc1TDAuNzUsMzguOTN6Ii8+JiN4YTsJCQkJPC9nPiYjeGE7CQkJCTxnIGlkPSJzaGFwZTU5ODUtNTgiPiYjeGE7CQkJCQk8dGl0bGUgaWQ9InRpdGxlNTg0MzIiPlNoZWV0LjU5ODU8L3RpdGxlPiYjeGE7CQkJCQk8cGF0aCBpZD0icGF0aDU4NDM0IiBpbmtzY2FwZTpjb25uZWN0b3ItY3VydmF0dXJlPSIwIiBzdHlsZT0iZmlsbDojQTBBMUEyOyIgZD0iTTkuNzUsMzMuNjd2My43NkgxLjV2LTMuNzZIOS43NXogTTkuNzUsMzIuMTcgICAgICAgSDEuNWMtMC44MywwLTEuNSwwLjY4LTEuNSwxLjV2My43NmMwLDAuODIsMC42NywxLjUsMS41LDEuNWg4LjI1YzAuODMsMCwxLjUtMC42OCwxLjUtMS41di0zLjc2ICAgICAgIEMxMS4yNSwzMi44NSwxMC41OCwzMi4xNyw5Ljc1LDMyLjE3eiIvPiYjeGE7CQkJCTwvZz4mI3hhOwkJCTwvZz4mI3hhOwkJCTxnIGlkPSJncm91cDU5ODYtNjAiPiYjeGE7CQkJCTx0aXRsZSBpZD0idGl0bGU1ODQzOCI+U2hlZXQuNTk4NjwvdGl0bGU+JiN4YTsJCQkJPGcgaWQ9InNoYXBlNTk4Ny02MSIgdHJhbnNmb3JtPSJ0cmFuc2xhdGUoMC43NSwtMC43NSkiPiYjeGE7CQkJCQk8dGl0bGUgaWQ9InRpdGxlNTg0NDAiPlNoZWV0LjU5ODc8L3RpdGxlPiYjeGE7CQkJCQk8cGF0aCBpZD0icGF0aDU4NDQyIiBpbmtzY2FwZTpjb25uZWN0b3ItY3VydmF0dXJlPSIwIiBzdHlsZT0iZmlsbDojQkExNDFBOyIgZD0iTTAuNzUsMzguOTNDMC4zNCwzOC45MywwLDM4LjU5LDAsMzguMTh2LTMuNzYgICAgICAgYzAtMC40MSwwLjM0LTAuNzUsMC43NS0wLjc1SDljMC40MSwwLDAuNzUsMC4zNCwwLjc1LDAuNzV2My43NmMwLDAuNDEtMC4zNCwwLjc1LTAuNzUsMC43NUwwLjc1LDM4LjkzeiIvPiYjeGE7CQkJCTwvZz4mI3hhOwkJCQk8ZyBpZD0ic2hhcGU1OTg4LTYzIj4mI3hhOwkJCQkJPHRpdGxlIGlkPSJ0aXRsZTU4NDQ1Ij5TaGVldC41OTg4PC90aXRsZT4mI3hhOwkJCQkJPHBhdGggaWQ9InBhdGg1ODQ0NyIgaW5rc2NhcGU6Y29ubmVjdG9yLWN1cnZhdHVyZT0iMCIgc3R5bGU9ImZpbGw6I0EwQTFBMjsiIGQ9Ik05Ljc1LDMzLjY3djMuNzZIMS41di0zLjc2SDkuNzV6IE05Ljc1LDMyLjE3ICAgICAgIEgxLjVjLTAuODMsMC0xLjUsMC42OC0xLjUsMS41djMuNzZjMCwwLjgyLDAuNjcsMS41LDEuNSwxLjVoOC4yNWMwLjgzLDAsMS41LTAuNjgsMS41LTEuNXYtMy43NiAgICAgICBDMTEuMjUsMzIuODUsMTAuNTgsMzIuMTcsOS43NSwzMi4xN3oiLz4mI3hhOwkJCQk8L2c+JiN4YTsJCQk8L2c+JiN4YTsJCTwvZz4mI3hhOwk8L2c+JiN4YTs8L2c+JiN4YTs8L3N2Zz4=;" vertex="1" parent="1">
          <mxGeometry x="300" y="302" width="56" height="56" as="geometry" />
        </mxCell>
        <mxCell id="Y6577xWDLrJWWgxM1nmn-16" style="edgeStyle=orthogonalEdgeStyle;rounded=0;orthogonalLoop=1;jettySize=auto;html=1;exitX=1;exitY=0.5;exitDx=0;exitDy=0;" edge="1" parent="1" source="Y6577xWDLrJWWgxM1nmn-7" target="Y6577xWDLrJWWgxM1nmn-5">
          <mxGeometry relative="1" as="geometry" />
        </mxCell>
        <mxCell id="Y6577xWDLrJWWgxM1nmn-7" value="Storage Queues" style="shape=image;verticalLabelPosition=bottom;labelBackgroundColor=none;verticalAlign=top;aspect=fixed;imageAspect=0;image=data:image/svg+xml,PHN2ZyB4bWxuczpjYz0iaHR0cDovL2NyZWF0aXZlY29tbW9ucy5vcmcvbnMjIiB4bWxuczpkYz0iaHR0cDovL3B1cmwub3JnL2RjL2VsZW1lbnRzLzEuMS8iIHhtbG5zOmlua3NjYXBlPSJodHRwOi8vd3d3Lmlua3NjYXBlLm9yZy9uYW1lc3BhY2VzL2lua3NjYXBlIiB4bWxuczpyZGY9Imh0dHA6Ly93d3cudzMub3JnLzE5OTkvMDIvMjItcmRmLXN5bnRheC1ucyMiIHhtbG5zOnNvZGlwb2RpPSJodHRwOi8vc29kaXBvZGkuc291cmNlZm9yZ2UubmV0L0RURC9zb2RpcG9kaS0wLmR0ZCIgeG1sbnM6c3ZnPSJodHRwOi8vd3d3LnczLm9yZy8yMDAwL3N2ZyIgeG1sbnM9Imh0dHA6Ly93d3cudzMub3JnLzIwMDAvc3ZnIiB4bWxuczp4bGluaz0iaHR0cDovL3d3dy53My5vcmcvMTk5OS94bGluayIgdmVyc2lvbj0iMS4xIiBpZD0ic3ZnNjE0NTEiIGlua3NjYXBlOnZlcnNpb249IjAuOTIuMyAoMjQwNTU0NiwgMjAxOC0wMy0xMSkiIHNvZGlwb2RpOmRvY25hbWU9ImF6dXJlX3F1ZXVlX3N0b3JhZ2Uuc3ZnIiB4PSIwcHgiIHk9IjBweCIgdmlld0JveD0iMCAwIDQ2Ljk1IDQwLjA5IiBzdHlsZT0iZW5hYmxlLWJhY2tncm91bmQ6bmV3IDAgMCA0Ni45NSA0MC4wOTsiIHhtbDpzcGFjZT0icHJlc2VydmUiPiYjeGE7PHNvZGlwb2RpOm5hbWVkdmlldyBib3JkZXJjb2xvcj0iIzY2NjY2NiIgYm9yZGVyb3BhY2l0eT0iMSIgZml0LW1hcmdpbi1ib3R0b209IjAiIGZpdC1tYXJnaW4tbGVmdD0iMCIgZml0LW1hcmdpbi1yaWdodD0iMCIgZml0LW1hcmdpbi10b3A9IjAiIGdyaWR0b2xlcmFuY2U9IjEwIiBndWlkZXRvbGVyYW5jZT0iMTAiIGlkPSJuYW1lZHZpZXc2MTQ1MyIgaW5rc2NhcGU6Y3VycmVudC1sYXllcj0ic3ZnNjE0NTEiIGlua3NjYXBlOmN4PSIzMy44MTQzNjkiIGlua3NjYXBlOmN5PSIyMC45MDgyNjciIGlua3NjYXBlOnBhZ2VvcGFjaXR5PSIwIiBpbmtzY2FwZTpwYWdlc2hhZG93PSIyIiBpbmtzY2FwZTp3aW5kb3ctaGVpZ2h0PSIxMDE3IiBpbmtzY2FwZTp3aW5kb3ctbWF4aW1pemVkPSIxIiBpbmtzY2FwZTp3aW5kb3ctd2lkdGg9IjE5MjAiIGlua3NjYXBlOndpbmRvdy14PSItOCIgaW5rc2NhcGU6d2luZG93LXk9Ii04IiBpbmtzY2FwZTp6b29tPSIxMS4wNTQ0MTUiIG9iamVjdHRvbGVyYW5jZT0iMTAiIHBhZ2Vjb2xvcj0iI2ZmZmZmZiIgc2hvd2dyaWQ9ImZhbHNlIj4mI3hhOwk8L3NvZGlwb2RpOm5hbWVkdmlldz4mI3hhOzxnIGlkPSJnNjE0NDkiIHRyYW5zZm9ybT0idHJhbnNsYXRlKC0wLjc1LC0wLjc0NjEwMzMpIj4mI3hhOwk8dGl0bGUgaWQ9InRpdGxlNjE0MTQiPlBhZ2UtMTwvdGl0bGU+JiN4YTsJPGcgaWQ9Imdyb3VwNTIyNC0xIiB0cmFuc2Zvcm09InRyYW5zbGF0ZSgwLjc1LC0wLjc1KSI+JiN4YTsJCTx0aXRsZSBpZD0idGl0bGU2MTQxNiI+QXp1cmUgUXVldWUgU3RvcmFnZTwvdGl0bGU+JiN4YTsJCTxnIGlkPSJzaGFwZTUyMjUtMiI+JiN4YTsJCQk8dGl0bGUgaWQ9InRpdGxlNjE0MTgiPlNoZWV0LjUyMjU8L3RpdGxlPiYjeGE7CQkJPHBhdGggaWQ9InBhdGg2MTQyMCIgaW5rc2NhcGU6Y29ubmVjdG9yLWN1cnZhdHVyZT0iMCIgc3R5bGU9ImZpbGw6I0EwQTFBMjsiIGQ9Ik0wLDM5LjgxYzAsMC45NCwwLjc1LDEuNzgsMS42OSwxLjc4aDQzLjQ3ICAgICBjMC45NCwwLDEuNzktMC43NSwxLjc5LTEuNzhWOC43M0gwVjM5LjgxeiIvPiYjeGE7CQk8L2c+JiN4YTsJCTxnIGlkPSJzaGFwZTUyMjYtNCIgdHJhbnNmb3JtPSJ0cmFuc2xhdGUoMCwtMzIuOTU3NykiPiYjeGE7CQkJPHRpdGxlIGlkPSJ0aXRsZTYxNDIzIj5TaGVldC41MjI2PC90aXRsZT4mI3hhOwkJCTxwYXRoIGlkPSJwYXRoNjE0MjUiIGlua3NjYXBlOmNvbm5lY3Rvci1jdXJ2YXR1cmU9IjAiIHN0eWxlPSJmaWxsOiM3QTdBN0E7IiBkPSJNNDUuMTYsMzQuNDZIMS42OUMwLjc1LDM0LjQ2LDAsMzUuMywwLDM2LjI0ICAgICB2NS4zNWg0Ni45NXYtNS4zNUM0Ni45NSwzNS4zLDQ2LjIsMzQuNDYsNDUuMTYsMzQuNDZ6Ii8+JiN4YTsJCTwvZz4mI3hhOwkJPGcgaWQ9InNoYXBlNTIyNy02IiB0cmFuc2Zvcm09InRyYW5zbGF0ZSgzLjQ3NDE4LC0zLjU2ODA4KSI+JiN4YTsJCQk8dGl0bGUgaWQ9InRpdGxlNjE0MjgiPlNoZWV0LjUyMjc8L3RpdGxlPiYjeGE7CQkJPHJlY3QgaWQ9InJlY3Q2MTQzMCIgeD0iMCIgeT0iMTUuNDkiIHN0eWxlPSJmaWxsOiM4MDQ5OTg7IiB3aWR0aD0iMTEuMjciIGhlaWdodD0iMjYuMSIvPiYjeGE7CQk8L2c+JiN4YTsJCTxnIGlkPSJzaGFwZTUyMjgtOCIgdHJhbnNmb3JtPSJ0cmFuc2xhdGUoMTcuODQwNCwtMy41NjgwOCkiPiYjeGE7CQkJPHRpdGxlIGlkPSJ0aXRsZTYxNDMzIj5TaGVldC41MjI4PC90aXRsZT4mI3hhOwkJCTxyZWN0IGlkPSJyZWN0NjE0MzUiIHg9IjAiIHk9IjE1LjQ5IiBzdHlsZT0iZmlsbDojODA0OTk4OyIgd2lkdGg9IjExLjI3IiBoZWlnaHQ9IjI2LjEiLz4mI3hhOwkJPC9nPiYjeGE7CQk8ZyBpZD0ic2hhcGU1MjI5LTEwIiB0cmFuc2Zvcm09InRyYW5zbGF0ZSgzMi4yMDY2LC0zLjU2ODA4KSI+JiN4YTsJCQk8dGl0bGUgaWQ9InRpdGxlNjE0MzgiPlNoZWV0LjUyMjk8L3RpdGxlPiYjeGE7CQkJPHJlY3QgaWQ9InJlY3Q2MTQ0MCIgeD0iMCIgeT0iMTUuNDkiIHN0eWxlPSJmaWxsOiM4MDQ5OTg7IiB3aWR0aD0iMTEuMjciIGhlaWdodD0iMjYuMSIvPiYjeGE7CQk8L2c+JiN4YTsJCTxnIGlkPSJzaGFwZTUyMzAtMTIiIHRyYW5zZm9ybT0idHJhbnNsYXRlKDAsLTAuMDkzODk2NykiPiYjeGE7CQkJPHRpdGxlIGlkPSJ0aXRsZTYxNDQzIj5TaGVldC41MjMwPC90aXRsZT4mI3hhOwkJCTxwYXRoIGlkPSJwYXRoNjE0NDUiIGlua3NjYXBlOmNvbm5lY3Rvci1jdXJ2YXR1cmU9IjAiIHN0eWxlPSJmaWxsOiNGRkZGRkY7ZmlsbC1vcGFjaXR5OjAuMjsiIGQ9Ik0xLjg4LDEuNTkgICAgIEMwLjg1LDEuNTksMCwyLjQ0LDAsMy40N3Y2Ljg2djMuMDl2MjYuM2MwLDEuMDMsMC44NSwxLjg3LDEuODgsMS44N2gyLjA2bDM3LTQwTDEuODgsMS41OXoiLz4mI3hhOwkJPC9nPiYjeGE7CTwvZz4mI3hhOzwvZz4mI3hhOzwvc3ZnPg==;" vertex="1" parent="1">
          <mxGeometry x="707.52" y="452" width="43.48" height="37" as="geometry" />
        </mxCell>
        <mxCell id="Y6577xWDLrJWWgxM1nmn-18" style="edgeStyle=orthogonalEdgeStyle;rounded=0;orthogonalLoop=1;jettySize=auto;html=1;exitX=0;exitY=0.25;exitDx=0;exitDy=0;" edge="1" parent="1" source="Y6577xWDLrJWWgxM1nmn-8" target="Y6577xWDLrJWWgxM1nmn-2">
          <mxGeometry relative="1" as="geometry" />
        </mxCell>
        <mxCell id="Y6577xWDLrJWWgxM1nmn-32" style="edgeStyle=orthogonalEdgeStyle;rounded=0;orthogonalLoop=1;jettySize=auto;html=1;exitX=0.5;exitY=0;exitDx=0;exitDy=0;entryX=0.5;entryY=1;entryDx=0;entryDy=0;startArrow=classic;startFill=1;endArrow=none;endFill=0;" edge="1" parent="1" source="Y6577xWDLrJWWgxM1nmn-8" target="Y6577xWDLrJWWgxM1nmn-28">
          <mxGeometry relative="1" as="geometry" />
        </mxCell>
        <mxCell id="Y6577xWDLrJWWgxM1nmn-8" value="Azure SQL" style="shape=image;verticalLabelPosition=bottom;labelBackgroundColor=none;verticalAlign=top;aspect=fixed;imageAspect=0;image=data:image/svg+xml,PHN2ZyB4bWxuczpkYz0iaHR0cDovL3B1cmwub3JnL2RjL2VsZW1lbnRzLzEuMS8iIHhtbG5zOmNjPSJodHRwOi8vY3JlYXRpdmVjb21tb25zLm9yZy9ucyMiIHhtbG5zOnJkZj0iaHR0cDovL3d3dy53My5vcmcvMTk5OS8wMi8yMi1yZGYtc3ludGF4LW5zIyIgeG1sbnM6c3ZnPSJodHRwOi8vd3d3LnczLm9yZy8yMDAwL3N2ZyIgeG1sbnM9Imh0dHA6Ly93d3cudzMub3JnLzIwMDAvc3ZnIiB4bWxuczpzb2RpcG9kaT0iaHR0cDovL3NvZGlwb2RpLnNvdXJjZWZvcmdlLm5ldC9EVEQvc29kaXBvZGktMC5kdGQiIHhtbG5zOmlua3NjYXBlPSJodHRwOi8vd3d3Lmlua3NjYXBlLm9yZy9uYW1lc3BhY2VzL2lua3NjYXBlIiB2ZXJzaW9uPSIxLjEiIGlkPSJzdmc5NzA4NCIgaW5rc2NhcGU6dmVyc2lvbj0iMC45Mi4zICgyNDA1NTQ2LCAyMDE4LTAzLTExKSIgc29kaXBvZGk6ZG9jbmFtZT0ic3FsX2RhdGFiYXNlLnN2ZyIgeD0iMHB4IiB5PSIwcHgiIHZpZXdCb3g9IjAgMCA3NS41MiAxMDAuMTEiIHhtbDpzcGFjZT0icHJlc2VydmUiIHdpZHRoPSI3NS41MTk5OTciIGhlaWdodD0iMTAwLjExIj48bWV0YWRhdGEgaWQ9Im1ldGFkYXRhMTcyNiI+PHJkZjpSREY+PGNjOldvcmsgcmRmOmFib3V0PSIiPjxkYzpmb3JtYXQ+aW1hZ2Uvc3ZnK3htbDwvZGM6Zm9ybWF0PjxkYzp0eXBlIHJkZjpyZXNvdXJjZT0iaHR0cDovL3B1cmwub3JnL2RjL2RjbWl0eXBlL1N0aWxsSW1hZ2UiLz48ZGM6dGl0bGUvPjwvY2M6V29yaz48L3JkZjpSREY+PC9tZXRhZGF0YT48ZGVmcyBpZD0iZGVmczE3MjQiPiYjeGE7CSYjeGE7JiN4YTsJJiN4YTsmI3hhOwkmI3hhOyYjeGE7CSYjeGE7JiN4YTsJJiN4YTsmI3hhOwkmI3hhOyYjeGE7CSYjeGE7JiN4YTsJJiN4YTsmI3hhOwkmI3hhOyYjeGE7CQkmI3hhOwkmI3hhOwkJJiN4YTsJJiN4YTsJCSYjeGE7CSYjeGE7CQkmI3hhOwkmI3hhOwkJJiN4YTsJJiN4YTsJCSYjeGE7CSYjeGE7CQkmI3hhOwkmI3hhOwkJJiN4YTsJPC9kZWZzPiYjeGE7PGZpbHRlciBpZD0iZmlsdGVyXzIiPiYjeGE7CTxmZUdhdXNzaWFuQmx1ciBpZD0iZmVHYXVzc2lhbkJsdXI5NzAwMSIgc3RkRGV2aWF0aW9uPSIyIi8+JiN4YTs8L2ZpbHRlcj4mI3hhOzxzb2RpcG9kaTpuYW1lZHZpZXcgYm9yZGVyY29sb3I9IiM2NjY2NjYiIGJvcmRlcm9wYWNpdHk9IjEiIGZpdC1tYXJnaW4tYm90dG9tPSIwIiBmaXQtbWFyZ2luLWxlZnQ9IjAiIGZpdC1tYXJnaW4tcmlnaHQ9IjAiIGZpdC1tYXJnaW4tdG9wPSIwIiBncmlkdG9sZXJhbmNlPSIxMCIgZ3VpZGV0b2xlcmFuY2U9IjEwIiBpZD0ibmFtZWR2aWV3OTcwODYiIGlua3NjYXBlOmN1cnJlbnQtbGF5ZXI9InN2Zzk3MDg0IiBpbmtzY2FwZTpjeD0iLTQ2LjkyMDI2NSIgaW5rc2NhcGU6Y3k9IjM4LjczMTY2NiIgaW5rc2NhcGU6cGFnZW9wYWNpdHk9IjAiIGlua3NjYXBlOnBhZ2VzaGFkb3c9IjIiIGlua3NjYXBlOndpbmRvdy1oZWlnaHQ9IjEwMTciIGlua3NjYXBlOndpbmRvdy1tYXhpbWl6ZWQ9IjEiIGlua3NjYXBlOndpbmRvdy13aWR0aD0iMTkyMCIgaW5rc2NhcGU6d2luZG93LXg9Ii04IiBpbmtzY2FwZTp3aW5kb3cteT0iLTgiIGlua3NjYXBlOnpvb209IjUuMjE5MzE5NyIgb2JqZWN0dG9sZXJhbmNlPSIxMCIgcGFnZWNvbG9yPSIjZmZmZmZmIiBzaG93Z3JpZD0iZmFsc2UiPiYjeGE7CTwvc29kaXBvZGk6bmFtZWR2aWV3PiYjeGE7JiN4YTs8cGF0aCBpZD0icGF0aDk3MDE0IiBpbmtzY2FwZTpjb25uZWN0b3ItY3VydmF0dXJlPSIwIiBzdHlsZT0iZmlsbDojMDA3MmM2IiBkPSJtIDAsMTMuNjggdiA3Mi43NSBjIDAsNy41NSAxNi45MSwxMy42OCAzNy43NiwxMy42OCBWIDEzLjY4IGMgMCwwIC0zNy43NiwwIC0zNy43NiwwIHoiLz4mI3hhOyYjeGE7PHBhdGggaWQ9InBhdGg5NzAyMiIgaW5rc2NhcGU6Y29ubmVjdG9yLWN1cnZhdHVyZT0iMCIgc3R5bGU9ImZpbGw6IzAwNzJjNiIgZD0ibSAzNy4yNCwxMDAuMTEgaCAwLjUyIGMgMjAuODUsMCAzNy43NiwtNi4xMyAzNy43NiwtMTMuNjggViAxMy42OCBIIDM3LjI0IFoiLz4mI3hhOyYjeGE7PHBhdGggaWQ9InBhdGg5NzAzMCIgaW5rc2NhcGU6Y29ubmVjdG9yLWN1cnZhdHVyZT0iMCIgc3R5bGU9ImZpbGw6I2ZmZmZmZjtmaWxsLW9wYWNpdHk6MC4xNSIgZD0ibSAzNy4yNCwxMDAuMTEgaCAwLjUyIGMgMjAuODUsMCAzNy43NiwtNi4xMyAzNy43NiwtMTMuNjggViAxMy42OCBIIDM3LjI0IFoiLz4mI3hhOyYjeGE7PHBhdGggaWQ9InBhdGg5NzAzOCIgaW5rc2NhcGU6Y29ubmVjdG9yLWN1cnZhdHVyZT0iMCIgc3R5bGU9ImZpbGw6I2ZmZmZmZiIgZD0ibSA3NS41MiwxMy42OCBjIDAsNy41NSAtMTYuOTEsMTMuNjggLTM3Ljc2LDEzLjY4IEMgMTYuOTEsMjcuMzYgMCwyMS4yMyAwLDEzLjY4IDAsNi4xMyAxNi45MSwwIDM3Ljc2LDAgNTguNjEsMCA3NS41Miw2LjEzIDc1LjUyLDEzLjY4IFoiLz4mI3hhOyYjeGE7PHBhdGggaWQ9InBhdGg5NzA0NiIgaW5rc2NhcGU6Y29ubmVjdG9yLWN1cnZhdHVyZT0iMCIgc3R5bGU9ImZpbGw6IzdmYmEwMCIgZD0ibSA2Ny44LDEyLjg5IGMgMCw0Ljk5IC0xMy40NSw5LjAzIC0zMC4wNCw5LjAzIC0xNi41OSwwIC0zMC4wNCwtNC4wNCAtMzAuMDQsLTkuMDMgMCwtNC45OCAxMy40NSwtOS4wMiAzMC4wNCwtOS4wMiAxNi41OSwwIDMwLjA0LDQuMDQgMzAuMDQsOS4wMiB6Ii8+JiN4YTsmI3hhOzxwYXRoIGlkPSJwYXRoOTcwNTQiIGlua3NjYXBlOmNvbm5lY3Rvci1jdXJ2YXR1cmU9IjAiIHN0eWxlPSJmaWxsOiNiOGQ0MzIiIGQ9Ik0gNjEuNTEsMTguNDEgQyA2NS40NCwxNi44OCA2Ny44LDE0Ljk3IDY3LjgsMTIuOSA2Ny44LDcuOTEgNTQuMzUsMy44NyAzNy43NiwzLjg3IDIxLjE3LDMuODcgNy43Miw3LjkxIDcuNzIsMTIuOSBjIDAsMi4wNyAyLjM2LDMuOTggNi4zLDUuNTEgNS40OSwtMi4xNCAxNC4wNywtMy41MSAyMy43NCwtMy41MSA5LjY3LDAgMTguMjUsMS4zNyAyMy43NSwzLjUxIHoiLz4mI3hhOyYjeGE7PHBhdGggaWQ9InBhdGg5NzA2MiIgaW5rc2NhcGU6Y29ubmVjdG9yLWN1cnZhdHVyZT0iMCIgc3R5bGU9ImZpbGw6I2ZmZmZmZiIgZD0ibSAyNS43Nyw2NC4xOCBjIDAsMi4yNiAtMC44Miw0LjAxIC0yLjQ2LDUuMjUgLTEuNjQsMS4yNCAtMy45LDEuODcgLTYuNzksMS44NyAtMi40NiwwIC00LjUyLC0wLjQ1IC02LjE3LC0xLjMzIHYgLTUuMzIgYyAxLjksMS42MSA0LDIuNDIgNi4zLDIuNDIgMS4xLDAgMS45NiwtMC4yMiAyLjU3LC0wLjY2IDAuNiwtMC40NCAwLjksLTEuMDMgMC45LC0xLjc2IDAsLTAuNzIgLTAuMjksLTEuMzUgLTAuODcsLTEuODggLTAuNTgsLTAuNTMgLTEuNzcsLTEuMjIgLTMuNTUsLTIuMDYgLTMuNjMsLTEuNzEgLTUuNDUsLTQuMDQgLTUuNDUsLTYuOTggMCwtMi4xNCAwLjc5LC0zLjg1IDIuMzgsLTUuMTQgMS41OCwtMS4yOSAzLjY5LC0xLjk0IDYuMzEsLTEuOTQgMi4zMywwIDQuMjUsMC4zMSA1Ljc5LDAuOTEgdiA0Ljk3IGMgLTEuNjEsLTEuMTEgLTMuNDQsLTEuNjYgLTUuNDksLTEuNjYgLTEuMDMsMCAtMS44NCwwLjIyIC0yLjQ0LDAuNjYgLTAuNiwwLjQzIC0wLjksMS4wMiAtMC45LDEuNzUgMCwwLjc1IDAuMjQsMS4zNyAwLjczLDEuODUgMC40OCwwLjQ4IDEuNDcsMS4wOCAyLjk2LDEuNzkgMi4yMywxLjA1IDMuODIsMi4xMiA0Ljc2LDMuMjEgMC45NSwxLjA4IDEuNDIsMi40NCAxLjQyLDQuMDUgeiIvPiYjeGE7JiN4YTs8cGF0aCBpZD0icGF0aDk3MDcwIiBpbmtzY2FwZTpjb25uZWN0b3ItY3VydmF0dXJlPSIwIiBzdHlsZT0iZmlsbDojZmZmZmZmIiBkPSJtIDUxLjQxLDU4Ljc5IGMgMCwyLjgxIC0wLjY0LDUuMjQgLTEuOTEsNy4zIC0xLjI4LDIuMDYgLTMuMDcsMy41IC01LjM5LDQuMzQgbCA2LjkyLDYuNCBIIDQ0LjA1IEwgMzkuMTEsNzEuMjkgQyAzNyw3MS4yMSAzNS4wOSw3MC42NSAzMy4zOSw2OS42MSBjIC0xLjcsLTEuMDQgLTMuMDIsLTIuNDcgLTMuOTQsLTQuMjggLTAuOTMsLTEuODEgLTEuMzksLTMuODMgLTEuMzksLTYuMDUgMCwtMi40NyAwLjUsLTQuNjggMS41LC02LjYxIDEuMDEsLTEuOTMgMi40MSwtMy40MiA0LjIzLC00LjQ2IDEuODIsLTEuMDQgMy45LC0xLjU2IDYuMjUsLTEuNTYgMi4xOSwwIDQuMTYsMC41IDUuODksMS41MSAxLjczLDEuMDEgMy4wOCwyLjQ0IDQuMDQsNC4zIDAuOTYsMS44NiAxLjQ0LDMuOTcgMS40NCw2LjMzIHogbSAtNS42NSwwLjMgYyAwLC0yLjQxIC0wLjUyLC00LjMyIC0xLjU4LC01LjcyIC0xLjA1LC0xLjQgLTIuNDksLTIuMSAtNC4zMiwtMi4xIC0xLjg2LDAgLTMuMzUsMC43IC00LjQ3LDIuMSAtMS4xMiwxLjQxIC0xLjY4LDMuMjggLTEuNjgsNS42MiAwLDIuMzMgMC41NSw0LjE5IDEuNjUsNS41OCAxLjA5LDEuMzkgMi41NSwyLjA4IDQuMzYsMi4wOCAxLjg2LDAgMy4zMiwtMC42NyA0LjQxLC0yLjAyIDEuMDksLTEuMzQgMS42MywtMy4xOSAxLjYzLC01LjU0IHoiLz4mI3hhOyYjeGE7PHBhdGggaWQ9InBhdGg5NzA3OCIgaW5rc2NhcGU6Y29ubmVjdG9yLWN1cnZhdHVyZT0iMCIgc3R5bGU9ImZpbGw6I2ZmZmZmZiIgZD0iTSA2OS41NCw3MC44OCBIIDU1LjM1IFYgNDcuMDUgaCA1LjM3IHYgMTkuNDcgaCA4LjgyIHoiLz4mI3hhOzwvc3ZnPg==;" vertex="1" parent="1">
          <mxGeometry x="878" y="315.5" width="41" height="53" as="geometry" />
        </mxCell>
        <mxCell id="Y6577xWDLrJWWgxM1nmn-19" style="edgeStyle=orthogonalEdgeStyle;rounded=0;orthogonalLoop=1;jettySize=auto;html=1;exitX=0;exitY=0.5;exitDx=0;exitDy=0;" edge="1" parent="1" source="Y6577xWDLrJWWgxM1nmn-10" target="Y6577xWDLrJWWgxM1nmn-8">
          <mxGeometry relative="1" as="geometry" />
        </mxCell>
        <mxCell id="Y6577xWDLrJWWgxM1nmn-10" value="DB Backup" style="shape=image;verticalLabelPosition=bottom;labelBackgroundColor=none;verticalAlign=top;aspect=fixed;imageAspect=0;image=data:image/svg+xml,PHN2ZyB4bWxuczpkYz0iaHR0cDovL3B1cmwub3JnL2RjL2VsZW1lbnRzLzEuMS8iIHhtbG5zOmNjPSJodHRwOi8vY3JlYXRpdmVjb21tb25zLm9yZy9ucyMiIHhtbG5zOnJkZj0iaHR0cDovL3d3dy53My5vcmcvMTk5OS8wMi8yMi1yZGYtc3ludGF4LW5zIyIgeG1sbnM6c3ZnPSJodHRwOi8vd3d3LnczLm9yZy8yMDAwL3N2ZyIgeG1sbnM9Imh0dHA6Ly93d3cudzMub3JnLzIwMDAvc3ZnIiB4bWxuczpzb2RpcG9kaT0iaHR0cDovL3NvZGlwb2RpLnNvdXJjZWZvcmdlLm5ldC9EVEQvc29kaXBvZGktMC5kdGQiIHhtbG5zOmlua3NjYXBlPSJodHRwOi8vd3d3Lmlua3NjYXBlLm9yZy9uYW1lc3BhY2VzL2lua3NjYXBlIiB2ZXJzaW9uPSIxLjEiIGlkPSJzdmc1MjI2OCIgaW5rc2NhcGU6dmVyc2lvbj0iMC45Mi4zICgyNDA1NTQ2LCAyMDE4LTAzLTExKSIgc29kaXBvZGk6ZG9jbmFtZT0iYXp1cmVfYmFja3VwLnN2ZyIgeD0iMHB4IiB5PSIwcHgiIHZpZXdCb3g9IjAgMCA3NS41MyA2Mi45MyIgeG1sOnNwYWNlPSJwcmVzZXJ2ZSIgd2lkdGg9Ijc1LjUyOTk5OSIgaGVpZ2h0PSI2Mi45MyI+PG1ldGFkYXRhIGlkPSJtZXRhZGF0YTMxODQiPjxyZGY6UkRGPjxjYzpXb3JrIHJkZjphYm91dD0iIj48ZGM6Zm9ybWF0PmltYWdlL3N2Zyt4bWw8L2RjOmZvcm1hdD48ZGM6dHlwZSByZGY6cmVzb3VyY2U9Imh0dHA6Ly9wdXJsLm9yZy9kYy9kY21pdHlwZS9TdGlsbEltYWdlIi8+PGRjOnRpdGxlLz48L2NjOldvcms+PC9yZGY6UkRGPjwvbWV0YWRhdGE+PGRlZnMgaWQ9ImRlZnMzMTgyIj4mI3hhOwkmI3hhOyYjeGE7CSYjeGE7JiN4YTsJCSYjeGE7CSYjeGE7CQkmI3hhOwk8L2RlZnM+JiN4YTs8ZmlsdGVyIGlkPSJmaWx0ZXJfMiI+JiN4YTsJPGZlR2F1c3NpYW5CbHVyIGlkPSJmZUdhdXNzaWFuQmx1cjUyMjQxIiBzdGREZXZpYXRpb249IjIiLz4mI3hhOzwvZmlsdGVyPiYjeGE7PHNvZGlwb2RpOm5hbWVkdmlldyBib3JkZXJjb2xvcj0iIzY2NjY2NiIgYm9yZGVyb3BhY2l0eT0iMSIgZml0LW1hcmdpbi1ib3R0b209IjAiIGZpdC1tYXJnaW4tbGVmdD0iMCIgZml0LW1hcmdpbi1yaWdodD0iMCIgZml0LW1hcmdpbi10b3A9IjAiIGdyaWR0b2xlcmFuY2U9IjEwIiBndWlkZXRvbGVyYW5jZT0iMTAiIGlkPSJuYW1lZHZpZXc1MjI3MCIgaW5rc2NhcGU6Y3VycmVudC1sYXllcj0ic3ZnNTIyNjgiIGlua3NjYXBlOmN4PSItNDEuMjQ4MDI3IiBpbmtzY2FwZTpjeT0iMjkuMzkzODkiIGlua3NjYXBlOnBhZ2VvcGFjaXR5PSIwIiBpbmtzY2FwZTpwYWdlc2hhZG93PSIyIiBpbmtzY2FwZTp3aW5kb3ctaGVpZ2h0PSIxMDE3IiBpbmtzY2FwZTp3aW5kb3ctbWF4aW1pemVkPSIxIiBpbmtzY2FwZTp3aW5kb3ctd2lkdGg9IjE5MjAiIGlua3NjYXBlOndpbmRvdy14PSItOCIgaW5rc2NhcGU6d2luZG93LXk9Ii04IiBpbmtzY2FwZTp6b29tPSI1LjI1OTk5NzkiIG9iamVjdHRvbGVyYW5jZT0iMTAiIHBhZ2Vjb2xvcj0iI2ZmZmZmZiIgc2hvd2dyaWQ9ImZhbHNlIj4mI3hhOwk8L3NvZGlwb2RpOm5hbWVkdmlldz4mI3hhOyYjeGE7PHBhdGggaWQ9InBhdGg1MjI1NCIgaW5rc2NhcGU6Y29ubmVjdG9yLWN1cnZhdHVyZT0iMCIgc3R5bGU9ImZpbGw6IzAwNzJjNiIgZD0ibSA2OC4xLDE3LjU3IGMgMC4wNSwtMC41MyAwLjA3LC0xLjA4IDAuMDcsLTEuNjMgQyA2OC4xNyw3LjE1IDYwLjk1LDAgNTIuMDksMCA0Ni44MywwIDQxLjk5LDIuNTIgMzkuMDIsNi42NSAzNy4xMSw1LjQ2IDM0Ljg5LDQuODEgMzIuNTgsNC44MSBjIC02LjMyLDAgLTExLjUzLDQuODEgLTEyLjExLDEwLjkzIDAuOTgsLTAuMTMgMS45NiwtMC4yMyAyLjk3LC0wLjIzIDQuNjYsMCA5LjE0LDEuNTEgMTIuNzksNC4xOCAyLjc0LC02LjMyIDkuNzIsLTEwLjM3IDE3LjQ0LC0xMC42IFYgMy42OCBsIDkuNDQsOC4wOCAtOS40NCw4LjAzIFYgMTQuNSBjIC00LjQzLDAuMTggLTguNzMsMS44NCAtMTEuMjIsNS44NyBsIDAuNSwtMC4wNSBjIDkuMDEsMCAxNi40Niw2Ljc1IDE3LjUyLDE1LjM4IDIuMTQsMS42MSAzLjgzLDMuNTUgNS4wNCw1Ljc2IDUuODQsLTEuNTYgMTAuMDIsLTYuNTkgMTAuMDIsLTEyLjc2IDAsLTQuOTYgLTIuNjcsLTguOTEgLTcuNDMsLTExLjEzIHoiLz4mI3hhOyYjeGE7PHBhdGggaWQ9InBhdGg1MjI2MiIgaW5rc2NhcGU6Y29ubmVjdG9yLWN1cnZhdHVyZT0iMCIgc3R5bGU9ImZpbGw6IzU5YjRkOSIgZD0ibSA3LjQzLDM4LjUxIGMgLTAuMDUsLTAuNTUgLTAuMDgsLTEuMSAtMC4wOCwtMS42NiAwLC04Ljc4IDcuMjMsLTE1LjkxIDE2LjA5LC0xNS45MSA1LjI2LDAgMTAuMDksMi41MiAxMy4wNiw2LjYyIDEuOTIsLTEuMTggNC4xMywtMS44MSA2LjQ1LC0xLjgxIDYuNjksMCAxMi4xNiw1LjQxIDEyLjE2LDEyLjA2IGwgLTAuMDMsMC45NiBjIDQuNTMsMi4yOSA2Ljk4LDYuMDkgNi45OCwxMC44NSAwLDcuNDcgLTYuMSwxMy4zMSAtMTMuODgsMTMuMzEgSCAxMy44NyBDIDYuMDksNjIuOTMgMCw1Ny4wOSAwLDQ5LjYyIDAsNDQuNjggMi42Nyw0MC43MyA3LjQzLDM4LjUxIFoiLz4mI3hhOzwvc3ZnPg==;" vertex="1" parent="1">
          <mxGeometry x="1000" y="319.5" width="54.29" height="45" as="geometry" />
        </mxCell>
        <mxCell id="Y6577xWDLrJWWgxM1nmn-14" style="edgeStyle=orthogonalEdgeStyle;rounded=0;orthogonalLoop=1;jettySize=auto;html=1;exitX=0;exitY=0.5;exitDx=0;exitDy=0;entryX=1;entryY=0.5;entryDx=0;entryDy=0;startArrow=classic;startFill=1;endArrow=none;endFill=0;" edge="1" parent="1" source="Y6577xWDLrJWWgxM1nmn-11" target="Y6577xWDLrJWWgxM1nmn-6">
          <mxGeometry relative="1" as="geometry" />
        </mxCell>
        <mxCell id="Y6577xWDLrJWWgxM1nmn-15" style="edgeStyle=orthogonalEdgeStyle;rounded=0;orthogonalLoop=1;jettySize=auto;html=1;exitX=1;exitY=0.5;exitDx=0;exitDy=0;" edge="1" parent="1" source="Y6577xWDLrJWWgxM1nmn-11" target="Y6577xWDLrJWWgxM1nmn-7">
          <mxGeometry relative="1" as="geometry" />
        </mxCell>
        <mxCell id="Y6577xWDLrJWWgxM1nmn-11" value="Tracker Gateway&#xa;Server" style="shape=image;verticalLabelPosition=bottom;labelBackgroundColor=none;verticalAlign=top;aspect=fixed;imageAspect=0;image=data:image/svg+xml,PHN2ZyB4bWxuczpkYz0iaHR0cDovL3B1cmwub3JnL2RjL2VsZW1lbnRzLzEuMS8iIHhtbG5zOmNjPSJodHRwOi8vY3JlYXRpdmVjb21tb25zLm9yZy9ucyMiIHhtbG5zOnJkZj0iaHR0cDovL3d3dy53My5vcmcvMTk5OS8wMi8yMi1yZGYtc3ludGF4LW5zIyIgeG1sbnM6c3ZnPSJodHRwOi8vd3d3LnczLm9yZy8yMDAwL3N2ZyIgeG1sbnM9Imh0dHA6Ly93d3cudzMub3JnLzIwMDAvc3ZnIiB4bWxuczpzb2RpcG9kaT0iaHR0cDovL3NvZGlwb2RpLnNvdXJjZWZvcmdlLm5ldC9EVEQvc29kaXBvZGktMC5kdGQiIHhtbG5zOmlua3NjYXBlPSJodHRwOi8vd3d3Lmlua3NjYXBlLm9yZy9uYW1lc3BhY2VzL2lua3NjYXBlIiB2ZXJzaW9uPSIxLjEiIGlkPSJzdmc2MTAxMSIgaW5rc2NhcGU6dmVyc2lvbj0iMC45Mi4zICgyNDA1NTQ2LCAyMDE4LTAzLTExKSIgc29kaXBvZGk6ZG9jbmFtZT0iYXp1cmVfcG9ydGFsX3ZpcnR1YWxfbWFjaGluZXMuc3ZnIiB4PSIwcHgiIHk9IjBweCIgdmlld0JveD0iMCAwIDU3LjY0IDUzLjIwMDAwMiIgeG1sOnNwYWNlPSJwcmVzZXJ2ZSIgd2lkdGg9IjU3LjYzOTk5OSIgaGVpZ2h0PSI1My4yMDAwMDEiPjxtZXRhZGF0YSBpZD0ibWV0YWRhdGExMDk5MCI+PHJkZjpSREY+PGNjOldvcmsgcmRmOmFib3V0PSIiPjxkYzpmb3JtYXQ+aW1hZ2Uvc3ZnK3htbDwvZGM6Zm9ybWF0PjxkYzp0eXBlIHJkZjpyZXNvdXJjZT0iaHR0cDovL3B1cmwub3JnL2RjL2RjbWl0eXBlL1N0aWxsSW1hZ2UiLz48ZGM6dGl0bGUvPjwvY2M6V29yaz48L3JkZjpSREY+PC9tZXRhZGF0YT48ZGVmcyBpZD0iZGVmczEwOTg4Ii8+JiN4YTs8ZmlsdGVyIGlkPSJmaWx0ZXJfMiI+JiN4YTsJPGZlR2F1c3NpYW5CbHVyIGlkPSJmZUdhdXNzaWFuQmx1cjYwOTIwIiBzdGREZXZpYXRpb249IjIiLz4mI3hhOzwvZmlsdGVyPiYjeGE7PHNvZGlwb2RpOm5hbWVkdmlldyBib3JkZXJjb2xvcj0iIzY2NjY2NiIgYm9yZGVyb3BhY2l0eT0iMSIgZml0LW1hcmdpbi1ib3R0b209IjAiIGZpdC1tYXJnaW4tbGVmdD0iMCIgZml0LW1hcmdpbi1yaWdodD0iMCIgZml0LW1hcmdpbi10b3A9IjAiIGdyaWR0b2xlcmFuY2U9IjEwIiBndWlkZXRvbGVyYW5jZT0iMTAiIGlkPSJuYW1lZHZpZXc2MTAxMyIgaW5rc2NhcGU6Y3VycmVudC1sYXllcj0ic3ZnNjEwMTEiIGlua3NjYXBlOmN4PSItMzMuMTQzMzAzIiBpbmtzY2FwZTpjeT0iMjQuNjk2NTQ0IiBpbmtzY2FwZTpwYWdlb3BhY2l0eT0iMCIgaW5rc2NhcGU6cGFnZXNoYWRvdz0iMiIgaW5rc2NhcGU6d2luZG93LWhlaWdodD0iMTAxNyIgaW5rc2NhcGU6d2luZG93LW1heGltaXplZD0iMSIgaW5rc2NhcGU6d2luZG93LXdpZHRoPSIxOTIwIiBpbmtzY2FwZTp3aW5kb3cteD0iLTgiIGlua3NjYXBlOndpbmRvdy15PSItOCIgaW5rc2NhcGU6em9vbT0iNS45MTg3NzA5IiBvYmplY3R0b2xlcmFuY2U9IjEwIiBwYWdlY29sb3I9IiNmZmZmZmYiIHNob3dncmlkPSJmYWxzZSI+JiN4YTsJPC9zb2RpcG9kaTpuYW1lZHZpZXc+JiN4YTsmI3hhOzxwYXRoIGlkPSJwYXRoNjA5MzMiIGlua3NjYXBlOmNvbm5lY3Rvci1jdXJ2YXR1cmU9IjAiIHN0eWxlPSJmaWxsOiM3YTdhN2EiIGQ9Ik0gMzcuMzksNDIuMTIgSCAzNi4wMSAyMi40MiAyMS43MSBjIDEuODgsNi42NSAtMC42NSw3LjYgLTExLjczLDcuNiB2IDMuNDggaCAxNC4xIDEwLjI5IDEzLjMgdiAtMy40OCBjIC0xMS4wOCwwIC0xMi4xNywtMC45NSAtMTAuMjgsLTcuNiB6Ii8+JiN4YTsmI3hhOzxwYXRoIGlkPSJwYXRoNjA5NDEiIGlua3NjYXBlOmNvbm5lY3Rvci1jdXJ2YXR1cmU9IjAiIHN0eWxlPSJmaWxsOiNhMGExYTIiIGQ9Ik0gNTQuMTYsMCBIIDMuMTMgQyAxLjQsMCAwLDEuNTUgMCwzLjI4IHYgMzUuNTkgYyAwLDEuNzIgMS40LDMuMjUgMy4xMywzLjI1IGggNTEuMDMgYyAxLjczLDAgMy40OCwtMS41MyAzLjQ4LC0zLjI1IFYgMy4yOCBDIDU3LjY0LDEuNTUgNTUuODksMCA1NC4xNiwwIFoiLz4mI3hhOyYjeGE7PHBhdGggaWQ9InBhdGg2MDk0OSIgaW5rc2NhcGU6Y29ubmVjdG9yLWN1cnZhdHVyZT0iMCIgc3R5bGU9ImZpbGw6I2ZmZmZmZjtmaWxsLW9wYWNpdHk6MC4yIiBkPSJNIDU0LjIsMCBDIDU0LjE5LDAgNTQuMTcsMCA1NC4xNiwwIEggMy4xMyBDIDEuNCwwIDAsMS41NSAwLDMuMjggdiAzNS41OSBjIDAsMS43MiAxLjQsMy4yNSAzLjEzLDMuMjUgaCAxLjIyIHoiLz4mI3hhOyYjeGE7PHJlY3QgaWQ9InJlY3Q2MDk1NyIgeD0iNC4zNjk5OTUxIiB5PSI0LjQ0MDAwMDEiIHN0eWxlPSJmaWxsOiM1OWI0ZDkiIHdpZHRoPSI0OC43Nzk5OTkiIGhlaWdodD0iMzMuMjUiLz4mI3hhOyYjeGE7JiN4YTsmI3hhOzxyZWN0IGlkPSJyZWN0NjA5NzMiIHg9IjkuOTc5OTk1NyIgeT0iNDkuNzIwMDAxIiBzdHlsZT0iZmlsbDojYTBhMWEyIiB3aWR0aD0iMzcuNjg5OTk5IiBoZWlnaHQ9IjMuNDgiLz4mI3hhOyYjeGE7PHBhdGggaWQ9InBhdGg2MDk4MSIgaW5rc2NhcGU6Y29ubmVjdG9yLWN1cnZhdHVyZT0iMCIgc3R5bGU9ImZpbGw6I2I4ZDQzMiIgZD0ibSAyOS40MiwyLjQyIGMgMCwwLjQ1IC0wLjM3LDAuODEgLTAuODIsMC44MSAtMC40NiwwIC0wLjgyLC0wLjM2IC0wLjgyLC0wLjgxIDAsLTAuNDYgMC4zNiwtMC44MiAwLjgyLC0wLjgyIDAuNDUsMCAwLjgyLDAuMzYgMC44MiwwLjgyIHoiLz4mI3hhOyYjeGE7PHBhdGggaWQ9InBhdGg2MDk4OSIgaW5rc2NhcGU6Y29ubmVjdG9yLWN1cnZhdHVyZT0iMCIgc3R5bGU9ImZpbGw6I2ZmZmZmZiIgZD0ibSAyOS40NSwyMC4wNSBjIC0wLjA2LDAgLTAuMTEsLTAuMDEgLTAuMTYsLTAuMDQgTCAxOS4xNCwxNC4xNSBjIC0wLjA5LC0wLjA1IC0wLjE1LC0wLjE2IC0wLjE1LC0wLjI2IDAsLTAuMTEgMC4wNiwtMC4yMiAwLjE1LC0wLjI3IEwgMjkuMjMsNy44IGMgMC4xLC0wLjA1IDAuMjEsLTAuMDUgMC4zLDAgbCAxMC4xNiw1Ljg2IGMgMC4wOSwwLjA1IDAuMTUsMC4xNiAwLjE1LDAuMjcgMCwwLjExIC0wLjA2LDAuMjEgLTAuMTUsMC4yNiBMIDI5LjYsMjAuMDEgYyAtMC4wNSwwLjAzIC0wLjEsMC4wNCAtMC4xNSwwLjA0IHoiLz4mI3hhOyYjeGE7PHBhdGggaWQ9InBhdGg2MDk5NyIgaW5rc2NhcGU6Y29ubmVjdG9yLWN1cnZhdHVyZT0iMCIgc3R5bGU9ImZpbGw6I2ZmZmZmZjtmaWxsLW9wYWNpdHk6MC43IiBkPSJtIDI3Ljk5LDM0LjI5IGMgLTAuMDYsMCAtMC4xMSwtMC4wMSAtMC4xNSwtMC4wNCBMIDE3LjcyLDI4LjQxIGMgLTAuMSwtMC4wNSAtMC4xNiwtMC4xNSAtMC4xNiwtMC4yNiBWIDE2LjQzIGMgMCwtMC4xMSAwLjA2LC0wLjIyIDAuMTYsLTAuMjcgMC4wOSwtMC4wNiAwLjIxLC0wLjA2IDAuMzEsMCBMIDI4LjE0LDIyIGMgMC4wOSwwLjA2IDAuMTUsMC4xNiAwLjE1LDAuMjcgdiAxMS43MiBjIDAsMC4xMSAtMC4wNiwwLjIxIC0wLjE1LDAuMjYgLTAuMDUsMC4wMyAtMC4xLDAuMDQgLTAuMTUsMC4wNCB6Ii8+JiN4YTsmI3hhOzxwYXRoIGlkPSJwYXRoNjEwMDUiIGlua3NjYXBlOmNvbm5lY3Rvci1jdXJ2YXR1cmU9IjAiIHN0eWxlPSJmaWxsOiNmZmZmZmY7ZmlsbC1vcGFjaXR5OjAuNCIgZD0iTSAzMC44NiwzNC4yOSBDIDMwLjgsMzQuMjkgMzAuNzUsMzQuMjggMzAuNywzNC4yNSAzMC42MSwzNC4yIDMwLjU1LDM0LjEgMzAuNTUsMzMuOTkgViAyMi4zNCBjIDAsLTAuMTEgMC4wNiwtMC4yMSAwLjE1LC0wLjI3IGwgMTAuMTIsLTUuODMgYyAwLjA5LC0wLjA2IDAuMjEsLTAuMDYgMC4zLDAgMC4xLDAuMDUgMC4xNiwwLjE1IDAuMTYsMC4yNiB2IDExLjY1IGMgMCwwLjExIC0wLjA2LDAuMjEgLTAuMTYsMC4yNiBsIC0xMC4xMSw1Ljg0IGMgLTAuMDQsMC4wMyAtMC4xLDAuMDQgLTAuMTUsMC4wNCB6Ii8+JiN4YTs8L3N2Zz4=;imageBackground=#ffffff;" vertex="1" parent="1">
          <mxGeometry x="531.0000000000001" y="444" width="58" height="53" as="geometry" />
        </mxCell>
        <mxCell id="Y6577xWDLrJWWgxM1nmn-24" style="edgeStyle=orthogonalEdgeStyle;rounded=0;orthogonalLoop=1;jettySize=auto;html=1;exitX=1;exitY=0.5;exitDx=0;exitDy=0;" edge="1" parent="1" source="Y6577xWDLrJWWgxM1nmn-20" target="Y6577xWDLrJWWgxM1nmn-6">
          <mxGeometry relative="1" as="geometry" />
        </mxCell>
        <mxCell id="Y6577xWDLrJWWgxM1nmn-20" value="VETA Users" style="shape=image;verticalLabelPosition=bottom;labelBackgroundColor=#ffffff;verticalAlign=top;aspect=fixed;imageAspect=0;image=data:image/svg+xml,PHN2ZyB4bWxuczpjYz0iaHR0cDovL2NyZWF0aXZlY29tbW9ucy5vcmcvbnMjIiB4bWxuczpkYz0iaHR0cDovL3B1cmwub3JnL2RjL2VsZW1lbnRzLzEuMS8iIHhtbG5zOmlua3NjYXBlPSJodHRwOi8vd3d3Lmlua3NjYXBlLm9yZy9uYW1lc3BhY2VzL2lua3NjYXBlIiB4bWxuczpyZGY9Imh0dHA6Ly93d3cudzMub3JnLzE5OTkvMDIvMjItcmRmLXN5bnRheC1ucyMiIHhtbG5zOnNvZGlwb2RpPSJodHRwOi8vc29kaXBvZGkuc291cmNlZm9yZ2UubmV0L0RURC9zb2RpcG9kaS0wLmR0ZCIgeG1sbnM6c3ZnPSJodHRwOi8vd3d3LnczLm9yZy8yMDAwL3N2ZyIgeG1sbnM9Imh0dHA6Ly93d3cudzMub3JnLzIwMDAvc3ZnIiB4bWxuczp4bGluaz0iaHR0cDovL3d3dy53My5vcmcvMTk5OS94bGluayIgdmVyc2lvbj0iMS4xIiBpZD0ic3ZnMTAwNzM2IiBpbmtzY2FwZTp2ZXJzaW9uPSIwLjkyLjMgKDI0MDU1NDYsIDIwMTgtMDMtMTEpIiBzb2RpcG9kaTpkb2NuYW1lPSJ1c2Vycy5zdmciIHg9IjBweCIgeT0iMHB4IiB2aWV3Qm94PSIwIDAgMTkyLjEyIDIyNC45MSIgc3R5bGU9ImVuYWJsZS1iYWNrZ3JvdW5kOm5ldyAwIDAgMTkyLjEyIDIyNC45MTsiIHhtbDpzcGFjZT0icHJlc2VydmUiPiYjeGE7PHNvZGlwb2RpOm5hbWVkdmlldyBib3JkZXJjb2xvcj0iIzY2NjY2NiIgYm9yZGVyb3BhY2l0eT0iMSIgZml0LW1hcmdpbi1ib3R0b209IjAiIGZpdC1tYXJnaW4tbGVmdD0iMCIgZml0LW1hcmdpbi1yaWdodD0iMCIgZml0LW1hcmdpbi10b3A9IjAiIGdyaWR0b2xlcmFuY2U9IjEwIiBndWlkZXRvbGVyYW5jZT0iMTAiIGlkPSJuYW1lZHZpZXcxMDA3MzgiIGlua3NjYXBlOmN1cnJlbnQtbGF5ZXI9InN2ZzEwMDczNiIgaW5rc2NhcGU6Y3g9IjIwMS40NDcwNiIgaW5rc2NhcGU6Y3k9IjczLjk2NDI1MyIgaW5rc2NhcGU6cGFnZW9wYWNpdHk9IjAiIGlua3NjYXBlOnBhZ2VzaGFkb3c9IjIiIGlua3NjYXBlOndpbmRvdy1oZWlnaHQ9IjEwMTciIGlua3NjYXBlOndpbmRvdy1tYXhpbWl6ZWQ9IjEiIGlua3NjYXBlOndpbmRvdy13aWR0aD0iMTkyMCIgaW5rc2NhcGU6d2luZG93LXg9Ii04IiBpbmtzY2FwZTp3aW5kb3cteT0iLTgiIGlua3NjYXBlOnpvb209IjEuNDQ1NTY5IiBvYmplY3R0b2xlcmFuY2U9IjEwIiBwYWdlY29sb3I9IiNmZmZmZmYiIHNob3dncmlkPSJmYWxzZSI+JiN4YTsJPC9zb2RpcG9kaTpuYW1lZHZpZXc+JiN4YTs8ZyBpZD0iZzEwMDczNCIgdHJhbnNmb3JtPSJ0cmFuc2xhdGUoLTQuOTkwNTY4MWUtNywwLjAwNDQ1NzEzKSI+JiN4YTsJPHRpdGxlIGlkPSJ0aXRsZTEwMDU4NCI+UGFnZS0xPC90aXRsZT4mI3hhOwk8ZyBpZD0iZ3JvdXA1NTkzLTEiIHRyYW5zZm9ybT0idHJhbnNsYXRlKDAuMTQ5OTk5LC0wLjE0OTk5OSkiPiYjeGE7CQk8dGl0bGUgaWQ9InRpdGxlMTAwNTg2Ij5Vc2VyczwvdGl0bGU+JiN4YTsJCTxnIGlkPSJzaGFwZTU1OTQtMiIgdHJhbnNmb3JtPSJ0cmFuc2xhdGUoMjguNDk5MiwtMTM2LjY4MSkiPiYjeGE7CQkJPHRpdGxlIGlkPSJ0aXRsZTEwMDU4OCI+U2hlZXQuNTU5NDwvdGl0bGU+JiN4YTsJCQk8cGF0aCBpZD0icGF0aDEwMDU5MCIgaW5rc2NhcGU6Y29ubmVjdG9yLWN1cnZhdHVyZT0iMCIgc3R5bGU9ImZpbGw6IzZENDgyOTsiIGQ9Ik0wLDIyNC45MXYtMjguNDRoNDcuMzR2MjguNDRIMHoiLz4mI3hhOwkJPC9nPiYjeGE7CQk8ZyBpZD0ic2hhcGU1NTk1LTQiIHRyYW5zZm9ybT0idHJhbnNsYXRlKDAuMTE5OTk3LC0zMC42MDAyKSI+JiN4YTsJCQk8dGl0bGUgaWQ9InRpdGxlMTAwNTkzIj5TaGVldC41NTk1PC90aXRsZT4mI3hhOwkJCTxwYXRoIGlkPSJwYXRoMTAwNTk1IiBpbmtzY2FwZTpjb25uZWN0b3ItY3VydmF0dXJlPSIwIiBzdHlsZT0iZmlsbDojNDBDNUFGOyIgZD0iTTIyLjAyLDExMC4zMWg2MC4yNCAgICAgYzEyLjEyLDAsMjIuMDIsMTAuOCwyMi4wMiwyMy41MnYxOS42Mkg4Mi4zMnY3MS40NkgyMi4wOHYtNzEuNDZIMHYtMTkuNTZsMCwwYzAtMTIuNzgsOS45LTIzLjUyLDIyLjAyLTIzLjUyVjExMC4zMXoiLz4mI3hhOwkJPC9nPiYjeGE7CQk8ZyBpZD0ic2hhcGU1NTk2LTYiIHRyYW5zZm9ybT0idHJhbnNsYXRlKDg3LjE3NzYsLTQzLjA4MDMpIj4mI3hhOwkJCTx0aXRsZSBpZD0idGl0bGUxMDA1OTgiPlNoZWV0LjU1OTY8L3RpdGxlPiYjeGE7CQkJPHBhdGggaWQ9InBhdGgxMDA2MDAiIGlua3NjYXBlOmNvbm5lY3Rvci1jdXJ2YXR1cmU9IjAiIHN0eWxlPSJmaWxsOiNFMEJCOEQ7IiBkPSJNMTQuODIsMjI0Ljg1aDI0LjY2di0xOC44NEgxNy4yMnYtNDAuMDhIMCAgICAgdjQ0LjE2bDAsMGMwLjA2LDguMTYsNi42NiwxNC43NiwxNC44MiwxNC44MlYyMjQuODV6Ii8+JiN4YTsJCTwvZz4mI3hhOwkJPGcgaWQ9InNoYXBlNTU5Ny04Ij4mI3hhOwkJCTx0aXRsZSBpZD0idGl0bGUxMDA2MDMiPlNoZWV0LjU1OTc8L3RpdGxlPiYjeGE7CQkJPHBhdGggaWQ9InBhdGgxMDA2MDUiIGlua3NjYXBlOmNvbm5lY3Rvci1jdXJ2YXR1cmU9IjAiIHN0eWxlPSJmaWxsOiNFMEJCOEQ7IiBkPSJNMCwxMjIuODVoMTcuMjJ2MTAyLjA2SDBWMTIyLjg1eiIvPiYjeGE7CQk8L2c+JiN4YTsJCTxnIGlkPSJzaGFwZTU1OTgtMTAiPiYjeGE7CQkJPHRpdGxlIGlkPSJ0aXRsZTEwMDYwOCI+U2hlZXQuNTU5ODwvdGl0bGU+JiN4YTsJCQkmI3hhOwkJCQk8cGF0aCBpZD0icGF0aDEwMDYxMCIgaW5rc2NhcGU6Y29ubmVjdG9yLWN1cnZhdHVyZT0iMCIgc3R5bGU9ImZpbGw6bm9uZTtzdHJva2U6I0ZGRkZGRjtzdHJva2Utd2lkdGg6MC4zO3N0cm9rZS1saW5lY2FwOnJvdW5kO3N0cm9rZS1saW5lam9pbjpyb3VuZDtzdHJva2UtbWl0ZXJsaW1pdDozOyIgZD0iICAgICBNMCwxMjIuODVoMTcuMjJ2MTAyLjA2SDBWMTIyLjg1eiIvPiYjeGE7CQk8L2c+JiN4YTsJCTxnIGlkPSJzaGFwZTU1OTktMTIiIHRyYW5zZm9ybT0idHJhbnNsYXRlKDExMi40OTcsLTY4LjQwMDUpIj4mI3hhOwkJCTx0aXRsZSBpZD0idGl0bGUxMDA2MTMiPlNoZWV0LjU1OTk8L3RpdGxlPiYjeGE7CQkJPHBhdGggaWQ9InBhdGgxMDA2MTUiIGlua3NjYXBlOmNvbm5lY3Rvci1jdXJ2YXR1cmU9IjAiIHN0eWxlPSJmaWxsOiMzRjU3NjU7IiBkPSJNNzkuMzIsMTg2LjUxbC0yMC44OCwzOC40SDBsMjAuNTgtMzguNCAgICAgTDc5LjMyLDE4Ni41MXoiLz4mI3hhOwkJPC9nPiYjeGE7CQk8ZyBpZD0ic2hhcGU1NjAwLTE0IiB0cmFuc2Zvcm09InRyYW5zbGF0ZSgxMTIuNDk3LC02OC40MDA1KSI+JiN4YTsJCQk8dGl0bGUgaWQ9InRpdGxlMTAwNjE4Ij5TaGVldC41NjAwPC90aXRsZT4mI3hhOwkJCSYjeGE7CQkJCTxwYXRoIGlkPSJwYXRoMTAwNjIwIiBpbmtzY2FwZTpjb25uZWN0b3ItY3VydmF0dXJlPSIwIiBzdHlsZT0iZmlsbDpub25lO3N0cm9rZTojRkZGRkZGO3N0cm9rZS13aWR0aDowLjM7c3Ryb2tlLWxpbmVjYXA6cm91bmQ7c3Ryb2tlLWxpbmVqb2luOnJvdW5kO3N0cm9rZS1taXRlcmxpbWl0OjM7IiBkPSIgICAgIE03OS4zMiwxODYuNTFsLTIwLjg4LDM4LjRIMGwyMC41OC0zOC40TDc5LjMyLDE4Ni41MXoiLz4mI3hhOwkJPC9nPiYjeGE7CQk8ZyBpZD0ic2hhcGU1NjAxLTE2IiB0cmFuc2Zvcm09InRyYW5zbGF0ZSgwLC05Ny4wMjA4KSI+JiN4YTsJCQk8dGl0bGUgaWQ9InRpdGxlMTAwNjIzIj5TaGVldC41NjAxPC90aXRsZT4mI3hhOwkJCTxwYXRoIGlkPSJwYXRoMTAwNjI1IiBpbmtzY2FwZTpjb25uZWN0b3ItY3VydmF0dXJlPSIwIiBzdHlsZT0iZmlsbDojQzM5ODZGOyIgZD0iTTE3LjIyLDIyNC45MXYtNS4wNEgwdjUuMDRIMTcuMjJ6Ii8+JiN4YTsJCTwvZz4mI3hhOwkJPGcgaWQ9InNoYXBlNTYwMi0xOCIgdHJhbnNmb3JtPSJ0cmFuc2xhdGUoMCwtOTcuMDIwOCkiPiYjeGE7CQkJPHRpdGxlIGlkPSJ0aXRsZTEwMDYyOCI+U2hlZXQuNTYwMjwvdGl0bGU+JiN4YTsJCQkmI3hhOwkJCQk8cGF0aCBpZD0icGF0aDEwMDYzMCIgaW5rc2NhcGU6Y29ubmVjdG9yLWN1cnZhdHVyZT0iMCIgc3R5bGU9ImZpbGw6bm9uZTtzdHJva2U6I0ZGRkZGRjtzdHJva2Utd2lkdGg6MC4zO3N0cm9rZS1saW5lY2FwOnJvdW5kO3N0cm9rZS1saW5lam9pbjpyb3VuZDtzdHJva2UtbWl0ZXJsaW1pdDozOyIgZD0iICAgICBNMTcuMjIsMjI0Ljkxdi01LjA0SDB2NS4wNEgxNy4yMnoiLz4mI3hhOwkJPC9nPiYjeGE7CQk8ZyBpZD0ic2hhcGU1NjAzLTIwIiB0cmFuc2Zvcm09InRyYW5zbGF0ZSg4Ny4xNzc2LC05Ny4wMjA4KSI+JiN4YTsJCQk8dGl0bGUgaWQ9InRpdGxlMTAwNjMzIj5TaGVldC41NjAzPC90aXRsZT4mI3hhOwkJCTxwYXRoIGlkPSJwYXRoMTAwNjM1IiBpbmtzY2FwZTpjb25uZWN0b3ItY3VydmF0dXJlPSIwIiBzdHlsZT0iZmlsbDojQzM5ODZGOyIgZD0iTTE3LjIyLDIyNC45MXYtNS4wNEgwdjUuMDRIMTcuMjJ6Ii8+JiN4YTsJCTwvZz4mI3hhOwkJPGcgaWQ9InNoYXBlNTYwNC0yMiIgdHJhbnNmb3JtPSJ0cmFuc2xhdGUoODcuMTc3NiwtOTcuMDIwOCkiPiYjeGE7CQkJPHRpdGxlIGlkPSJ0aXRsZTEwMDYzOCI+U2hlZXQuNTYwNDwvdGl0bGU+JiN4YTsJCQkmI3hhOwkJCQk8cGF0aCBpZD0icGF0aDEwMDY0MCIgaW5rc2NhcGU6Y29ubmVjdG9yLWN1cnZhdHVyZT0iMCIgc3R5bGU9ImZpbGw6bm9uZTtzdHJva2U6I0ZGRkZGRjtzdHJva2Utd2lkdGg6MC4zO3N0cm9rZS1saW5lY2FwOnJvdW5kO3N0cm9rZS1saW5lam9pbjpyb3VuZDtzdHJva2UtbWl0ZXJsaW1pdDozOyIgZD0iICAgICBNMTcuMjIsMjI0Ljkxdi01LjA0SDB2NS4wNEgxNy4yMnoiLz4mI3hhOwkJPC9nPiYjeGE7CQk8ZyBpZD0ic2hhcGU1NjA1LTI0IiB0cmFuc2Zvcm09InRyYW5zbGF0ZSg0MS44Nzg5LC0xMzcuNTgxKSI+JiN4YTsJCQk8dGl0bGUgaWQ9InRpdGxlMTAwNjQzIj5TaGVldC41NjA1PC90aXRsZT4mI3hhOwkJCTxwYXRoIGlkPSJwYXRoMTAwNjQ1IiBpbmtzY2FwZTpjb25uZWN0b3ItY3VydmF0dXJlPSIwIiBzdHlsZT0iZmlsbDojRTFCQzhGOyIgZD0iTTAsMTkxLjQzaDIwLjI4djI3Ljg0bC0xMC4zMiw1LjY0TDAsMjE5LjI3ICAgICBWMTkxLjQzeiIvPiYjeGE7CQk8L2c+JiN4YTsJCTxnIGlkPSJzaGFwZTU2MDYtMjYiIHRyYW5zZm9ybT0idHJhbnNsYXRlKDIzLjM5OTQsLTE4MC40MjEpIj4mI3hhOwkJCTx0aXRsZSBpZD0idGl0bGUxMDA2NDgiPlNoZWV0LjU2MDY8L3RpdGxlPiYjeGE7CQkJPHBhdGggaWQ9InBhdGgxMDA2NTAiIGlua3NjYXBlOmNvbm5lY3Rvci1jdXJ2YXR1cmU9IjAiIHN0eWxlPSJmaWxsOiNDNDk5NzA7IiBkPSJNNTcuNzIsMjIxLjc5YzAsMS42Mi0xLjIsMy0yLjgyLDMuMTJIMi44OCAgICAgYy0xLjYyLTAuMTItMi44OC0xLjUtMi44OC0zLjEydi02LjI0YzAtMS41NiwxLjMyLTIuODIsMi44OC0yLjgySDU0LjljMS41NiwwLDIuODIsMS4yNiwyLjgyLDIuODJWMjIxLjc5eiIvPiYjeGE7CQk8L2c+JiN4YTsJCTxnIGlkPSJzaGFwZTU2MDctMjgiIHRyYW5zZm9ybT0idHJhbnNsYXRlKDQyLjExODksLTEzNy41ODEpIj4mI3hhOwkJCTx0aXRsZSBpZD0idGl0bGUxMDA2NTMiPlNoZWV0LjU2MDc8L3RpdGxlPiYjeGE7CQkJJiN4YTsJCQkJPHBhdGggaWQ9InBhdGgxMDA2NTUiIGlua3NjYXBlOmNvbm5lY3Rvci1jdXJ2YXR1cmU9IjAiIHN0eWxlPSJmaWxsOm5vbmU7c3Ryb2tlOiNGRkZGRkY7c3Ryb2tlLXdpZHRoOjAuNDg7c3Ryb2tlLWxpbmVjYXA6cm91bmQ7c3Ryb2tlLWxpbmVqb2luOnJvdW5kO3N0cm9rZS1taXRlcmxpbWl0OjM7IiBkPSIgICAgIE0wLDE5MS40M2gyMC4yOHYyNy44NGwtMTAuMjYsNS42NEwwLDIxOS4yN1YxOTEuNDN6Ii8+JiN4YTsJCTwvZz4mI3hhOwkJPGcgaWQ9InNoYXBlNTYwOC0zMCIgdHJhbnNmb3JtPSJ0cmFuc2xhdGUoNDIuMTE4OSwtMTUzLjU0MSkiPiYjeGE7CQkJPHRpdGxlIGlkPSJ0aXRsZTEwMDY1OCI+U2hlZXQuNTYwODwvdGl0bGU+JiN4YTsJCQk8cGF0aCBpZD0icGF0aDEwMDY2MCIgaW5rc2NhcGU6Y29ubmVjdG9yLWN1cnZhdHVyZT0iMCIgc3R5bGU9ImZpbGw6I0M0OTk3MDsiIGQ9Ik0wLDIyMy43MWMzLjMsMC45LDYuNjYsMS4zMiwxMC4wMiwxLjIgICAgIGMzLjQ4LDAuMDYsNi45LTAuMzYsMTAuMjYtMS4ydi0xNi4zMkgwVjIyMy43MXoiLz4mI3hhOwkJPC9nPiYjeGE7CQk8ZyBpZD0ic2hhcGU1NjA5LTMyIiB0cmFuc2Zvcm09InRyYW5zbGF0ZSgyOC43MzkyLC0xNTcuMzIxKSI+JiN4YTsJCQk8dGl0bGUgaWQ9InRpdGxlMTAwNjYzIj5TaGVldC41NjA5PC90aXRsZT4mI3hhOwkJCTxwYXRoIGlkPSJwYXRoMTAwNjY1IiBpbmtzY2FwZTpjb25uZWN0b3ItY3VydmF0dXJlPSIwIiBzdHlsZT0iZmlsbDojRTFCQzhGOyIgZD0iTTAsMTc5Ljk3djM3LjE0YzYuNzgsNC45OCwxNC45NCw3LjY4LDIzLjQsNy44ICAgICBjOC41OC0wLjEyLDE2Ljk4LTIuODIsMjQtNy44di0zNy4xNEgweiIvPiYjeGE7CQk8L2c+JiN4YTsJCTxnIGlkPSJzaGFwZTU2MTAtMzQiIHRyYW5zZm9ybT0idHJhbnNsYXRlKDI4LjQzOTIsLTE4OS4xMjEpIj4mI3hhOwkJCTx0aXRsZSBpZD0idGl0bGUxMDA2NjgiPlNoZWV0LjU2MTA8L3RpdGxlPiYjeGE7CQkJPHBhdGggaWQ9InBhdGgxMDA2NzAiIGlua3NjYXBlOmNvbm5lY3Rvci1jdXJ2YXR1cmU9IjAiIHN0eWxlPSJmaWxsOiM2RDQ4Mjk7IiBkPSJNMzMuNjYsMTkxLjQ5Yy0zLTEuNS02LjMtMi4yOC05LjY2LTIuMjIgICAgIGMtMTMuMi0wLjEyLTI0LDEwLjU2LTI0LDIzLjc2djExLjg4QzE3Ljc2LDIyMi42OSwzMS44LDIwOC45NSwzMy42NiwxOTEuNDl6Ii8+JiN4YTsJCTwvZz4mI3hhOwkJPGcgaWQ9InNoYXBlNTYxMS0zNiIgdHJhbnNmb3JtPSJ0cmFuc2xhdGUoNDIuNDc4OSwtMTg5LjEyMSkiPiYjeGE7CQkJPHRpdGxlIGlkPSJ0aXRsZTEwMDY3MyI+U2hlZXQuNTYxMTwvdGl0bGU+JiN4YTsJCQk8cGF0aCBpZD0icGF0aDEwMDY3NSIgaW5rc2NhcGU6Y29ubmVjdG9yLWN1cnZhdHVyZT0iMCIgc3R5bGU9ImZpbGw6IzZENDgyOTsiIGQ9Ik0wLDE5MS40OWMzLjA2LTEuNTYsNi40OC0yLjI4LDkuOTYtMi4yMiAgICAgYzEzLjA4LDAsMjMuNywxMC42MiwyMy43LDIzLjc2djExLjg4QzE2LjE0LDIyMi43NSwyLjI4LDIwOS4wMSwwLDE5MS40OXoiLz4mI3hhOwkJPC9nPiYjeGE7CQk8ZyBpZD0ic2hhcGU1NjEyLTM4IiB0cmFuc2Zvcm09InRyYW5zbGF0ZSg0Mi4xMTg5LC0xNjYuMDgxKSI+JiN4YTsJCQk8dGl0bGUgaWQ9InRpdGxlMTAwNjc4Ij5TaGVldC41NjEyPC90aXRsZT4mI3hhOwkJCTxwYXRoIGlkPSJwYXRoMTAwNjgwIiBpbmtzY2FwZTpjb25uZWN0b3ItY3VydmF0dXJlPSIwIiBzdHlsZT0iZmlsbDojRkZGRkZGOyIgZD0iTTAsMjE5LjkzYzIuNDYsMy4yNCw2LjMsNS4xLDEwLjMyLDQuOTggICAgIGMzLjk2LDAuMDYsNy42OC0xLjgsMTAuMDItNC45OEgweiIvPiYjeGE7CQk8L2c+JiN4YTsJCTxnIGlkPSJzaGFwZTU2MTMtNDAiIHRyYW5zZm9ybT0idHJhbnNsYXRlKDQ5LjAxODcsLTE3NS4zODEpIj4mI3hhOwkJCTx0aXRsZSBpZD0idGl0bGUxMDA2ODMiPlNoZWV0LjU2MTM8L3RpdGxlPiYjeGE7CQkJPHBhdGggaWQ9InBhdGgxMDA2ODUiIGlua3NjYXBlOmNvbm5lY3Rvci1jdXJ2YXR1cmU9IjAiIHN0eWxlPSJmaWxsOiNDNDk5NzA7IiBkPSJNMCwyMjMuMzVjMC44NCwwLjk2LDIuMSwxLjU2LDMuNDIsMS41NiAgICAgYzEuMjYsMCwyLjQtMC42LDMuMTItMS41NkgweiIvPiYjeGE7CQk8L2c+JiN4YTsJCTxnIGlkPSJzaGFwZTU2MTQtNDIiIHRyYW5zZm9ybT0idHJhbnNsYXRlKDM5LjU4MzksLTE4NS4xMDEpIj4mI3hhOwkJCTx0aXRsZSBpZD0idGl0bGUxMDA2ODgiPlNoZWV0LjU2MTQ8L3RpdGxlPiYjeGE7CQkJPHBhdGggaWQ9InBhdGgxMDA2OTAiIGlua3NjYXBlOmNvbm5lY3Rvci1jdXJ2YXR1cmU9IjAiIHN0eWxlPSJmaWxsOiMzMzMzMzM7IiBkPSJNMy40MywyMjMuMzVjLTAuMDYsMC45Ni0wLjksMS42Mi0xLjg2LDEuNTYgICAgIGMtMi4wOSwwLTIuMDktMy4xMiwwLTMuMTJDMi41MywyMjEuNzMsMy4zNywyMjIuMzksMy40MywyMjMuMzV6Ii8+JiN4YTsJCTwvZz4mI3hhOwkJPGcgaWQ9InNoYXBlNTYxNS00NCIgdHJhbnNmb3JtPSJ0cmFuc2xhdGUoNjEuNzgzMywtMTg1LjEwMSkiPiYjeGE7CQkJPHRpdGxlIGlkPSJ0aXRsZTEwMDY5MyI+U2hlZXQuNTYxNTwvdGl0bGU+JiN4YTsJCQk8cGF0aCBpZD0icGF0aDEwMDY5NSIgaW5rc2NhcGU6Y29ubmVjdG9yLWN1cnZhdHVyZT0iMCIgc3R5bGU9ImZpbGw6IzMzMzMzMzsiIGQ9Ik0zLjQzLDIyMy4zNWMtMC4xMiwwLjk2LTAuOTYsMS42Mi0xLjg2LDEuNTYgICAgIGMtMi4wOSwwLTIuMDktMy4xMiwwLTMuMTJDMi40NywyMjEuNzMsMy4zMSwyMjIuMzksMy40MywyMjMuMzV6Ii8+JiN4YTsJCTwvZz4mI3hhOwkJPGcgaWQ9InNoYXBlNTYxNi00NiIgdHJhbnNmb3JtPSJ0cmFuc2xhdGUoNDYuNDk4NywtODYuNzYwNykiPiYjeGE7CQkJPHRpdGxlIGlkPSJ0aXRsZTEwMDY5OCI+U2hlZXQuNTYxNjwvdGl0bGU+JiN4YTsJCQk8cGF0aCBpZD0icGF0aDEwMDcwMCIgaW5rc2NhcGU6Y29ubmVjdG9yLWN1cnZhdHVyZT0iMCIgc3R5bGU9ImZpbGw6I0ZGRkZGRjsiIGQ9Ik0wLDIwNS45NWgxMS41MnYxOC45NkgwVjIwNS45NXoiLz4mI3hhOwkJPC9nPiYjeGE7CQk8ZyBpZD0ic2hhcGU1NjE3LTQ4IiB0cmFuc2Zvcm09InRyYW5zbGF0ZSg0My4xMzg4LC0xMDUuMzYxKSI+JiN4YTsJCQk8dGl0bGUgaWQ9InRpdGxlMTAwNzAzIj5TaGVldC41NjE3PC90aXRsZT4mI3hhOwkJCSYjeGE7CQkJCTxwYXRoIGlkPSJwYXRoMTAwNzA1IiBpbmtzY2FwZTpjb25uZWN0b3ItY3VydmF0dXJlPSIwIiBzdHlsZT0iZmlsbDpub25lO3N0cm9rZTojRkZGRkZGO3N0cm9rZS13aWR0aDowLjc4O3N0cm9rZS1saW5lY2FwOnJvdW5kO3N0cm9rZS1saW5lam9pbjpyb3VuZDtzdHJva2UtbWl0ZXJsaW1pdDozOyIgZD0iICAgICBNMy45LDIyNC45MUwwLDE4Ny41OSIvPiYjeGE7CQk8L2c+JiN4YTsJCTxnIGlkPSJzaGFwZTU2MTgtNTEiIHRyYW5zZm9ybT0idHJhbnNsYXRlKDU3LjUzODQsLTEwNS40ODEpIj4mI3hhOwkJCTx0aXRsZSBpZD0idGl0bGUxMDA3MDgiPlNoZWV0LjU2MTg8L3RpdGxlPiYjeGE7CQkJJiN4YTsJCQkJPHBhdGggaWQ9InBhdGgxMDA3MTAiIGlua3NjYXBlOmNvbm5lY3Rvci1jdXJ2YXR1cmU9IjAiIHN0eWxlPSJmaWxsOm5vbmU7c3Ryb2tlOiNGRkZGRkY7c3Ryb2tlLXdpZHRoOjAuNzg7c3Ryb2tlLWxpbmVjYXA6cm91bmQ7c3Ryb2tlLWxpbmVqb2luOnJvdW5kO3N0cm9rZS1taXRlcmxpbWl0OjM7IiBkPSIgICAgIE0wLDIyNC45MWwzLjg0LTM3LjIiLz4mI3hhOwkJPC9nPiYjeGE7CQk8ZyBpZD0ic2hhcGU1NjE5LTU0IiB0cmFuc2Zvcm09InRyYW5zbGF0ZSg0OC42NTg3LC05Ni40ODA3KSI+JiN4YTsJCQk8dGl0bGUgaWQ9InRpdGxlMTAwNzEzIj5TaGVldC41NjE5PC90aXRsZT4mI3hhOwkJCTxwYXRoIGlkPSJwYXRoMTAwNzE1IiBpbmtzY2FwZTpjb25uZWN0b3ItY3VydmF0dXJlPSIwIiBzdHlsZT0iZmlsbDojRjA1MTI1OyIgZD0iTTAsMjIxLjQ5aDMuNDJ2My40MkgwVjIyMS40OXoiLz4mI3hhOwkJPC9nPiYjeGE7CQk8ZyBpZD0ic2hhcGU1NjIwLTU2IiB0cmFuc2Zvcm09InRyYW5zbGF0ZSg1Mi40OTg2LC05Ni40ODA3KSI+JiN4YTsJCQk8dGl0bGUgaWQ9InRpdGxlMTAwNzE4Ij5TaGVldC41NjIwPC90aXRsZT4mI3hhOwkJCTxwYXRoIGlkPSJwYXRoMTAwNzIwIiBpbmtzY2FwZTpjb25uZWN0b3ItY3VydmF0dXJlPSIwIiBzdHlsZT0iZmlsbDojN0ZCQjQyOyIgZD0iTTAsMjIxLjQ5aDMuNDJ2My40MkgwVjIyMS40OXoiLz4mI3hhOwkJPC9nPiYjeGE7CQk8ZyBpZD0ic2hhcGU1NjIxLTU4IiB0cmFuc2Zvcm09InRyYW5zbGF0ZSg1Mi40OTg2LC05Mi42NDA3KSI+JiN4YTsJCQk8dGl0bGUgaWQ9InRpdGxlMTAwNzIzIj5TaGVldC41NjIxPC90aXRsZT4mI3hhOwkJCTxwYXRoIGlkPSJwYXRoMTAwNzI1IiBpbmtzY2FwZTpjb25uZWN0b3ItY3VydmF0dXJlPSIwIiBzdHlsZT0iZmlsbDojRkRCODEzOyIgZD0iTTAsMjIxLjQ5aDMuNDJ2My40MkgwVjIyMS40OXoiLz4mI3hhOwkJPC9nPiYjeGE7CQk8ZyBpZD0ic2hhcGU1NjIyLTYwIiB0cmFuc2Zvcm09InRyYW5zbGF0ZSg0OC42NTg3LC05Mi42NDA3KSI+JiN4YTsJCQk8dGl0bGUgaWQ9InRpdGxlMTAwNzI4Ij5TaGVldC41NjIyPC90aXRsZT4mI3hhOwkJCTxwYXRoIGlkPSJwYXRoMTAwNzMwIiBpbmtzY2FwZTpjb25uZWN0b3ItY3VydmF0dXJlPSIwIiBzdHlsZT0iZmlsbDojMzJBMERBOyIgZD0iTTAsMjIxLjQ5aDMuNDJ2My40MkgwVjIyMS40OXoiLz4mI3hhOwkJPC9nPiYjeGE7CTwvZz4mI3hhOzwvZz4mI3hhOzwvc3ZnPg==;" vertex="1" parent="1">
          <mxGeometry x="70" y="300.5" width="50.35" height="59" as="geometry" />
        </mxCell>
        <mxCell id="Y6577xWDLrJWWgxM1nmn-27" value="Integration Server&#xa;(Cron Jobs)" style="shape=image;verticalLabelPosition=bottom;labelBackgroundColor=none;verticalAlign=top;aspect=fixed;imageAspect=0;image=data:image/svg+xml,PHN2ZyB4bWxuczpkYz0iaHR0cDovL3B1cmwub3JnL2RjL2VsZW1lbnRzLzEuMS8iIHhtbG5zOmNjPSJodHRwOi8vY3JlYXRpdmVjb21tb25zLm9yZy9ucyMiIHhtbG5zOnJkZj0iaHR0cDovL3d3dy53My5vcmcvMTk5OS8wMi8yMi1yZGYtc3ludGF4LW5zIyIgeG1sbnM6c3ZnPSJodHRwOi8vd3d3LnczLm9yZy8yMDAwL3N2ZyIgeG1sbnM9Imh0dHA6Ly93d3cudzMub3JnLzIwMDAvc3ZnIiB4bWxuczpzb2RpcG9kaT0iaHR0cDovL3NvZGlwb2RpLnNvdXJjZWZvcmdlLm5ldC9EVEQvc29kaXBvZGktMC5kdGQiIHhtbG5zOmlua3NjYXBlPSJodHRwOi8vd3d3Lmlua3NjYXBlLm9yZy9uYW1lc3BhY2VzL2lua3NjYXBlIiB2ZXJzaW9uPSIxLjEiIGlkPSJzdmc2MTAxMSIgaW5rc2NhcGU6dmVyc2lvbj0iMC45Mi4zICgyNDA1NTQ2LCAyMDE4LTAzLTExKSIgc29kaXBvZGk6ZG9jbmFtZT0iYXp1cmVfcG9ydGFsX3ZpcnR1YWxfbWFjaGluZXMuc3ZnIiB4PSIwcHgiIHk9IjBweCIgdmlld0JveD0iMCAwIDU3LjY0IDUzLjIwMDAwMiIgeG1sOnNwYWNlPSJwcmVzZXJ2ZSIgd2lkdGg9IjU3LjYzOTk5OSIgaGVpZ2h0PSI1My4yMDAwMDEiPjxtZXRhZGF0YSBpZD0ibWV0YWRhdGExMDk5MCI+PHJkZjpSREY+PGNjOldvcmsgcmRmOmFib3V0PSIiPjxkYzpmb3JtYXQ+aW1hZ2Uvc3ZnK3htbDwvZGM6Zm9ybWF0PjxkYzp0eXBlIHJkZjpyZXNvdXJjZT0iaHR0cDovL3B1cmwub3JnL2RjL2RjbWl0eXBlL1N0aWxsSW1hZ2UiLz48ZGM6dGl0bGUvPjwvY2M6V29yaz48L3JkZjpSREY+PC9tZXRhZGF0YT48ZGVmcyBpZD0iZGVmczEwOTg4Ii8+JiN4YTs8ZmlsdGVyIGlkPSJmaWx0ZXJfMiI+JiN4YTsJPGZlR2F1c3NpYW5CbHVyIGlkPSJmZUdhdXNzaWFuQmx1cjYwOTIwIiBzdGREZXZpYXRpb249IjIiLz4mI3hhOzwvZmlsdGVyPiYjeGE7PHNvZGlwb2RpOm5hbWVkdmlldyBib3JkZXJjb2xvcj0iIzY2NjY2NiIgYm9yZGVyb3BhY2l0eT0iMSIgZml0LW1hcmdpbi1ib3R0b209IjAiIGZpdC1tYXJnaW4tbGVmdD0iMCIgZml0LW1hcmdpbi1yaWdodD0iMCIgZml0LW1hcmdpbi10b3A9IjAiIGdyaWR0b2xlcmFuY2U9IjEwIiBndWlkZXRvbGVyYW5jZT0iMTAiIGlkPSJuYW1lZHZpZXc2MTAxMyIgaW5rc2NhcGU6Y3VycmVudC1sYXllcj0ic3ZnNjEwMTEiIGlua3NjYXBlOmN4PSItMzMuMTQzMzAzIiBpbmtzY2FwZTpjeT0iMjQuNjk2NTQ0IiBpbmtzY2FwZTpwYWdlb3BhY2l0eT0iMCIgaW5rc2NhcGU6cGFnZXNoYWRvdz0iMiIgaW5rc2NhcGU6d2luZG93LWhlaWdodD0iMTAxNyIgaW5rc2NhcGU6d2luZG93LW1heGltaXplZD0iMSIgaW5rc2NhcGU6d2luZG93LXdpZHRoPSIxOTIwIiBpbmtzY2FwZTp3aW5kb3cteD0iLTgiIGlua3NjYXBlOndpbmRvdy15PSItOCIgaW5rc2NhcGU6em9vbT0iNS45MTg3NzA5IiBvYmplY3R0b2xlcmFuY2U9IjEwIiBwYWdlY29sb3I9IiNmZmZmZmYiIHNob3dncmlkPSJmYWxzZSI+JiN4YTsJPC9zb2RpcG9kaTpuYW1lZHZpZXc+JiN4YTsmI3hhOzxwYXRoIGlkPSJwYXRoNjA5MzMiIGlua3NjYXBlOmNvbm5lY3Rvci1jdXJ2YXR1cmU9IjAiIHN0eWxlPSJmaWxsOiM3YTdhN2EiIGQ9Ik0gMzcuMzksNDIuMTIgSCAzNi4wMSAyMi40MiAyMS43MSBjIDEuODgsNi42NSAtMC42NSw3LjYgLTExLjczLDcuNiB2IDMuNDggaCAxNC4xIDEwLjI5IDEzLjMgdiAtMy40OCBjIC0xMS4wOCwwIC0xMi4xNywtMC45NSAtMTAuMjgsLTcuNiB6Ii8+JiN4YTsmI3hhOzxwYXRoIGlkPSJwYXRoNjA5NDEiIGlua3NjYXBlOmNvbm5lY3Rvci1jdXJ2YXR1cmU9IjAiIHN0eWxlPSJmaWxsOiNhMGExYTIiIGQ9Ik0gNTQuMTYsMCBIIDMuMTMgQyAxLjQsMCAwLDEuNTUgMCwzLjI4IHYgMzUuNTkgYyAwLDEuNzIgMS40LDMuMjUgMy4xMywzLjI1IGggNTEuMDMgYyAxLjczLDAgMy40OCwtMS41MyAzLjQ4LC0zLjI1IFYgMy4yOCBDIDU3LjY0LDEuNTUgNTUuODksMCA1NC4xNiwwIFoiLz4mI3hhOyYjeGE7PHBhdGggaWQ9InBhdGg2MDk0OSIgaW5rc2NhcGU6Y29ubmVjdG9yLWN1cnZhdHVyZT0iMCIgc3R5bGU9ImZpbGw6I2ZmZmZmZjtmaWxsLW9wYWNpdHk6MC4yIiBkPSJNIDU0LjIsMCBDIDU0LjE5LDAgNTQuMTcsMCA1NC4xNiwwIEggMy4xMyBDIDEuNCwwIDAsMS41NSAwLDMuMjggdiAzNS41OSBjIDAsMS43MiAxLjQsMy4yNSAzLjEzLDMuMjUgaCAxLjIyIHoiLz4mI3hhOyYjeGE7PHJlY3QgaWQ9InJlY3Q2MDk1NyIgeD0iNC4zNjk5OTUxIiB5PSI0LjQ0MDAwMDEiIHN0eWxlPSJmaWxsOiM1OWI0ZDkiIHdpZHRoPSI0OC43Nzk5OTkiIGhlaWdodD0iMzMuMjUiLz4mI3hhOyYjeGE7JiN4YTsmI3hhOzxyZWN0IGlkPSJyZWN0NjA5NzMiIHg9IjkuOTc5OTk1NyIgeT0iNDkuNzIwMDAxIiBzdHlsZT0iZmlsbDojYTBhMWEyIiB3aWR0aD0iMzcuNjg5OTk5IiBoZWlnaHQ9IjMuNDgiLz4mI3hhOyYjeGE7PHBhdGggaWQ9InBhdGg2MDk4MSIgaW5rc2NhcGU6Y29ubmVjdG9yLWN1cnZhdHVyZT0iMCIgc3R5bGU9ImZpbGw6I2I4ZDQzMiIgZD0ibSAyOS40MiwyLjQyIGMgMCwwLjQ1IC0wLjM3LDAuODEgLTAuODIsMC44MSAtMC40NiwwIC0wLjgyLC0wLjM2IC0wLjgyLC0wLjgxIDAsLTAuNDYgMC4zNiwtMC44MiAwLjgyLC0wLjgyIDAuNDUsMCAwLjgyLDAuMzYgMC44MiwwLjgyIHoiLz4mI3hhOyYjeGE7PHBhdGggaWQ9InBhdGg2MDk4OSIgaW5rc2NhcGU6Y29ubmVjdG9yLWN1cnZhdHVyZT0iMCIgc3R5bGU9ImZpbGw6I2ZmZmZmZiIgZD0ibSAyOS40NSwyMC4wNSBjIC0wLjA2LDAgLTAuMTEsLTAuMDEgLTAuMTYsLTAuMDQgTCAxOS4xNCwxNC4xNSBjIC0wLjA5LC0wLjA1IC0wLjE1LC0wLjE2IC0wLjE1LC0wLjI2IDAsLTAuMTEgMC4wNiwtMC4yMiAwLjE1LC0wLjI3IEwgMjkuMjMsNy44IGMgMC4xLC0wLjA1IDAuMjEsLTAuMDUgMC4zLDAgbCAxMC4xNiw1Ljg2IGMgMC4wOSwwLjA1IDAuMTUsMC4xNiAwLjE1LDAuMjcgMCwwLjExIC0wLjA2LDAuMjEgLTAuMTUsMC4yNiBMIDI5LjYsMjAuMDEgYyAtMC4wNSwwLjAzIC0wLjEsMC4wNCAtMC4xNSwwLjA0IHoiLz4mI3hhOyYjeGE7PHBhdGggaWQ9InBhdGg2MDk5NyIgaW5rc2NhcGU6Y29ubmVjdG9yLWN1cnZhdHVyZT0iMCIgc3R5bGU9ImZpbGw6I2ZmZmZmZjtmaWxsLW9wYWNpdHk6MC43IiBkPSJtIDI3Ljk5LDM0LjI5IGMgLTAuMDYsMCAtMC4xMSwtMC4wMSAtMC4xNSwtMC4wNCBMIDE3LjcyLDI4LjQxIGMgLTAuMSwtMC4wNSAtMC4xNiwtMC4xNSAtMC4xNiwtMC4yNiBWIDE2LjQzIGMgMCwtMC4xMSAwLjA2LC0wLjIyIDAuMTYsLTAuMjcgMC4wOSwtMC4wNiAwLjIxLC0wLjA2IDAuMzEsMCBMIDI4LjE0LDIyIGMgMC4wOSwwLjA2IDAuMTUsMC4xNiAwLjE1LDAuMjcgdiAxMS43MiBjIDAsMC4xMSAtMC4wNiwwLjIxIC0wLjE1LDAuMjYgLTAuMDUsMC4wMyAtMC4xLDAuMDQgLTAuMTUsMC4wNCB6Ii8+JiN4YTsmI3hhOzxwYXRoIGlkPSJwYXRoNjEwMDUiIGlua3NjYXBlOmNvbm5lY3Rvci1jdXJ2YXR1cmU9IjAiIHN0eWxlPSJmaWxsOiNmZmZmZmY7ZmlsbC1vcGFjaXR5OjAuNCIgZD0iTSAzMC44NiwzNC4yOSBDIDMwLjgsMzQuMjkgMzAuNzUsMzQuMjggMzAuNywzNC4yNSAzMC42MSwzNC4yIDMwLjU1LDM0LjEgMzAuNTUsMzMuOTkgViAyMi4zNCBjIDAsLTAuMTEgMC4wNiwtMC4yMSAwLjE1LC0wLjI3IGwgMTAuMTIsLTUuODMgYyAwLjA5LC0wLjA2IDAuMjEsLTAuMDYgMC4zLDAgMC4xLDAuMDUgMC4xNiwwLjE1IDAuMTYsMC4yNiB2IDExLjY1IGMgMCwwLjExIC0wLjA2LDAuMjEgLTAuMTYsMC4yNiBsIC0xMC4xMSw1Ljg0IGMgLTAuMDQsMC4wMyAtMC4xLDAuMDQgLTAuMTUsMC4wNCB6Ii8+JiN4YTs8L3N2Zz4=;" vertex="1" parent="1">
          <mxGeometry x="532.0000000000001" y="150" width="58" height="53" as="geometry" />
        </mxCell>
        <mxCell id="Y6577xWDLrJWWgxM1nmn-31" style="edgeStyle=orthogonalEdgeStyle;rounded=0;orthogonalLoop=1;jettySize=auto;html=1;exitX=0;exitY=0.5;exitDx=0;exitDy=0;startArrow=classic;startFill=1;endArrow=none;endFill=0;" edge="1" parent="1" source="Y6577xWDLrJWWgxM1nmn-28" target="Y6577xWDLrJWWgxM1nmn-27">
          <mxGeometry relative="1" as="geometry" />
        </mxCell>
        <mxCell id="Y6577xWDLrJWWgxM1nmn-28" value="Azure Functions" style="shape=image;verticalLabelPosition=bottom;labelBackgroundColor=none;verticalAlign=top;aspect=fixed;imageAspect=0;image=data:image/svg+xml,PHN2ZyB4bWxuczpjYz0iaHR0cDovL2NyZWF0aXZlY29tbW9ucy5vcmcvbnMjIiB4bWxuczpkYz0iaHR0cDovL3B1cmwub3JnL2RjL2VsZW1lbnRzLzEuMS8iIHhtbG5zOmlua3NjYXBlPSJodHRwOi8vd3d3Lmlua3NjYXBlLm9yZy9uYW1lc3BhY2VzL2lua3NjYXBlIiB4bWxuczpyZGY9Imh0dHA6Ly93d3cudzMub3JnLzE5OTkvMDIvMjItcmRmLXN5bnRheC1ucyMiIHhtbG5zOnNvZGlwb2RpPSJodHRwOi8vc29kaXBvZGkuc291cmNlZm9yZ2UubmV0L0RURC9zb2RpcG9kaS0wLmR0ZCIgeG1sbnM6c3ZnPSJodHRwOi8vd3d3LnczLm9yZy8yMDAwL3N2ZyIgeG1sbnM9Imh0dHA6Ly93d3cudzMub3JnLzIwMDAvc3ZnIiB4bWxuczp4bGluaz0iaHR0cDovL3d3dy53My5vcmcvMTk5OS94bGluayIgdmVyc2lvbj0iMS4xIiBpZD0ic3ZnNTg1MzciIGlua3NjYXBlOnZlcnNpb249IjAuOTIuMyAoMjQwNTU0NiwgMjAxOC0wMy0xMSkiIHNvZGlwb2RpOmRvY25hbWU9ImF6dXJlX2Z1bmN0aW9ucy5zdmciIHg9IjBweCIgeT0iMHB4IiB2aWV3Qm94PSIwIDAgNTcuMzEgNTIuODEiIHN0eWxlPSJlbmFibGUtYmFja2dyb3VuZDpuZXcgMCAwIDU3LjMxIDUyLjgxOyIgeG1sOnNwYWNlPSJwcmVzZXJ2ZSI+JiN4YTs8c29kaXBvZGk6bmFtZWR2aWV3IGJvcmRlcmNvbG9yPSIjNjY2NjY2IiBib3JkZXJvcGFjaXR5PSIxIiBmaXQtbWFyZ2luLWJvdHRvbT0iMCIgZml0LW1hcmdpbi1sZWZ0PSIwIiBmaXQtbWFyZ2luLXJpZ2h0PSIwIiBmaXQtbWFyZ2luLXRvcD0iMCIgZ3JpZHRvbGVyYW5jZT0iMTAiIGd1aWRldG9sZXJhbmNlPSIxMCIgaWQ9Im5hbWVkdmlldzU4NTM5IiBpbmtzY2FwZTpjdXJyZW50LWxheWVyPSJzdmc1ODUzNyIgaW5rc2NhcGU6Y3g9IjM5LjQ3MTQ0MiIgaW5rc2NhcGU6Y3k9IjI2LjM0NTIxNyIgaW5rc2NhcGU6cGFnZW9wYWNpdHk9IjAiIGlua3NjYXBlOnBhZ2VzaGFkb3c9IjIiIGlua3NjYXBlOndpbmRvdy1oZWlnaHQ9IjEwMTciIGlua3NjYXBlOndpbmRvdy1tYXhpbWl6ZWQ9IjEiIGlua3NjYXBlOndpbmRvdy13aWR0aD0iMTkyMCIgaW5rc2NhcGU6d2luZG93LXg9Ii04IiBpbmtzY2FwZTp3aW5kb3cteT0iLTgiIGlua3NjYXBlOnpvb209IjYuMzkxNjgyOCIgb2JqZWN0dG9sZXJhbmNlPSIxMCIgcGFnZWNvbG9yPSIjZmZmZmZmIiBzaG93Z3JpZD0iZmFsc2UiPiYjeGE7CTwvc29kaXBvZGk6bmFtZWR2aWV3PiYjeGE7PGcgaWQ9Imc1ODUzNSIgdHJhbnNmb3JtPSJ0cmFuc2xhdGUoLTkuNTYzNDE2MSwtOS41Njc2MDUyKSI+JiN4YTsJPHRpdGxlIGlkPSJ0aXRsZTU4NTEwIj5QYWdlLTE8L3RpdGxlPiYjeGE7CTxnIGlkPSJncm91cDQ0MzYtMSIgdHJhbnNmb3JtPSJ0cmFuc2xhdGUoOS4zOTU0MywtOS41NjI1KSI+JiN4YTsJCTx0aXRsZSBpZD0idGl0bGU1ODUxMiI+QXp1cmUgRnVuY3Rpb25zLjQzNzwvdGl0bGU+JiN4YTsJCTxnIGlkPSJzaGFwZTQ0MzctMiIgdHJhbnNmb3JtPSJ0cmFuc2xhdGUoMzkuMjA1OSwtMTAuMjkzOCkiPiYjeGE7CQkJPHRpdGxlIGlkPSJ0aXRsZTU4NTE0Ij5TaGVldC40NDM3PC90aXRsZT4mI3hhOwkJCTxwYXRoIGlkPSJwYXRoNTg1MTYiIGlua3NjYXBlOmNvbm5lY3Rvci1jdXJ2YXR1cmU9IjAiIHN0eWxlPSJmaWxsOiMzOTk5QzY7IiBkPSJNMTcuOSw1Ni4xOGMwLjU0LTAuNTMsMC40NS0xLjUyLDAtMi4wNiAgICAgbC0yLjc3LTIuNzdsLTEyLjM2LTEyYy0wLjUzLTAuNTMtMS4zNC0wLjUzLTEuOTYsMGMtMC41NCwwLjU0LTAuNzIsMS41MywwLDIuMDZsMTIuOTcsMTIuNzFjMC41NCwwLjU0LDAuNTQsMS41MywwLDIuMDYgICAgIEwwLjU0LDY5LjM0QzAsNjkuODgsMCw3MC44NiwwLjU0LDcxLjRjMC41MywwLjU0LDEuNTIsMC40NSwxLjk3LDBsMTIuMjYtMTIuMTdjMCwwLDAsMCwwLjA5LTAuMDlMMTcuOSw1Ni4xOHoiLz4mI3hhOwkJPC9nPiYjeGE7CQk8ZyBpZD0ic2hhcGU0NDM4LTQiIHRyYW5zZm9ybT0idHJhbnNsYXRlKDAsLTEwLjI5MzgpIj4mI3hhOwkJCTx0aXRsZSBpZD0idGl0bGU1ODUxOSI+U2hlZXQuNDQzODwvdGl0bGU+JiN4YTsJCQk8cGF0aCBpZD0icGF0aDU4NTIxIiBpbmtzY2FwZTpjb25uZWN0b3ItY3VydmF0dXJlPSIwIiBzdHlsZT0iZmlsbDojMzk5OUM2OyIgZD0iTTAuNTQsNTYuMThjLTAuNTQtMC41My0wLjQ1LTEuNTIsMC0yLjA2ICAgICBsMi43Ny0yLjc3bDEyLjM1LTEyYzAuNTQtMC41MywxLjM1LTAuNTMsMS45NywwYzAuNTQsMC41NCwwLjcyLDEuNTMsMCwyLjA2TDQuOTIsNTQuMTJjLTAuNTMsMC41NC0wLjUzLDEuNTMsMCwyLjA2TDE3LjksNjkuMzQgICAgIGMwLjU0LDAuNTQsMC41NCwxLjUyLDAsMi4wNmMtMC41MywwLjU0LTEuNTIsMC40NS0xLjk3LDBMMy40LDU5LjQxYzAsMCwwLDAtMC4wOS0wLjA5TDAuNTQsNTYuMTh6Ii8+JiN4YTsJCTwvZz4mI3hhOwkJPGcgaWQ9InNoYXBlNDQzOS02IiB0cmFuc2Zvcm09InRyYW5zbGF0ZSgxNS45MzMpIj4mI3hhOwkJCTx0aXRsZSBpZD0idGl0bGU1ODUyNCI+U2hlZXQuNDQzOTwvdGl0bGU+JiN4YTsJCQk8cGF0aCBpZD0icGF0aDU4NTI2IiBpbmtzY2FwZTpjb25uZWN0b3ItY3VydmF0dXJlPSIwIiBzdHlsZT0iZmlsbDojRkNEMTE2OyIgZD0iTTI2Ljg1LDE5LjEzSDkuNEwwLDQ1LjYybDExLjQ2LDAuMDlMMi41MSw3MS45NCAgICAgbDI0LjctMzVIMTUuMjJMMjYuODUsMTkuMTN6Ii8+JiN4YTsJCTwvZz4mI3hhOwkJPGcgaWQ9InNoYXBlNDQ0MC04IiB0cmFuc2Zvcm09InRyYW5zbGF0ZSgxOC40MzkzKSI+JiN4YTsJCQk8dGl0bGUgaWQ9InRpdGxlNTg1MjkiPlNoZWV0LjQ0NDA8L3RpdGxlPiYjeGE7CQkJPHBhdGggaWQ9InBhdGg1ODUzMSIgaW5rc2NhcGU6Y29ubmVjdG9yLWN1cnZhdHVyZT0iMCIgc3R5bGU9ImZpbGw6I0ZGOEMwMDtmaWxsLW9wYWNpdHk6MC4zOyIgZD0iTTEyLjcxLDM2Ljk0bDExLjY0LTE3LjgxICAgICBoLTkuMTNMNS41NSw0MS4xNGwxMS40NiwwLjA5TDAsNzEuOTRsMjQuNzEtMzVMMTIuNzEsMzYuOTR6Ii8+JiN4YTsJCTwvZz4mI3hhOwk8L2c+JiN4YTs8L2c+JiN4YTs8L3N2Zz4=;" vertex="1" parent="1">
          <mxGeometry x="870" y="150" width="57" height="53" as="geometry" />
        </mxCell>
        <mxCell id="Y6577xWDLrJWWgxM1nmn-38" style="edgeStyle=orthogonalEdgeStyle;rounded=0;orthogonalLoop=1;jettySize=auto;html=1;exitX=1;exitY=0.5;exitDx=0;exitDy=0;entryX=0;entryY=0.5;entryDx=0;entryDy=0;startArrow=none;startFill=0;endArrow=classic;endFill=1;" edge="1" parent="1" source="Y6577xWDLrJWWgxM1nmn-33" target="Y6577xWDLrJWWgxM1nmn-6">
          <mxGeometry relative="1" as="geometry" />
        </mxCell>
        <mxCell id="Y6577xWDLrJWWgxM1nmn-33" value="VETA&#xa;Edge Services" style="shape=image;verticalLabelPosition=bottom;labelBackgroundColor=none;verticalAlign=top;aspect=fixed;imageAspect=0;image=data:image/svg+xml,PHN2ZyB4bWxuczpjYz0iaHR0cDovL2NyZWF0aXZlY29tbW9ucy5vcmcvbnMjIiB4bWxuczpkYz0iaHR0cDovL3B1cmwub3JnL2RjL2VsZW1lbnRzLzEuMS8iIHhtbG5zOmlua3NjYXBlPSJodHRwOi8vd3d3Lmlua3NjYXBlLm9yZy9uYW1lc3BhY2VzL2lua3NjYXBlIiB4bWxuczpyZGY9Imh0dHA6Ly93d3cudzMub3JnLzE5OTkvMDIvMjItcmRmLXN5bnRheC1ucyMiIHhtbG5zOnNvZGlwb2RpPSJodHRwOi8vc29kaXBvZGkuc291cmNlZm9yZ2UubmV0L0RURC9zb2RpcG9kaS0wLmR0ZCIgeG1sbnM6c3ZnPSJodHRwOi8vd3d3LnczLm9yZy8yMDAwL3N2ZyIgeG1sbnM9Imh0dHA6Ly93d3cudzMub3JnLzIwMDAvc3ZnIiB4bWxuczp4bGluaz0iaHR0cDovL3d3dy53My5vcmcvMTk5OS94bGluayIgdmVyc2lvbj0iMS4xIiBpZD0ic3ZnNzg2MTIiIGlua3NjYXBlOnZlcnNpb249IjAuOTIuMyAoMjQwNTU0NiwgMjAxOC0wMy0xMSkiIHNvZGlwb2RpOmRvY25hbWU9ImRpYWdub3N0aWNzLnN2ZyIgeD0iMHB4IiB5PSIwcHgiIHZpZXdCb3g9IjAgMCAyMC44NiAyNC4wNSIgc3R5bGU9ImVuYWJsZS1iYWNrZ3JvdW5kOm5ldyAwIDAgMjAuODYgMjQuMDU7IiB4bWw6c3BhY2U9InByZXNlcnZlIj4mI3hhOzxzb2RpcG9kaTpuYW1lZHZpZXcgYm9yZGVyY29sb3I9IiM2NjY2NjYiIGJvcmRlcm9wYWNpdHk9IjEiIGZpdC1tYXJnaW4tYm90dG9tPSIwIiBmaXQtbWFyZ2luLWxlZnQ9IjAiIGZpdC1tYXJnaW4tcmlnaHQ9IjAiIGZpdC1tYXJnaW4tdG9wPSIwIiBncmlkdG9sZXJhbmNlPSIxMCIgZ3VpZGV0b2xlcmFuY2U9IjEwIiBpZD0ibmFtZWR2aWV3Nzg2MTQiIGlua3NjYXBlOmN1cnJlbnQtbGF5ZXI9InN2Zzc4NjEyIiBpbmtzY2FwZTpjeD0iMTUuMDA4MzciIGlua3NjYXBlOmN5PSI4LjUzNjgxOCIgaW5rc2NhcGU6cGFnZW9wYWNpdHk9IjAiIGlua3NjYXBlOnBhZ2VzaGFkb3c9IjIiIGlua3NjYXBlOndpbmRvdy1oZWlnaHQ9IjEwMTciIGlua3NjYXBlOndpbmRvdy1tYXhpbWl6ZWQ9IjEiIGlua3NjYXBlOndpbmRvdy13aWR0aD0iMTkyMCIgaW5rc2NhcGU6d2luZG93LXg9Ii04IiBpbmtzY2FwZTp3aW5kb3cteT0iLTgiIGlua3NjYXBlOnpvb209IjEzLjUyMTY1OCIgb2JqZWN0dG9sZXJhbmNlPSIxMCIgcGFnZWNvbG9yPSIjZmZmZmZmIiBzaG93Z3JpZD0iZmFsc2UiPiYjeGE7CTwvc29kaXBvZGk6bmFtZWR2aWV3PiYjeGE7PGcgaWQ9Imc3ODYxMCI+JiN4YTsJPHRpdGxlIGlkPSJ0aXRsZTc4NTY3Ij5QYWdlLTE8L3RpdGxlPiYjeGE7CTxnIGlkPSJncm91cDQ2NjktMSI+JiN4YTsJCTx0aXRsZSBpZD0idGl0bGU3ODU2OSI+RGlhZ25vc3RpY3M8L3RpdGxlPiYjeGE7CQk8ZyBpZD0ic2hhcGU0NjcwLTIiIHRyYW5zZm9ybT0idHJhbnNsYXRlKDEuMjAxMjIsLTAuMzI3NTA2KSI+JiN4YTsJCQk8dGl0bGUgaWQ9InRpdGxlNzg1NzEiPlNoZWV0LjQ2NzA8L3RpdGxlPiYjeGE7CQkJPHBhdGggaWQ9InBhdGg3ODU3MyIgaW5rc2NhcGU6Y29ubmVjdG9yLWN1cnZhdHVyZT0iMCIgc3R5bGU9ImZpbGw6I0YxRUJFNzsiIGQ9Ik0xLjE3LDEuNTNsMTcuNTIsMC4xNGwwLjIsMjEuNDFsLTEuMjMsMC42OSAgICAgbC0wLjYyLDAuMjdWMi45MUwwLDIuOThMMS4xNywxLjUzeiIvPiYjeGE7CQk8L2c+JiN4YTsJCTxnIGlkPSJzaGFwZTQ2NzEtNCI+JiN4YTsJCQk8dGl0bGUgaWQ9InRpdGxlNzg1NzYiPlNoZWV0LjQ2NzE8L3RpdGxlPiYjeGE7CQkJPHBhdGggaWQ9InBhdGg3ODU3OCIgaW5rc2NhcGU6Y29ubmVjdG9yLWN1cnZhdHVyZT0iMCIgc3R5bGU9ImZpbGw6IzdGQkEwMDsiIGQ9Ik0yLjQsMS4zN2wxNy4zNywwLjA4bC0wLjI4LDIxLjYyaDEuMyAgICAgYzAuMDMtNy42NywwLjA1LTE1LjMzLDAuMDctMjIuOTlMMS43MiwwTDAsMS45OWMwLjA4LDcuMSwwLjE0LDE0LjE5LDAuMjEsMjEuMjhjMC4yMywwLjIxLDAuMDMsMC42MSwzLjAzLDAuNzMgICAgIGMzLDAuMTIsOS4yMS0wLjA0LDE0Ljk4LDBjMC4wNy02Ljk4LDAuMDMtMTQuMzQsMC4xMS0yMS4zMkwxLjM4LDIuNTRMMi40LDEuMzd6Ii8+JiN4YTsJCTwvZz4mI3hhOwkJPGcgaWQ9Imdyb3VwNDY3Mi02IiB0cmFuc2Zvcm09InRyYW5zbGF0ZSgyLjg1NzQyLC04LjAyNTA1KSI+JiN4YTsJCQk8dGl0bGUgaWQ9InRpdGxlNzg1ODEiPlNoZWV0LjQ2NzI8L3RpdGxlPiYjeGE7CQkJPGcgaWQ9InNoYXBlNDY3My03IiB0cmFuc2Zvcm09InRyYW5zbGF0ZSgwLC0zLjgzNjExKSI+JiN4YTsJCQkJPHRpdGxlIGlkPSJ0aXRsZTc4NTgzIj5TaGVldC40NjczPC90aXRsZT4mI3hhOwkJCQk8cGF0aCBpZD0icGF0aDc4NTg1IiBpbmtzY2FwZTpjb25uZWN0b3ItY3VydmF0dXJlPSIwIiBzdHlsZT0iZmlsbDojRkZGRkZGOyIgZD0iTTAsMjIuNzV2MS4yOWgzLjc0di0xLjI5SDB6Ii8+JiN4YTsJCQk8L2c+JiN4YTsJCQk8ZyBpZD0ic2hhcGU0Njc0LTkiIHRyYW5zZm9ybT0idHJhbnNsYXRlKDkuNjAwNTcsLTMuODA4NTIpIj4mI3hhOwkJCQk8dGl0bGUgaWQ9InRpdGxlNzg1ODgiPlNoZWV0LjQ2NzQ8L3RpdGxlPiYjeGE7CQkJCTxwYXRoIGlkPSJwYXRoNzg1OTAiIGlua3NjYXBlOmNvbm5lY3Rvci1jdXJ2YXR1cmU9IjAiIHN0eWxlPSJmaWxsOiNGRkZGRkY7IiBkPSJNMCwyMi43NXYxLjI5aDMuNHYtMS4yOUgweiIvPiYjeGE7CQkJPC9nPiYjeGE7CQkJPGcgaWQ9InNoYXBlNDY3NS0xMSIgdHJhbnNmb3JtPSJ0cmFuc2xhdGUoMi42ODA1OCwtMy44NDkzMikiPiYjeGE7CQkJCTx0aXRsZSBpZD0idGl0bGU3ODU5MyI+U2hlZXQuNDY3NTwvdGl0bGU+JiN4YTsJCQkJPHBhdGggaWQ9InBhdGg3ODU5NSIgaW5rc2NhcGU6Y29ubmVjdG9yLWN1cnZhdHVyZT0iMCIgc3R5bGU9ImZpbGw6I0ZGRkZGRjsiIGQ9Ik0wLDIzLjRsMi40Mi00LjA5bDEuMDksMC42NWwtMi40Miw0LjA4TDAsMjMuNCAgICAgIHoiLz4mI3hhOwkJCTwvZz4mI3hhOwkJCTxnIGlkPSJzaGFwZTQ2NzYtMTMiIHRyYW5zZm9ybT0idHJhbnNsYXRlKDUuMDk2NDEpIj4mI3hhOwkJCQk8dGl0bGUgaWQ9InRpdGxlNzg1OTgiPlNoZWV0LjQ2NzY8L3RpdGxlPiYjeGE7CQkJCTxwYXRoIGlkPSJwYXRoNzg2MDAiIGlua3NjYXBlOmNvbm5lY3Rvci1jdXJ2YXR1cmU9IjAiIHN0eWxlPSJmaWxsOiNGRkZGRkY7IiBkPSJNMS44OSwyNC4wNEwwLDE1LjQ0bDEuMjQtMC4yN2wxLjg5LDguNiAgICAgIEwxLjg5LDI0LjA0eiIvPiYjeGE7CQkJPC9nPiYjeGE7CQkJPGcgaWQ9InNoYXBlNDY3Ny0xNSIgdHJhbnNmb3JtPSJ0cmFuc2xhdGUoNy4xMjk3OSwtMC4yNzYzMzUpIj4mI3hhOwkJCQk8dGl0bGUgaWQ9InRpdGxlNzg2MDMiPlNoZWV0LjQ2Nzc8L3RpdGxlPiYjeGE7CQkJCTxwYXRoIGlkPSJwYXRoNzg2MDUiIGlua3NjYXBlOmNvbm5lY3Rvci1jdXJ2YXR1cmU9IjAiIHN0eWxlPSJmaWxsOiNGRkZGRkY7IiBkPSJNMCwyMy40bDIuNDgtNC4xOGwxLjA5LDAuNjRsLTIuNDgsNC4xOEwwLDIzLjQgICAgICB6Ii8+JiN4YTsJCQk8L2c+JiN4YTsJCTwvZz4mI3hhOwk8L2c+JiN4YTs8L2c+JiN4YTs8L3N2Zz4=;" vertex="1" parent="1">
          <mxGeometry x="70" y="154.5" width="38.5" height="44" as="geometry" />
        </mxCell>
        <mxCell id="Y6577xWDLrJWWgxM1nmn-35" value="" style="shape=image;verticalLabelPosition=bottom;labelBackgroundColor=#ffffff;verticalAlign=top;aspect=fixed;imageAspect=0;image=data:image/svg+xml,PHN2ZyB4bWxuczpkYz0iaHR0cDovL3B1cmwub3JnL2RjL2VsZW1lbnRzLzEuMS8iIHhtbG5zOmNjPSJodHRwOi8vY3JlYXRpdmVjb21tb25zLm9yZy9ucyMiIHhtbG5zOnJkZj0iaHR0cDovL3d3dy53My5vcmcvMTk5OS8wMi8yMi1yZGYtc3ludGF4LW5zIyIgeG1sbnM6c3ZnPSJodHRwOi8vd3d3LnczLm9yZy8yMDAwL3N2ZyIgeG1sbnM9Imh0dHA6Ly93d3cudzMub3JnLzIwMDAvc3ZnIiB4bWxuczpzb2RpcG9kaT0iaHR0cDovL3NvZGlwb2RpLnNvdXJjZWZvcmdlLm5ldC9EVEQvc29kaXBvZGktMC5kdGQiIHhtbG5zOmlua3NjYXBlPSJodHRwOi8vd3d3Lmlua3NjYXBlLm9yZy9uYW1lc3BhY2VzL2lua3NjYXBlIiB2ZXJzaW9uPSIxLjEiIGlkPSJzdmc1MDMyOSIgaW5rc2NhcGU6dmVyc2lvbj0iMC45Mi4zICgyNDA1NTQ2LCAyMDE4LTAzLTExKSIgc29kaXBvZGk6ZG9jbmFtZT0iYXp1cmUuc3ZnIiB4PSIwcHgiIHk9IjBweCIgdmlld0JveD0iMCAwIDYyLjc2IDQ4LjQ4IiBzdHlsZT0iZW5hYmxlLWJhY2tncm91bmQ6bmV3IDAgMCA2Mi43NiA0OC40ODsiIHhtbDpzcGFjZT0icHJlc2VydmUiPjxtZXRhZGF0YSBpZD0ibWV0YWRhdGExNjgwNyI+PHJkZjpSREY+PGNjOldvcmsgcmRmOmFib3V0PSIiPjxkYzpmb3JtYXQ+aW1hZ2Uvc3ZnK3htbDwvZGM6Zm9ybWF0PjxkYzp0eXBlIHJkZjpyZXNvdXJjZT0iaHR0cDovL3B1cmwub3JnL2RjL2RjbWl0eXBlL1N0aWxsSW1hZ2UiLz48ZGM6dGl0bGUvPjwvY2M6V29yaz48L3JkZjpSREY+PC9tZXRhZGF0YT48ZGVmcyBpZD0iZGVmczE2ODA1Ii8+JiN4YTs8c29kaXBvZGk6bmFtZWR2aWV3IGJvcmRlcmNvbG9yPSIjNjY2NjY2IiBib3JkZXJvcGFjaXR5PSIxIiBmaXQtbWFyZ2luLWJvdHRvbT0iMCIgZml0LW1hcmdpbi1sZWZ0PSIwIiBmaXQtbWFyZ2luLXJpZ2h0PSIwIiBmaXQtbWFyZ2luLXRvcD0iMCIgZ3JpZHRvbGVyYW5jZT0iMTAiIGd1aWRldG9sZXJhbmNlPSIxMCIgaWQ9Im5hbWVkdmlldzUwMzMxIiBpbmtzY2FwZTpjdXJyZW50LWxheWVyPSJzdmc1MDMyOSIgaW5rc2NhcGU6Y3g9IjQ5LjM2MTQ4NiIgaW5rc2NhcGU6Y3k9IjEyLjA3MjQ5NyIgaW5rc2NhcGU6cGFnZW9wYWNpdHk9IjAiIGlua3NjYXBlOnBhZ2VzaGFkb3c9IjIiIGlua3NjYXBlOndpbmRvdy1oZWlnaHQ9IjEwMTciIGlua3NjYXBlOndpbmRvdy1tYXhpbWl6ZWQ9IjEiIGlua3NjYXBlOndpbmRvdy13aWR0aD0iMTkyMCIgaW5rc2NhcGU6d2luZG93LXg9Ii04IiBpbmtzY2FwZTp3aW5kb3cteT0iLTgiIGlua3NjYXBlOnpvb209IjUuOTY3MzU3NyIgb2JqZWN0dG9sZXJhbmNlPSIxMCIgcGFnZWNvbG9yPSIjZmZmZmZmIiBzaG93Z3JpZD0iZmFsc2UiPiYjeGE7CTwvc29kaXBvZGk6bmFtZWR2aWV3PiYjeGE7JiN4YTs8cGF0aCBpZD0icGF0aDUwMzI0IiBpbmtzY2FwZTpjb25uZWN0b3ItY3VydmF0dXJlPSIwIiBzdHlsZT0iZmlsbDojMjA3NUI4OyIgZD0iTTE1LjY4LDQ4LjM2YzAuMDctMC4wNyw2LjQtMS4yMywxNC4wNi0yLjU3ICBjNy42NS0xLjM1LDEzLjk3LTIuNSwxNC4wMy0yLjU2YzAuMTItMC4xMS0wLjc1LTEuMTctMTAuMjItMTIuNDZjLTIuNTItMi45OS00LjYzLTUuNTYtNC43LTUuN2MtMC4wOS0wLjE5LDAuODktMy4wNCwzLjczLTEwLjgzICBjMi4xMS01LjgxLDMuODctMTAuNjUsMy45MS0xMC43NWMwLjAzLTAuMDksMC4xMy0wLjE3LDAuMjItMC4xN2MwLjE5LDAsMjYuMTQsNDQuOTEsMjYuMDUsNDUuMDZjLTAuMDQsMC4wNi0xMC42OCwwLjEtMjMuNjQsMC4xICBDMjUuMjEsNDguNDgsMTUuNiw0OC40MywxNS42OCw0OC4zNnogTTAsNDMuMDFjLTAuMDUtMC4xMywwLjU0LTEuMjksMS40NS0yLjg4YzAuODQtMS40Niw0LjQyLTcuNjYsNy45NS0xMy43N2w2LjQxLTExLjFsOS4wOC03LjYzICBDMjkuODgsMy40NCwzNC4wNCwwLDM0LjEzLDBjMC4xLDAsMC4xMywwLjA5LDAuMDgsMC4yNEMzMy43NCwxLjQ4LDE0LjMsNDIuOTIsMTQuMTMsNDMuMDVjLTAuMTksMC4xMy0xLjg0LDAuMTctNy4xNSwwLjE3ICBDMC45MSw0My4yMiwwLjA3LDQzLjE5LDAsNDMuMDF6Ii8+JiN4YTs8L3N2Zz4=;dashed=1;strokeColor=#A1A1A1;" vertex="1" parent="1">
          <mxGeometry x="247" y="525" width="49.88" height="38" as="geometry" />
        </mxCell>
        <mxCell id="Y6577xWDLrJWWgxM1nmn-36" value="On-Prem Service&#xa;to Integrate&#xa;" style="shape=image;verticalLabelPosition=bottom;labelBackgroundColor=none;verticalAlign=top;aspect=fixed;imageAspect=0;image=data:image/svg+xml,PHN2ZyB4bWxuczpjYz0iaHR0cDovL2NyZWF0aXZlY29tbW9ucy5vcmcvbnMjIiB4bWxuczpkYz0iaHR0cDovL3B1cmwub3JnL2RjL2VsZW1lbnRzLzEuMS8iIHhtbG5zOmlua3NjYXBlPSJodHRwOi8vd3d3Lmlua3NjYXBlLm9yZy9uYW1lc3BhY2VzL2lua3NjYXBlIiB4bWxuczpyZGY9Imh0dHA6Ly93d3cudzMub3JnLzE5OTkvMDIvMjItcmRmLXN5bnRheC1ucyMiIHhtbG5zOnNvZGlwb2RpPSJodHRwOi8vc29kaXBvZGkuc291cmNlZm9yZ2UubmV0L0RURC9zb2RpcG9kaS0wLmR0ZCIgeG1sbnM6c3ZnPSJodHRwOi8vd3d3LnczLm9yZy8yMDAwL3N2ZyIgeG1sbnM9Imh0dHA6Ly93d3cudzMub3JnLzIwMDAvc3ZnIiB4bWxuczp4bGluaz0iaHR0cDovL3d3dy53My5vcmcvMTk5OS94bGluayIgdmVyc2lvbj0iMS4xIiBpZD0ic3ZnNzkzNCIgaW5rc2NhcGU6dmVyc2lvbj0iMC45Mi4zICgyNDA1NTQ2LCAyMDE4LTAzLTExKSIgc29kaXBvZGk6ZG9jbmFtZT0ic2VydmVyXzQuc3ZnIiB4PSIwcHgiIHk9IjBweCIgdmlld0JveD0iMCAwIDM5Ljk3IDYzLjUxIiBzdHlsZT0iZW5hYmxlLWJhY2tncm91bmQ6bmV3IDAgMCAzOS45NyA2My41MTsiIHhtbDpzcGFjZT0icHJlc2VydmUiPiYjeGE7PHNvZGlwb2RpOm5hbWVkdmlldyBib3JkZXJjb2xvcj0iIzY2NjY2NiIgYm9yZGVyb3BhY2l0eT0iMSIgZml0LW1hcmdpbi1ib3R0b209IjAiIGZpdC1tYXJnaW4tbGVmdD0iMCIgZml0LW1hcmdpbi1yaWdodD0iMCIgZml0LW1hcmdpbi10b3A9IjAiIGdyaWR0b2xlcmFuY2U9IjEwIiBndWlkZXRvbGVyYW5jZT0iMTAiIGlkPSJuYW1lZHZpZXc3OTM2IiBpbmtzY2FwZTpjdXJyZW50LWxheWVyPSJzdmc3OTM0IiBpbmtzY2FwZTpjeD0iMjYuNjQ4OTkzIiBpbmtzY2FwZTpjeT0iNDIuMzQwNDk4IiBpbmtzY2FwZTpwYWdlb3BhY2l0eT0iMCIgaW5rc2NhcGU6cGFnZXNoYWRvdz0iMiIgaW5rc2NhcGU6d2luZG93LWhlaWdodD0iMTAxNyIgaW5rc2NhcGU6d2luZG93LW1heGltaXplZD0iMSIgaW5rc2NhcGU6d2luZG93LXdpZHRoPSIxOTIwIiBpbmtzY2FwZTp3aW5kb3cteD0iLTgiIGlua3NjYXBlOndpbmRvdy15PSItOCIgaW5rc2NhcGU6em9vbT0iMTAuMjU5ODExIiBvYmplY3R0b2xlcmFuY2U9IjEwIiBwYWdlY29sb3I9IiNmZmZmZmYiIHNob3dncmlkPSJmYWxzZSI+JiN4YTsJPC9zb2RpcG9kaTpuYW1lZHZpZXc+JiN4YTs8ZyBpZD0iZzc5MzIiIHRyYW5zZm9ybT0idHJhbnNsYXRlKDAuMDY0NjMzLDAuMDY1MzI3ODcpIj4mI3hhOwk8dGl0bGUgaWQ9InRpdGxlNzkwNyI+UGFnZS0xPC90aXRsZT4mI3hhOwk8ZyBpZD0iZ3JvdXA3NjUzLTEiIHRyYW5zZm9ybT0idHJhbnNsYXRlKDAuMzEwMzY3LC0wLjMxMDM2NykiPiYjeGE7CQk8dGl0bGUgaWQ9InRpdGxlNzkwOSI+U2VydmVyICM0PC90aXRsZT4mI3hhOwkJPGcgaWQ9InNoYXBlNzY1NC0yIj4mI3hhOwkJCTx0aXRsZSBpZD0idGl0bGU3OTExIj5TaGVldC43NjU0PC90aXRsZT4mI3hhOwkJCSYjeGE7CQkJCTxwYXRoIGlkPSJwYXRoNzkxMyIgaW5rc2NhcGU6Y29ubmVjdG9yLWN1cnZhdHVyZT0iMCIgc3R5bGU9ImZpbGw6IzNGNTc2NTtzdHJva2U6IzNGNTc2NTtzdHJva2Utd2lkdGg6MC43NTtzdHJva2UtbGluZWNhcDpyb3VuZDtzdHJva2UtbGluZWpvaW46cm91bmQ7c3Ryb2tlLW1pdGVybGltaXQ6MzsiIGQ9IiAgICAgTTAsMC42MnY2Mi43NmgzOS4yMlYwLjYySDB6Ii8+JiN4YTsJCTwvZz4mI3hhOwkJPGcgaWQ9InNoYXBlNzY1NS00Ij4mI3hhOwkJCTx0aXRsZSBpZD0idGl0bGU3OTE2Ij5TaGVldC43NjU1PC90aXRsZT4mI3hhOwkJCSYjeGE7CQkJCTxwYXRoIGlkPSJwYXRoNzkxOCIgaW5rc2NhcGU6Y29ubmVjdG9yLWN1cnZhdHVyZT0iMCIgc3R5bGU9ImZpbGw6bm9uZTtzdHJva2U6I0ZGRkZGRjtzdHJva2Utd2lkdGg6MC42MjA3O3N0cm9rZS1saW5lY2FwOnJvdW5kO3N0cm9rZS1saW5lam9pbjpyb3VuZDtzdHJva2UtbWl0ZXJsaW1pdDozOyIgZD0iICAgICBNMCw2My4zOGgzOS4yMlYwLjYySDBWNjMuMzhMMCw2My4zOCIvPiYjeGE7CQk8L2c+JiN4YTsJCTxnIGlkPSJzaGFwZTc2NTYtNyIgdHJhbnNmb3JtPSJ0cmFuc2xhdGUoMjkuMzA3NywtMjYuNTE2NykiPiYjeGE7CQkJPHRpdGxlIGlkPSJ0aXRsZTc5MjEiPlNoZWV0Ljc2NTY8L3RpdGxlPiYjeGE7CQkJJiN4YTsJCQkJPHBhdGggaWQ9InBhdGg3OTIzIiBpbmtzY2FwZTpjb25uZWN0b3ItY3VydmF0dXJlPSIwIiBzdHlsZT0iZmlsbDojRkZGRkZGO3N0cm9rZTojRkZGRkZGO3N0cm9rZS13aWR0aDowLjc1O3N0cm9rZS1saW5lY2FwOnNxdWFyZTtzdHJva2UtbWl0ZXJsaW1pdDozOyIgZD0iICAgICBNNC43Niw2MC45N2MwLTEuMzUtMS4wOC0yLjQ1LTIuMzYtMi40NWMtMS4zMiwwLTIuNCwxLjEtMi40LDIuNDVjMCwxLjMxLDEuMDgsMi40MSwyLjQsMi40MUMzLjY4LDYzLjM4LDQuNzYsNjIuMjgsNC43Niw2MC45N3oiLz4mI3hhOwkJPC9nPiYjeGE7CQk8ZyBpZD0ic2hhcGU3NjU3LTkiIHRyYW5zZm9ybT0idHJhbnNsYXRlKDE0Ljk1MzcsLTEwLjI1NTMpIj4mI3hhOwkJCTx0aXRsZSBpZD0idGl0bGU3OTI2Ij5TaGVldC43NjU3PC90aXRsZT4mI3hhOwkJCTxwYXRoIGlkPSJwYXRoNzkyOCIgaW5rc2NhcGU6Y29ubmVjdG9yLWN1cnZhdHVyZT0iMCIgc3R5bGU9ImZpbGw6I0ZGRkZGRjsiIGQ9Ik0wLDYzLjM4aDE5LjExdi0xLjZIMFY2My4zOHogTTAsNTguNmgxOS4xMSAgICAgdi0xLjU1SDBWNTguNnogTTAsNTMuODZoMTkuMTF2LTEuNTlIMFY1My44NnoiLz4mI3hhOwkJPC9nPiYjeGE7CTwvZz4mI3hhOzwvZz4mI3hhOzwvc3ZnPg==;dashed=1;strokeColor=#A1A1A1;" vertex="1" parent="1">
          <mxGeometry x="68.49999999999989" y="16" width="40" height="64" as="geometry" />
        </mxCell>
        <mxCell id="Y6577xWDLrJWWgxM1nmn-40" style="edgeStyle=orthogonalEdgeStyle;rounded=0;orthogonalLoop=1;jettySize=auto;html=1;entryX=0;entryY=0.75;entryDx=0;entryDy=0;startArrow=none;startFill=0;endArrow=classic;endFill=1;" edge="1" parent="1" source="Y6577xWDLrJWWgxM1nmn-39" target="Y6577xWDLrJWWgxM1nmn-6">
          <mxGeometry relative="1" as="geometry" />
        </mxCell>
        <mxCell id="Y6577xWDLrJWWgxM1nmn-39" value="Tableau Online" style="shape=image;verticalLabelPosition=bottom;labelBackgroundColor=#ffffff;verticalAlign=top;aspect=fixed;imageAspect=0;image=data:image/svg+xml,PHN2ZyB4bWxuczpjYz0iaHR0cDovL2NyZWF0aXZlY29tbW9ucy5vcmcvbnMjIiB4bWxuczpkYz0iaHR0cDovL3B1cmwub3JnL2RjL2VsZW1lbnRzLzEuMS8iIHhtbG5zOmlua3NjYXBlPSJodHRwOi8vd3d3Lmlua3NjYXBlLm9yZy9uYW1lc3BhY2VzL2lua3NjYXBlIiB4bWxuczpyZGY9Imh0dHA6Ly93d3cudzMub3JnLzE5OTkvMDIvMjItcmRmLXN5bnRheC1ucyMiIHhtbG5zOnNvZGlwb2RpPSJodHRwOi8vc29kaXBvZGkuc291cmNlZm9yZ2UubmV0L0RURC9zb2RpcG9kaS0wLmR0ZCIgeG1sbnM6c3ZnPSJodHRwOi8vd3d3LnczLm9yZy8yMDAwL3N2ZyIgeG1sbnM9Imh0dHA6Ly93d3cudzMub3JnLzIwMDAvc3ZnIiB4bWxuczp4bGluaz0iaHR0cDovL3d3dy53My5vcmcvMTk5OS94bGluayIgdmVyc2lvbj0iMS4xIiBpZD0ic3ZnMjY0OTQzIiBpbmtzY2FwZTp2ZXJzaW9uPSIwLjkyLjMgKDI0MDU1NDYsIDIwMTgtMDMtMTEpIiBzb2RpcG9kaTpkb2NuYW1lPSJ3ZWJfc2VydmljZV9paXMuc3ZnIiB4PSIwcHgiIHk9IjBweCIgdmlld0JveD0iMCAwIDQ4LjQxIDY5Ljc2IiBzdHlsZT0iZW5hYmxlLWJhY2tncm91bmQ6bmV3IDAgMCA0OC40MSA2OS43NjsiIHhtbDpzcGFjZT0icHJlc2VydmUiPiYjeGE7PHNvZGlwb2RpOm5hbWVkdmlldyBib3JkZXJjb2xvcj0iIzY2NjY2NiIgYm9yZGVyb3BhY2l0eT0iMSIgZml0LW1hcmdpbi1ib3R0b209IjAiIGZpdC1tYXJnaW4tbGVmdD0iMCIgZml0LW1hcmdpbi1yaWdodD0iMCIgZml0LW1hcmdpbi10b3A9IjAiIGdyaWR0b2xlcmFuY2U9IjEwIiBndWlkZXRvbGVyYW5jZT0iMTAiIGlkPSJuYW1lZHZpZXcyNjQ5NDUiIGlua3NjYXBlOmN1cnJlbnQtbGF5ZXI9InN2ZzI2NDk0MyIgaW5rc2NhcGU6Y3g9IjE0LjM4MzM5OCIgaW5rc2NhcGU6Y3k9IjQ2LjUwODM0NiIgaW5rc2NhcGU6cGFnZW9wYWNpdHk9IjAiIGlua3NjYXBlOnBhZ2VzaGFkb3c9IjIiIGlua3NjYXBlOndpbmRvdy1oZWlnaHQ9IjEwMTciIGlua3NjYXBlOndpbmRvdy1tYXhpbWl6ZWQ9IjEiIGlua3NjYXBlOndpbmRvdy13aWR0aD0iMTkyMCIgaW5rc2NhcGU6d2luZG93LXg9Ii04IiBpbmtzY2FwZTp3aW5kb3cteT0iLTgiIGlua3NjYXBlOnpvb209IjkuMTI1MzY4OSIgb2JqZWN0dG9sZXJhbmNlPSIxMCIgcGFnZWNvbG9yPSIjZmZmZmZmIiBzaG93Z3JpZD0iZmFsc2UiPiYjeGE7CTwvc29kaXBvZGk6bmFtZWR2aWV3PiYjeGE7PGcgaWQ9ImcyNjQ5NDEiIHRyYW5zZm9ybT0idHJhbnNsYXRlKC0wLjc1LC0wLjc1MDAzODc4KSI+JiN4YTsJPHRpdGxlIGlkPSJ0aXRsZTI2NDgxNSI+UGFnZS0xPC90aXRsZT4mI3hhOwk8ZyBpZD0iZ3JvdXAxMTE3MC0xIiB0cmFuc2Zvcm09InRyYW5zbGF0ZSgxLjUsLTEuNSkiPiYjeGE7CQk8dGl0bGUgaWQ9InRpdGxlMjY0ODE3Ij5XZWIgU2VydmljZS9JSVM8L3RpdGxlPiYjeGE7CQk8ZyBpZD0iZ3JvdXAxMTE3MS0yIiB0cmFuc2Zvcm09InRyYW5zbGF0ZSgwLC0wLjAwNzM5ODc2KSI+JiN4YTsJCQk8dGl0bGUgaWQ9InRpdGxlMjY0ODE5Ij5nMTU0MzMuMTE3MjE8L3RpdGxlPiYjeGE7CQkJPGcgaWQ9InNoYXBlMTExNzItMyI+JiN4YTsJCQkJPHRpdGxlIGlkPSJ0aXRsZTI2NDgyMSI+cmVjdDE1NDA1PC90aXRsZT4mI3hhOwkJCQkmI3hhOwkJCQkJPHJlY3QgaWQ9InJlY3QyNjQ4MjMiIHk9IjMuMDEiIHN0eWxlPSJmaWxsOiNGRkZGRkY7c3Ryb2tlOiM1NTZBOEE7c3Ryb2tlLXdpZHRoOjEuNTtzdHJva2UtbWl0ZXJsaW1pdDozOyIgd2lkdGg9IjM5Ljc1IiBoZWlnaHQ9IjY4LjI1Ii8+JiN4YTsJCQk8L2c+JiN4YTsJCQk8ZyBpZD0iZ3JvdXAxMTE3My01IiB0cmFuc2Zvcm09InRyYW5zbGF0ZSgxLjUsLTAuNzUpIj4mI3hhOwkJCQk8dGl0bGUgaWQ9InRpdGxlMjY0ODI2Ij5nMTU0MjU8L3RpdGxlPiYjeGE7CQkJCTxnIGlkPSJzaGFwZTExMTc0LTYiIHRyYW5zZm9ybT0idHJhbnNsYXRlKDE4KSI+JiN4YTsJCQkJCTx0aXRsZSBpZD0idGl0bGUyNjQ4MjgiPnJlY3QxNTQwNzwvdGl0bGU+JiN4YTsJCQkJCTxyZWN0IGlkPSJyZWN0MjY0ODMwIiB5PSI0LjUxIiBzdHlsZT0iZmlsbDojRTVFNUU1OyIgd2lkdGg9IjE5LjUiIGhlaWdodD0iNjYuNzUiLz4mI3hhOwkJCQk8L2c+JiN4YTsJCQkJPGcgaWQ9InNoYXBlMTExNzUtOCIgdHJhbnNmb3JtPSJ0cmFuc2xhdGUoMCwtNDgpIj4mI3hhOwkJCQkJPHRpdGxlIGlkPSJ0aXRsZTI2NDgzMyI+cmVjdDE1NDA5PC90aXRsZT4mI3hhOwkJCQkJPHJlY3QgaWQ9InJlY3QyNjQ4MzUiIHk9IjY5LjAxIiBzdHlsZT0iZmlsbDojMkJDN0Y0OyIgd2lkdGg9IjE4IiBoZWlnaHQ9IjIuMjUiLz4mI3hhOwkJCQk8L2c+JiN4YTsJCQkJPGcgaWQ9InNoYXBlMTExNzYtMTAiIHRyYW5zZm9ybT0idHJhbnNsYXRlKDAsLTU4LjUpIj4mI3hhOwkJCQkJPHRpdGxlIGlkPSJ0aXRsZTI2NDgzOCI+cG9seWdvbjE1NDExPC90aXRsZT4mI3hhOwkJCQkJPHJlY3QgaWQ9InJlY3QyNjQ4NDAiIHk9IjY5LjAxIiBzdHlsZT0iZmlsbDpub25lOyIgd2lkdGg9IjI3IiBoZWlnaHQ9IjIuMjUiLz4mI3hhOwkJCQk8L2c+JiN4YTsJCQkJPGcgaWQ9InNoYXBlMTExNzctMTIiIHRyYW5zZm9ybT0idHJhbnNsYXRlKDAsLTU4LjUpIj4mI3hhOwkJCQkJPHRpdGxlIGlkPSJ0aXRsZTI2NDg0MyI+cG9seWxpbmUxNTQxMzwvdGl0bGU+JiN4YTsJCQkJCTxyZWN0IGlkPSJyZWN0MjY0ODQ1IiB5PSI2OS4wMSIgc3R5bGU9ImZpbGw6bm9uZTsiIHdpZHRoPSIyNyIgaGVpZ2h0PSIyLjI1Ii8+JiN4YTsJCQkJPC9nPiYjeGE7CQkJCTxnIGlkPSJzaGFwZTExMTc4LTE0IiB0cmFuc2Zvcm09InRyYW5zbGF0ZSgwLC01My4yNSkiPiYjeGE7CQkJCQk8dGl0bGUgaWQ9InRpdGxlMjY0ODQ4Ij5yZWN0MTU0MTU8L3RpdGxlPiYjeGE7CQkJCQk8cmVjdCBpZD0icmVjdDI2NDg1MCIgeT0iNjkuMDEiIHN0eWxlPSJmaWxsOiMyQkM3RjQ7IiB3aWR0aD0iMTgiIGhlaWdodD0iMi4yNSIvPiYjeGE7CQkJCTwvZz4mI3hhOwkJCQk8ZyBpZD0ic2hhcGUxMTE3OS0xNiIgdHJhbnNmb3JtPSJ0cmFuc2xhdGUoMCwtNTguNSkiPiYjeGE7CQkJCQk8dGl0bGUgaWQ9InRpdGxlMjY0ODUzIj5yZWN0MTU0MTc8L3RpdGxlPiYjeGE7CQkJCQk8cmVjdCBpZD0icmVjdDI2NDg1NSIgeT0iNjkuMDEiIHN0eWxlPSJmaWxsOiMyQkM3RjQ7IiB3aWR0aD0iMTgiIGhlaWdodD0iMi4yNSIvPiYjeGE7CQkJCTwvZz4mI3hhOwkJCQk8ZyBpZD0ic2hhcGUxMTE4MC0xOCIgdHJhbnNmb3JtPSJ0cmFuc2xhdGUoMTgsLTQ4KSI+JiN4YTsJCQkJCTx0aXRsZSBpZD0idGl0bGUyNjQ4NTgiPnJlY3QxNTQxOTwvdGl0bGU+JiN4YTsJCQkJCTxyZWN0IGlkPSJyZWN0MjY0ODYwIiB5PSI2OS4wMSIgc3R5bGU9ImZpbGw6IzU1NkE4QTsiIHdpZHRoPSIxOS41IiBoZWlnaHQ9IjIuMjUiLz4mI3hhOwkJCQk8L2c+JiN4YTsJCQkJPGcgaWQ9InNoYXBlMTExODEtMjAiIHRyYW5zZm9ybT0idHJhbnNsYXRlKDE4LC01My4yNSkiPiYjeGE7CQkJCQk8dGl0bGUgaWQ9InRpdGxlMjY0ODYzIj5yZWN0MTU0MjE8L3RpdGxlPiYjeGE7CQkJCQk8cmVjdCBpZD0icmVjdDI2NDg2NSIgeT0iNjkuMDEiIHN0eWxlPSJmaWxsOiM1NTZBOEE7IiB3aWR0aD0iMTkuNSIgaGVpZ2h0PSIyLjI1Ii8+JiN4YTsJCQkJPC9nPiYjeGE7CQkJCTxnIGlkPSJzaGFwZTExMTgyLTIyIiB0cmFuc2Zvcm09InRyYW5zbGF0ZSgxOCwtNTguNSkiPiYjeGE7CQkJCQk8dGl0bGUgaWQ9InRpdGxlMjY0ODY4Ij5yZWN0MTU0MjM8L3RpdGxlPiYjeGE7CQkJCQk8cmVjdCBpZD0icmVjdDI2NDg3MCIgeT0iNjkuMDEiIHN0eWxlPSJmaWxsOiM1NTZBOEE7IiB3aWR0aD0iMTkuNSIgaGVpZ2h0PSIyLjI1Ii8+JiN4YTsJCQkJPC9nPiYjeGE7CQkJPC9nPiYjeGE7CQkJPGcgaWQ9InNoYXBlMTExODMtMjQiIHRyYW5zZm9ybT0idHJhbnNsYXRlKDAuNzUsLTU5LjI1KSI+JiN4YTsJCQkJPHRpdGxlIGlkPSJ0aXRsZTI2NDg3NCI+cmVjdDE1NDI3PC90aXRsZT4mI3hhOwkJCQk8cmVjdCBpZD0icmVjdDI2NDg3NiIgeT0iNjkuMDEiIHN0eWxlPSJmaWxsOiM1NTZBOEE7IiB3aWR0aD0iMi4yNSIgaGVpZ2h0PSIyLjI1Ii8+JiN4YTsJCQk8L2c+JiN4YTsJCQk8ZyBpZD0ic2hhcGUxMTE4NC0yNiIgdHJhbnNmb3JtPSJ0cmFuc2xhdGUoMC43NSwtNTQpIj4mI3hhOwkJCQk8dGl0bGUgaWQ9InRpdGxlMjY0ODc5Ij5yZWN0MTU0Mjk8L3RpdGxlPiYjeGE7CQkJCTxyZWN0IGlkPSJyZWN0MjY0ODgxIiB5PSI2OS4wMSIgc3R5bGU9ImZpbGw6IzU1NkE4QTsiIHdpZHRoPSIyLjI1IiBoZWlnaHQ9IjIuMjUiLz4mI3hhOwkJCTwvZz4mI3hhOwkJCTxnIGlkPSJzaGFwZTExMTg1LTI4IiB0cmFuc2Zvcm09InRyYW5zbGF0ZSgwLjc1LC00OC43NSkiPiYjeGE7CQkJCTx0aXRsZSBpZD0idGl0bGUyNjQ4ODQiPnJlY3QxNTQzMTwvdGl0bGU+JiN4YTsJCQkJPHJlY3QgaWQ9InJlY3QyNjQ4ODYiIHk9IjY5LjAxIiBzdHlsZT0iZmlsbDojNTU2QThBOyIgd2lkdGg9IjIuMjUiIGhlaWdodD0iMi4yNSIvPiYjeGE7CQkJPC9nPiYjeGE7CQk8L2c+JiN4YTsJCTxnIGlkPSJzaGFwZTExMTg2LTMwIiB0cmFuc2Zvcm09InRyYW5zbGF0ZSgxMy42OTgzKSI+JiN4YTsJCQk8dGl0bGUgaWQ9InRpdGxlMjY0ODkwIj5wb2x5Z29uMTU0MzUuMTE3Mzc8L3RpdGxlPiYjeGE7CQkJJiN4YTsJCQkJPHBhdGggaWQ9InBhdGgyNjQ4OTIiIGlua3NjYXBlOmNvbm5lY3Rvci1jdXJ2YXR1cmU9IjAiIHN0eWxlPSJmaWxsOiNGRkZGRkY7c3Ryb2tlOiNBQUU5RkI7c3Ryb2tlLXdpZHRoOjEuNTtzdHJva2UtbWl0ZXJsaW1pdDozOyIgZD0iICAgICBNOC4yNyw3MS4yNkwwLDU3LjAybDguMjctMTQuMjNoMTYuNTVsOC4yNywxNC4yM2wtOC4yNywxNC4yNEg4LjI3eiIvPiYjeGE7CQk8L2c+JiN4YTsJCTxnIGlkPSJncm91cDExMTg3LTMyIiB0cmFuc2Zvcm09InRyYW5zbGF0ZSgyMC42NTIsLTQuNjAzMTMpIj4mI3hhOwkJCTx0aXRsZSBpZD0idGl0bGUyNjQ4OTUiPkhUVFAuMTQ3MjQ8L3RpdGxlPiYjeGE7CQkJPGcgaWQ9InNoYXBlMTExODgtMzMiIHRyYW5zZm9ybT0idHJhbnNsYXRlKDIuODc4ODksLTIuOTYzMTgpIj4mI3hhOwkJCQk8dGl0bGUgaWQ9InRpdGxlMjY0ODk3Ij5wYXRoOTYxMDwvdGl0bGU+JiN4YTsJCQkJJiN4YTsJCQkJCTxwYXRoIGlkPSJwYXRoMjY0ODk5IiBpbmtzY2FwZTpjb25uZWN0b3ItY3VydmF0dXJlPSIwIiBzdHlsZT0iZmlsbDojRkZGRkZGO3N0cm9rZTojNTU2QThBO3N0cm9rZS13aWR0aDowLjc1O3N0cm9rZS1taXRlcmxpbWl0OjM7IiBkPSIgICAgICBNMTYuMSw2NC41OWMwLDUuMjEtNC4yMiw5LjQzLTkuNDMsOS40M2MtNS4yMSwwLTkuNDMtNC4yMi05LjQzLTkuNDNjMC01LjIxLDQuMjItOS40Myw5LjQzLTkuNDNjMCwwLDAsMCwwLDAgICAgICBDMTEuODgsNTUuMTcsMTYuMDksNTkuMzgsMTYuMSw2NC41OXoiLz4mI3hhOwkJCTwvZz4mI3hhOwkJCTxnIGlkPSJzaGFwZTExMTg5LTM1IiB0cmFuc2Zvcm09InRyYW5zbGF0ZSgwLjExNjM4OCwtMC4yMDA2NzYpIj4mI3hhOwkJCQk8dGl0bGUgaWQ9InRpdGxlMjY0OTAyIj5wYXRoOTYxMjwvdGl0bGU+JiN4YTsJCQkJJiN4YTsJCQkJCTxwYXRoIGlkPSJwYXRoMjY0OTA0IiBpbmtzY2FwZTpjb25uZWN0b3ItY3VydmF0dXJlPSIwIiBzdHlsZT0iZmlsbDojRDRFMkY1O3N0cm9rZTojNTU2QThBO3N0cm9rZS13aWR0aDowLjc1O3N0cm9rZS1taXRlcmxpbWl0OjM7IiBkPSIgICAgICBNMTguODYsNjEuODNjMC4xLDUuMjEtNC4wNCw5LjUxLTkuMjUsOS42MUM0LjQsNzEuNTQsMC4xLDY3LjQsMCw2Mi4yYzAtMC4xMiwwLTAuMjQsMC0wLjM3SDE4Ljg2eiIvPiYjeGE7CQkJPC9nPiYjeGE7CQkJPGcgaWQ9InNoYXBlMTExOTAtMzciIHRyYW5zZm9ybT0idHJhbnNsYXRlKDAuNzE4NDE2LC0yLjgyMTI4KSI+JiN4YTsJCQkJPHRpdGxlIGlkPSJ0aXRsZTI2NDkwNyI+cGF0aDk2MTQ8L3RpdGxlPiYjeGE7CQkJCSYjeGE7CQkJCQk8cGF0aCBpZD0icGF0aDI2NDkwOSIgaW5rc2NhcGU6Y29ubmVjdG9yLWN1cnZhdHVyZT0iMCIgc3R5bGU9ImZpbGw6IzU1NkE4QTtzdHJva2U6IzU1NkE4QTtzdHJva2Utd2lkdGg6MC43NTtzdHJva2UtbWl0ZXJsaW1pdDozOyIgZD0iICAgICAgTTguODMsNTUuNjJjNC44OCwwLDguODMsMy45NSw4LjgzLDguODNzLTMuOTUsOC44My04LjgzLDguODNDMy45NSw3My4yOCwwLDY5LjMzLDAsNjQuNDVDMCw1OS41NywzLjk1LDU1LjYyLDguODMsNTUuNjIgICAgICBDOC44Myw1NS42Miw4LjgzLDU1LjYyLDguODMsNTUuNjJ6IE04LjgzLDU0LjgxYy01LjMyLDAtOS42Myw0LjMxLTkuNjMsOS42M2MwLDUuMzIsNC4zMSw5LjYzLDkuNjMsOS42MyAgICAgIGM1LjMyLDAsOS42My00LjMxLDkuNjMtOS42MkMxOC40Niw1OS4xMywxNC4xNSw1NC44MSw4LjgzLDU0LjgxQzguODMsNTQuODEsOC44Myw1NC44MSw4LjgzLDU0LjgxeiIvPiYjeGE7CQkJPC9nPiYjeGE7CQkJPGcgaWQ9Imdyb3VwMTExOTEtMzkiPiYjeGE7CQkJCTx0aXRsZSBpZD0idGl0bGUyNjQ5MTIiPmc5NjIwPC90aXRsZT4mI3hhOwkJCQk8ZyBpZD0ic2hhcGUxMTE5Mi00MCIgdHJhbnNmb3JtPSJ0cmFuc2xhdGUoNS4xMzMyOSkiPiYjeGE7CQkJCQk8dGl0bGUgaWQ9InRpdGxlMjY0OTE0Ij5wYXRoOTYxNjwvdGl0bGU+JiN4YTsJCQkJCSYjeGE7CQkJCQkJPHBhdGggaWQ9InBhdGgyNjQ5MTYiIGlua3NjYXBlOmNvbm5lY3Rvci1jdXJ2YXR1cmU9IjAiIHN0eWxlPSJmaWxsOiM1NTZBOEE7c3Ryb2tlOiM1NTZBOEE7c3Ryb2tlLXdpZHRoOjAuNzU7c3Ryb2tlLW1pdGVybGltaXQ6MzsiIGQ9IiAgICAgICBNNC4yMSw1Mi45YzEuNjEsMCwzLjQyLDMuNzYsMy40Miw4Ljc4cy0xLjgxLDguNzctMy40Miw4Ljc3Yy0xLjYsMC0zLjQxLTMuNzUtMy40MS04Ljc3UzIuNjEsNTIuOSw0LjIxLDUyLjl6IE00LjIxLDUyLjEgICAgICAgQzEuODksNTIuMSwwLDU2LjM5LDAsNjEuNjhzMS44OSw5LjU4LDQuMjEsOS41OGMyLjMzLDAsNC4yMi00LjI5LDQuMjItOS41OFM2LjU0LDUyLjEsNC4yMSw1Mi4xeiIvPiYjeGE7CQkJCTwvZz4mI3hhOwkJCQk8ZyBpZD0ic2hhcGUxMTE5My00MiIgdHJhbnNmb3JtPSJ0cmFuc2xhdGUoMCwtOS42MzI0NSkiPiYjeGE7CQkJCQk8dGl0bGUgaWQ9InRpdGxlMjY0OTE5Ij5saW5lOTYxODwvdGl0bGU+JiN4YTsJCQkJCSYjeGE7CQkJCQkJPHBhdGggaWQ9InBhdGgyNjQ5MjEiIGlua3NjYXBlOmNvbm5lY3Rvci1jdXJ2YXR1cmU9IjAiIHN0eWxlPSJmaWxsOm5vbmU7c3Ryb2tlOiM1NTZBOEE7c3Ryb2tlLXdpZHRoOjEuNTtzdHJva2UtbWl0ZXJsaW1pdDozOyIgZD0iICAgICAgIE0wLDcxLjI2aDE4Ljc4Ii8+JiN4YTsJCQkJPC9nPiYjeGE7CQkJPC9nPiYjeGE7CQkJPGcgaWQ9InNoYXBlMTExOTQtNDUiIHRyYW5zZm9ybT0idHJhbnNsYXRlKDIuMzI3ODQsLTE0LjQ0ODcpIj4mI3hhOwkJCQk8dGl0bGUgaWQ9InRpdGxlMjY0OTI1Ij5wYXRoOTYyMjwvdGl0bGU+JiN4YTsJCQkJPHBhdGggaWQ9InBhdGgyNjQ5MjciIGlua3NjYXBlOmNvbm5lY3Rvci1jdXJ2YXR1cmU9IjAiIHN0eWxlPSJmaWxsOm5vbmU7IiBkPSJNMCw3MC4xN2MxLjc2LDAuNjksNC4zNSwxLjA5LDcuMjIsMS4wOSAgICAgIHM1LjQ2LTAuNCw3LjIyLTEuMDlIMHoiLz4mI3hhOwkJCQkmI3hhOwkJCQkJPHBhdGggaWQ9InBhdGgyNjQ5MjkiIGlua3NjYXBlOmNvbm5lY3Rvci1jdXJ2YXR1cmU9IjAiIHN0eWxlPSJmaWxsOm5vbmU7c3Ryb2tlOiM1NTZBOEE7c3Ryb2tlLXdpZHRoOjEuNTtzdHJva2UtbWl0ZXJsaW1pdDozOyIgZD0iICAgICAgTTAsNzAuMTdjMS43NiwwLjY5LDQuMzUsMS4wOSw3LjIyLDEuMDlzNS40Ni0wLjQsNy4yMi0xLjA5Ii8+JiN4YTsJCQk8L2c+JiN4YTsJCQk8ZyBpZD0ic2hhcGUxMTE5NS00OCIgdHJhbnNmb3JtPSJ0cmFuc2xhdGUoMi4zMjc4NCwtMy43Mjg1NikiPiYjeGE7CQkJCTx0aXRsZSBpZD0idGl0bGUyNjQ5MzIiPnBhdGg5NjI0PC90aXRsZT4mI3hhOwkJCQk8cGF0aCBpZD0icGF0aDI2NDkzNCIgaW5rc2NhcGU6Y29ubmVjdG9yLWN1cnZhdHVyZT0iMCIgc3R5bGU9ImZpbGw6bm9uZTsiIGQ9Ik0wLDcxLjI2YzEuNzYtMC42OSw0LjM1LTEuMDksNy4yMi0xLjA5ICAgICAgczUuNDYsMC40LDcuMjIsMS4wOUgweiIvPiYjeGE7CQkJCSYjeGE7CQkJCQk8cGF0aCBpZD0icGF0aDI2NDkzNiIgaW5rc2NhcGU6Y29ubmVjdG9yLWN1cnZhdHVyZT0iMCIgc3R5bGU9ImZpbGw6bm9uZTtzdHJva2U6IzU1NkE4QTtzdHJva2Utd2lkdGg6MS41O3N0cm9rZS1taXRlcmxpbWl0OjM7IiBkPSIgICAgICBNMCw3MS4yNmMxLjc2LTAuNjksNC4zNS0xLjA5LDcuMjItMS4wOXM1LjQ2LDAuNCw3LjIyLDEuMDkiLz4mI3hhOwkJCTwvZz4mI3hhOwkJPC9nPiYjeGE7CTwvZz4mI3hhOzwvZz4mI3hhOzwvc3ZnPg==;dashed=1;strokeColor=#A1A1A1;fillColor=#D4E1F5;" vertex="1" parent="1">
          <mxGeometry x="70" y="540" width="48" height="70" as="geometry" />
        </mxCell>
      </root>
    </mxGraphModel>
  </diagram>
</mxfile>
